<mxfile host="app.diagrams.net" modified="2023-08-09T13:51:42.157Z" agent="Mozilla/5.0 (Windows NT 10.0; Win64; x64) AppleWebKit/537.36 (KHTML, like Gecko) Chrome/115.0.0.0 Safari/537.36" etag="J0w5mbiq1jczNZHQ5U05" version="21.6.6" type="device">
  <diagram name="PÃ¡gina-1" id="Y_nCx6u9FZO9oWuJkBnq">
    <mxGraphModel dx="1313" dy="1887" grid="1" gridSize="10" guides="1" tooltips="1" connect="1" arrows="1" fold="1" page="1" pageScale="1" pageWidth="827" pageHeight="1169" math="0" shadow="0">
      <root>
        <mxCell id="0" />
        <mxCell id="1" parent="0" />
        <mxCell id="w96i7xLCoSj7qpEWfzxq-1" value="" style="shape=image;verticalLabelPosition=bottom;labelBackgroundColor=default;verticalAlign=top;aspect=fixed;imageAspect=0;image=data:image/png,iVBORw0KGgoAAAANSUhEUgAAAuQAAAGHCAYAAAD4LEcMAAAAAXNSR0IArs4c6QAAAARnQU1BAACxjwv8YQUAAAAJcEhZcwAAEnQAABJ0Ad5mH3gAAO6HSURBVHhe7J0HlBRFF4ULc1ZUVEwIghhBRUQRRTEriooYEAPmjFkwYcKcMCKKAQTMCeNvRhHFjGIAjGBEzIq5/vredA29zczs7BIG8H7nDOz2dFdXvUq3Xr+ureMDTgghhBBCCFER5kj+F0IIIYQQQlSAkoL8119/dSNGjHCPPvqoe+GFF9x3332XfFOVe+65x+21115uv/32c0888YST0332YNKkSW6XXXZxSy65pFt66aXdtddem3wjhBBCCCGmFQUF+bfffuvOPvtst9JKK7lWrVq57bbbzm288cauXr16rlOnTu7999/Pi+5///3X9ezZ0w0aNMjdeuutrlevXu6PP/6w72oKC4CvvvrKTZgwwf3zzz/J0dkf7Lfqqqu6pk2buiOPPNL9+eefyTeTwaZdu3a1c1ZbbTV3yimnuL/++iv5djLUx1FHHWXnNWvWzD355JPJNzXn77//dmPGjHETJ05033zzjfviiy+Sb4QQQgghxLRiCkGOF7xjx47uzDPPNGGeBrF39913mzf8l19+SY66aSKeEZx77LGHW2+99exz1113Jd/M/owbN8598MEHbvTo0e7BBx+sYtvIm2++6W6//XY7hwXRwIED3c8//5x8OxlEM4sjznvnnXdqvTgSQgghhBAzhiqCHGF96aWXuqFDh5oHfN5553VdunRx119/vevdu7fbbbfdLHwBwRhF+BxzzOG6d+9uoQ277767O/nkk+26mkJ6H374ofv888/dZ599Zv//V2ABEsEbPXbs2OS3HNTFI4884n7//ffkiLOnCAjzLMOGDXM//PCD/UyYybrrrms/CyGEEEKImZMqghxvKvHike23397179/fHXzwwRYGgYcWT22PHj3cQgstlJzl3D777GOe88GDB7ttt93W1alTJ/lGlEPLli3zNvvtt99MVKdBiBObn4b47qeeeir5LQdPMB566CH7H9Zff323zDLL2M9CCCGEEGLmpIogJyb5p59+Sn5zbqmllsoLRf7ns9xyy9nLm3PNNZcdB4Q4onz//fevIgjx7L711lt2fM0113TLLrusW2GFFUyAHn/88XYvzr3iiissPjrtFSfsYs8993R77723e+2115KjOfCkE2vdokULt/zyy9tn7bXXdgceeKAbNWpUctZkiG0nHe5JSA4vquLRb9iwoV276aabunvvvdfygg2uueYat9FGG1lZV155ZTuXcmQh1pvQGkJtmjdvbmlRRmK8d9pppyqLm1I0btzY4vUjDz/8cJX4cEKHiOXOQngLwjyCPaOtqKstttgiX39Afbz33nvu8MMPN3tF262zzjruiCOOcB9//HFyZnGee+4516FDB9eoUSOzD3V5wQUXKDRGCCGEEKK2BJGWJwg6H8Qkb2vap0GDBv6NN97wQRwmZxRmhx12yF+z7777+r///tuOf/DBBz4I8Px36c+8887rn3/+ef/bb7/5IGYLnhM/l112maUXBLMPgtOvuOKKBc/jE4Stf/vtt+3cSMzf/PPPb2ktuOCCU1w355xz+rCw8EHo+znmmGOK74MA9Z9++mmSovdBjPsuXbpMcV76s8ACC/hHHnmkSl6KcfDBB+evW3zxxX1YnCTfeLMT9uK7xRZbzPIa0x89enRyVs7eiyyyiH0333zz+RdffDH5Jme7119/3QcBnr9P9rP00kvbORHaQ1hI5b9ff/317Z7pa/gE0e+PPfZYH0R5cqUQQgghhCiXKh7yIOLMkx0JAtS8x3i48UqH85NvqoeYcEJbeGER8IyfdtppdiyGaHDOPPPMY97lIDQtHj0SxLMdY2cXdgwBXmI86KCDLMYcwoLBnX766e7EE0+0eGn45JNPzBse46jTEPpx6qmn2m4u3Cvt5ScvhObgHcdTPvfcc1fxLn/00UeuT58+ee8/ab3yyiv2M/nEO3/RRReZpzmG8xB+Qkx9+qlDMXbeeWe7J3z//fdVPOJhUZT3mPMkIoahkH5YfNjPQB1Fj3kQ9VW87uPHjzdPP/8D9YEtsB02hq+//tqOFYMnC9wTYl6BdnHVVVe5Z555JjkihBBCCCHKxmR5iiAyC3qgg8g0L+5bb72VnDmZQh7yICrz3vEguv0TTzyRnJ3z1uJ5//HHH5Mj3geRXMU7f8kllyTfTGbgwIE+CEH7foklljBPeGT48OF+4YUXtu/wJg8dOjT5pmr+8C536tTJB/Hqg2j3HTp0yH/Hh3LiRSc/5BGPe/xu880390GIW5p4g7t37+6vvPJKHxYKdizSt2/fvBcbj/XYsWOTb4rzxRdf+Pr16+fv1bt3bzuOrcgvx/B6U65NNtkkf15Y4Nh5cO6555q3muPbb799FY/15Zdfnr+mSZMmPghzO076Tz/9tJWb77DhqFGj7Lush5y0o+2C8Leypz3mYTFi1wkhhBBCiPKp4iEHdvx47LHHLH48DTurBKFp+5EHAZccLU7aA02sNXHG0WuN55kY5iBW7fdywDNNLHj0FLP1Ytqbv9Zaa1lcM3DOu+++az9nadu2rb2oyrmLLrqoO/roo/Oeef4PYtwde+yxLghNyyPx0hHiz+PuMnj2zz//fHvZNf2CKxCTHT3I7OUdvcqlwMue9mjz8ixgs5dfftl+Jj6d+knvnJKOr3/++efNW4192bqSPEbS3uttttnGBfFvP3MuNsF+wFOIF1980X7Ogi14XwDb8TSFpxXpHWIKxdkLIYQQQojSTCHIgZcSeTmSMIQ11lijSugG4Re77rqre/XVV5MjhUGkIpqj2GVHEP74DS9qPv7443lhWy7cNy2yEan77rtv/nPIIYe4L7/80r5DvLN9YCEI1UiHW7DwiNs0ImAR02nSCxPyjOBNQ/gLWxLyB5F4WZLwnrPOOqvKS5nZawpBHgjliYwcOdLKwV7i8Q/yIJoJ5dlss83ydUI9IdoJN4nhK3Xr1nWbb765/QykQ8hNhF1ceIk22o6fCU+KFNtykrYw55xzJr/lwlZoKxHyIIQQQgghakZBQQ7sN85OJsQvX3nllbYbR4QYZ3ZBKQVCnPjpHXbYIe+pRbCxdSIeWuK1C/1hm2IQG434jSDI8XTHD38oh78mCYjVtOguBV78uGgoRDrOPA0iF480HmK2hyQ+/rrrrnM333yz7TRT0wUHeWjXrl1eaLPjCfHe7AmPlx3iYgHhHhcKlJlYdoQ7f+UUiLlfccUV7Wcg3j39x4Zef/31Krbjk/4rnHi/y4E8L7HEEslvuSchQgghhBCiZhRXogkIW4T5fffdZyEeEURddeAlRygPGTLEtWnTporwveWWW8yrXI73GLg2emcRrWw1ePHFFxf84Nnnxc7pCWKZJwDxj/MQbtKtWzcLzSHkpdwFQZpWrVrlhTaLHsQ4L1JG2OYReIE1/ownnrphccAiAUgnDXlJe7YJPSlkNz6EJRGKUg7UXVrop0NkhBBCCCFEeVQryCPsxx1344BinuMsCy64oNtqq61MMBLHzB+rAcQjYh3hGUmHxkSvcIR0CMUAhGCTJk3cCSecUPDDTifT+w/isAd4escSysd+6jwV4K+blmufNIjxGLZCGdkbnX3DgfKvvvrq9jOLE3a/ifZ69tln7f6RQoKcGPUIYSbHHXdcQdshxtmhpRDsh572/LMY4E/0R+JON0IIIYQQonyqCHLijPFkEw6S9VyzpV46rCG+BFgMhBuxyulY6k022cQ8yNGTSghK/IMyeHDTXlzixaPHF/C2p2Osb7vtNnvJslJ88MEHeRvxh3144TKSfvmzJiC0if2OQps/LBT/WA/x2/whngi2iF54RPHw4cPtZ8JNCv25/HSsN/H8hLHUlBtvvNGebMRyszVjvC+kX7IVQgghhBDlUUWQT5gwwV7WZCcVdhhhpw7+Kud2223ntt566/xuIexAwoudpSCemfjxDTbYwF144YUmAvmrlmeccUY+1niVVVbJe24R6WlRy5/i5x6EVxDyAuxosvDCC9vPCNXddtvNhDl/PZKdYXr37u06derkNtxww3w8+fSCF1SjcH7ppZdsD3LK2LNnTwtlqW08NUI7vmSKaI5PCohTj8eBnU7iLjWI/7j/eLNmzarEj0f4y6Exv4QbUbfYjrAYhD+7y7BPOecVg/tQB9tuu63ZmcXDjz/+aN+xmKC+hRBCCCFEDfEpxowZY3+tkcPFPuw7fdppp9lfqowU2oc8CHK/1FJLVbk2/WF/7scffzxJIQf7WgdhN8W5l156qX3PPQ855BA/11xzTXFO+sMe5ePGjbNroFD+Iu+9917+L3eyzzf7sKcJi4n8tUHs+l9++cWO81c7l1tuufx36Q82CguN/M+F9m4vBn+hc5lllqmSHvkaNmxYckaOsDjybdq0qXJeENz+/PPPT86oCvun77333tXabvXVV0+uqLoP+dxzz+0bN248xfl8qLM99tgjv0e7EEIIIYQonyoecryud9xxh2vdunWVeO4IIQl8jxc4/dIiLzQSbkK4BLHmXMsuLZdffnnBuGI8uIQ+pLfmAzzL7du3r3JvPOd4o4F7BnHurr766qJxzhzHi5uOdy+UvwheZmLA8fCS1/SuIYDXnicCXM9fBo1hNew6069fvyq7zwDnExu/++6727k8AcjuU14K4sjZwjF6vykzTyyyIUKU5fjjj7dYecrDvdiFhW0lC4F3nV1geHGTuikEeT3ggAOS33LvCcQyEy5z5513Wt6wVYSf+Sul119/fRUPvhBCCCGEKI86qPLk5zyEJrB7CFvp8dIl4pAYZMIhoiAtF7Y2ZFs+/qQ9NGzY0F7s5CXFQhA3TggILzMi9hCixESnRSAQPkN4DaErxKGzAwzikTwioGcU7I9O2AchOoh5XraML5/OrMQ6GTduXN521Evz5s2rFdW0DdoFfwSIhQC7vcSXTYUQQgghRM0pKMiFEEIIIYQQM4a8IOfFyfjypBBTA9tO4m0XQgghhBDVkxfkZ555pv3JdyGmFvZo144rQgghhBDlkRfkX375pX2EmFp4cTb9V12FEEIIIURxFEMuhBBCCCFEBam6dYkQQgghhBBihiJBLoQQQgghRAWRIBdCCCGEEKKCSJALIYQQQghRQSTIhRBCCCGEqCAS5EIIIYQQQlQQCXIhhBBCCCEqiAS5EEIIIYQQFUSCXAghhBBCiAoiQS6EEEIIIUQFkSAXQgghhBCigkiQCyGEEEIIUUEkyIUQQgghhKggEuRCCCGEEEJUEAlyIYQQQgghKogEuRBCCCGEEBVEglwIIYQQQogKIkEuhBBCCCFEBZEgF0IIIYQQooJIkAshhBBCCFFBJMiFEEIIIYSoIHV8IPl5xjNpknMjR4Zc1HGuWTPn5psv+UJUgSr65JPcp2lT55ZdNvlCCCGEEELM6lT1kCP8vv9+svjjM368cz/+mPtuWjJqlHNrrOHcBhvkPk8/7dxnnzl38snOXX65c3/+mZw4DdhlF+eWWMK5u+5KDsxifPSRcxtu6NwOOzg3dGhysAS//urcxRfnbPnhh8lBIYQQQggxM1JVkCOC99/fufXWy31atsz936KFc927O/fHH8mJ0wBE98cfO7fCCs4deaRzSy/t3COPOHfJJc6dcYZzn36anDgNYFHBQuPbb5MDsxjY5Ouvc3Ww227JwRK8/bZzJ53k3EUXOXfbbdN+MSWEEEIIIaYZVQX5v/869/nnzk2c6NxCCznXqpVzDRrkPNeIwsMOc+7335OTpwKE/2uv5X4+6CDnrrwyJ/rxlHfq5NwBBzi33HK57//rIMR//jknsI85JtRYGWH/jRo5d+CBzu2xh3PbbpsLCRJCCCGEEDMlxdXdVls599BDzg0b5lyXLjmxfuutzr33Xu57vK5//eXciy86d8stzj3/fE5oR28s///zj3N//527Fo/3nXfmxCWx43xgwQVz53B+8+Y5j+6llzo3//y57zlOCMYDDzjXv38ujIb04n2ycBxv+O23O/fss7m0C8F55P+555y7+WbnXnml+LnA+enyRPiZY3wX4dyvvnJu8OBcmSdMmJzfQmnwHcf4xPPiMQQ5dcGC5bffqn4f0+LneD/uVa+ec9dd59yAAbmnHBHOo8wvvOBcv37OPfVU1TqDbLpCCCGEEGL6wkudeX77zfuWLZFh3h90UHIwcPPNuWN8nnjC+3//9f6BB7xv2nTycT6NG3s/ZEju+0mTvN94Y+8XW8z77t29X2ih3DnHHef9Ekt4X6dO7ve55vJ+0UW9HzHC+6ee8r5uXe/XXNP7n3/O3fvyy3Pfx3tw/llnef/PP7nvs/Tq5f0CC+TOnWMO79dbz/tllsnd79prk5MCgwd736DB5HT5cN+XX05OyPD9996vvrr3Cy7o/R13JAcDl16aO7brrrnff//d+0MO8X7eeSenS34efDD3/aGH5n4//vjc70C5sc/yy3v/2We5Y/37e9+o0WQ78eE+RxyRq6c///S+UyfvF1nE+/PO875+/dw5p5zi/bhxubQWXtj7++/PpffXX95feWXueEyPD3VxwQXe//137ryPP/a+YcNcPQwYkDsmhBBCCCGmG9XHP+DJHTs29/Occzq3+OK5WOzjj88d33FH5665xrnNNsu9fHjKKTkvOHLvhx9yH14wXHJJ59q0cW611Zxr1y7nGQd2Ddlyy9xLl4TD/PJL7hq8tMR+9+qVe6n0kEOc69PHuZ12Kh6C8e67ubhpPMmEbWy0kXNjxuS8x2kIyznhhFz6nTs7d/XVOQ/0O+/kwmW4fxbyw3G89aQfIb/8/tNPud956fKGG3I/Ewt/xRXOtW6dux6wDefzfySWm3LiwQaePMw9t3PHHpsrNy+m8lQBbz5livblvqefnrPJJps417BhLo3vvsvdg3ThiSdyaWELwoLwkLdvnwtP4nq+J03KF2Puv/gid60QQgghhJhuFBfkhEqw8wnhI4Q/AAIXQY1444VMfiaM5fDDnRs0yLlllskdJ6wkDSKR0BBCSLp2de6mmybHiBNDzu4nCOgsUQAjNhHtiHJCUYinLiTKEauI2rp1nRsyxLlnnnHu8cdzIRxp+vbNiXIWA4jxI47IhZZwHYuKqXmh9Msvc4uYeebJiehu3XIvq26/fXJCmZx7rnMvvZSL3afcN96Ysy9im3ukYXFz77258mLfQlA+FgUsnAhl4eVd0lx++VyafE++V1nFuUcfzYW/UDdCCCGEEGK6UlyQP/igc5tvnhO/eGH5mVhxYruHD8+JO7yriHFizHnhEG8sMcnEMachBhoBjoedT7kg5PEu47nlHh065IQ2YjwryLkvu4sACwUEPvfixdSVVsodB857+eXczwh+dngh7VNPzX1H7DSivrbwFIB8451G/OJx535zzZWcUCaI7BEjcsIcYUw+oxeePKahjGuvnXvhs5h9P/gg9z/2nHfe3M9LLZV7MgC8uEu6eOWpa14IZYEihBBCCCGmK8UF+TrrONejh3O9ezv3/vvOPflkTmhCDOn45pvcy5b33ZcTygg6ti/E65oGkVfIo10diFI8tVtvnfPiskjYeWfnzjyz6kuRgGiPoSRcV2w3Eq7D6w48Bbj//lz+SZs08KZThlJwXjFYCOARZ1GAnXgasOmmzt1zT9XrSqXBd4S7UO6ePXNPIchnzHcWvPHV7b5CuAt1EF+WBX5feOHczzGkRgghhBBCzFCKqzj2Hz/vPOeOPtq5lVdODiZEYc45xJMjFOMHTyuhINMKBDIC9/XXndt775zwJDwjxkZH8EDH0BTCZuL3eJXTHm8WB1Fwk3+8+en8Ez9dKP+I1+h9jvHfiFjCW7LietVVnXvzzVwICd5rziOuHA98FM7EaEeysdrkmYUIZSK8hnN5GsEWlLWFGH3ySfx5BJFO3D3Urz+5fBxP508IIYQQQkw3qnGrFoGXMvG08hIkWyMS08zLgnjSiS+PLyZOLYjH007L/U94xRZb5ERj1jsOHMejjOAlhp2XFtmykb9uOXp0clKA83gRlf/5s/3ES+MppwyUB08/wjkLXndeTAXEMtsk8jIkYTxpHn449yInMepNmji3/vq541G0Uw7ATnffnfPOU8Y0/AEmXvRkEcB+8Ah0Yud5IlFbWHwA5eOFUcrMU4G33srZYrvtcv+zIMHLTz6JKxdCCCGEENOV2glyvL68ZIlHea+9cnHIfBCfRx01bf54EBDywUuN/MEg0j/00JzYJyZ9gQWSk1KwYwqx1ITO8GfjieFmf/Ssh3/33XNx0niCiR9fd91c+twnxsJnIe6av5KJSOZlS2KxL7ggJ3TT8eHjxuV2oMEWfHfttblFAtcSWhIXDXjtyceuu+aE/qKLJgkE+J2QIcpK/Dh5O/jg3PW1heuJ40fUkwfS5AVQFjfYgJ1XKBu7s3AONkx704UQQgghxHRhzjMDyc85QYZAQ8DiRW7cOPkiA2EfeFTZAhFxOd98OY8qAhQBiSjG20p6pMUOI/zP7xDvw44efBd3XOE4n7Ztcx92FSG8BIGPIOZ8XiLlT8hzzywIVoQyISXERvOHhgi74WVQXlDkr1ZyLwQ0oh7vMz+TNvfhWl6e5LoYWpJmrbVy5/MdL4qyjSB5oayIf0Q03mXyhpjGq84x4sERvfE6ysFigHtiZ3ayWWSRnP14CsDTBxYHMcSFUBVeOmXLR0JLttkmF4LCfYnXpy7IW7Qvx/HIs9Bga0NCeSh/x4659PiwoOEa/voqaccFDnbjXPKNYNeLnUIIIYQQ05U6bEae/CyEEEIIIYSYwUwW5OziwY4pQqS57DJ5yYUQQgghpiOTBTl/JIYXIYVIw4uf2T+sJIQQQgghphkKWRFCCCGEEKKCzJH8L4QQQgghhKgAEuRCCCGEEEJUEAlyIYQQQgghKogEuRBCCCGEEBVEglwIIYQQQogKIkEuhBBCCCFEBZEgF0IIIYQQooJIkAshhBBCCFFBJMiFEEIIIYSoIBLkQgghhBBCVBAJciGEEEIIISqIBLkQQgghhBAVRIJcCCGEEEKICiJBLoQQQgghRAWRIBdCCCGEEKKCSJALIYQQQghRQSTIhRBCCCGEqCAS5GKq8N67n376yf3777/JESGEEEIIURMkyEWt+eWXX9xee+3lWrZs6T7//PPkqBBCCCGEqAkS5KJW/Pnnn+744493I0eOdPfff79bfvnlk2+EEEIIIURNmGkF+bfffutuueUW98UXXyRHRGTSpElu4MCBbtSoUcmRGc9HH33kFlhgAXffffe51VZbzdWpUyf5ZtbjiSeecEOGDEl+EzMTn376qevfv3/y26zNN9984/r16+e+/PLL5IgQQgiRo6AgJy7477//dgMGDHC9evVyv/32W/JN7XjjjTfc0UcfbZ7Uchk7dqw79NBD3WuvvZYcqT1PPfWUW2ihhdygQYOSI+XxwgsvuMUXX9zdfffdyZHSEEf9119/mf2mJ99//7076qijTAxXinHjxlkb+frrr5MjsybU1UUXXeTOOOOM5MjUcfjhh7sVVljBjR8/PjlSPX/88YfbaaedXIsWLezJQ3XE/vnPP/8kR6YNxdrvxRdf7BZddFH31ltvJUdmHC+++KLZdHbg/fffd4cccoh79913kyNCCCFEjoKC/PXXX3dbbrml69q1q7v++uvdr7/+mnxTc5jkzz77bHfNNde4Hj16TLW4rw1zzDGHW2mlldw888yTHCmfBg0auLnmmiv5rTSPPvqoxVOzmJidQQj27NnTXXvtte6kk05yv//+e/KNWGSRRUyQ1+SJAQJ4scUWc8sss0xZL8di7w4dOljI0LSEhecGG2xgi600888/v/Uf+pEQQgghpj1VZliEAV7Xrbfe2gTF2muvnXxTez744APzNCPcPvvsMwsPKAT3ZreOCRMmmPevFIiWiRMn2vkRrv/555/teNZzuNlmm7l33nnH7brrrsmRqnAdITLZ+7Zp08a8+3gv0/AyI4+fswsVPNdjxoyxkJJicG02jyxSSI/rCwkyysY52AZvainwsFIW7lHKjqTJOeSHn2sCCzbKeeKJJ7o333zTvfLKK8k3U0LaP/zwg33S9+FnykuZ8MoWgrLwPeUpdk4W7MM13333XVEPMmmRJu2nurLH9NJ2J12up91kueCCC8yru9xyyyVHJkN9FLrvfPPNZ+FZDz/8sP0coS1QDq5J1yX3//DDD6cQzmlIv1D9kmeeahQqO+eTbraNHXnkkeYdX2uttZIj5RHbIvYrx/MPlJm2ku0jWWrTNkiPdPkU6hvYgz5NXyzWL2Jf5fssnI9di31fjNges/UshBDiP0SYRPKEydD37dvX33777T6ISh8ErF9hhRV8mGCSM2pGmAB9z549fcOGDX0QAT5M6H7zzTe3tNOEydWfeeaZvlGjRn755Ze3+z7++ON+3nnn9Q8++KCd8+677/ptttnGjxw50gdx71dccUXfpEkTf8011/gwifm77rrLr7LKKpbfjh07+jDp2nXw3nvv+S233NKHhYH9/vvvv/u9997bP/PMM/6qq67yjRs3tvvuvvvuPkzIdg588sknvkOHDj6Icvs9TJy+T58+ftVVV/XLLrus3Q97Uc5jjz3WN23a1M8xxxx+nXXW8UHM+wEDBphN+/Xr5w855BAfhKsPixyzx9ChQ30QpP7444+364KAszJ16dLFh0nd7hd54IEH/Oqrr27ntGjRwj/00EO+bt26/pxzzknOyPHoo4/avSkLdthqq63MXpEgJvz+++/vg/jz3bt3t/u1bdvWBwFk9t1uu+0s7VJg63322ce3atXKf/nll5YnysbxNJdeeqk/5ZRTrF4oLzYbO3asfffVV1/5zp07+wYNGlheKdPzzz9v3wHt44orrjBb8T2fLbbYwn/66afJGVMSRKQ/77zz8nai/GFhOcU148ePt+OkSb6uvvpqS5t7Ra677jp/8MEH+xEjRlg9cm67du18EMBWNwcccIClT/1jS+o/QvvYbbfdfBDS9nsQ2b5r164+iC1rl/G+tJsI1/fq1csffvjhyRFv/WWXXXax+3BNWFRaewwLIft5/vnn90sssYTlj98pZ6n65do999zT+hhtl/+pH/oen8MOO8yvvPLKfs4557T6IF36FgwZMsTaBrZ7+eWXrR9imzRByPsddtjBP/vss9ZPbr75ZkuHvPPZeOON/dtvv52cXRjaEH2bdkG56aM33nijX3DBBZMzatc24KOPPrK+TLp8sAvjQpp77rnHr7nmmtZ+sA/3iZA3yhS/x1aMWdgOGDfCwsXqFvsyNp1xxhlWJ5HnnnvO7Pvkk08mR7y1A8bFWJYNN9zQh0Vu8m2OUaNGWR2k25kQQojZiyoecrziBx10kAvCtIqnrrbwaP2xxx6zx+DEYuN5f/XVV10QB8kZOY8Y4Sx4Ftdbbz2LNccrGCbjKp4vvGF414O4cS+99JJ57cLE6k444QSLMSUGOAgOC7UJAtaFyTS5Mvcy1dNPP533KIbJ1YXJ0QVB62699VYXRLDbeeedXRCjFreO9w3wWIXJM39dEI3uuOOOc2FR4a688kq377772jmUIYgf84ryWD9M1vai45JLLmleM2JG7733XhcEloW0BEFn34UFgQsCx+xNXoJgsycUQSiZN49rKTO2wH6UOQhOF8RiFQ8c97/ttttcEIKW7hFHHGF5w4tNuT7++GM7j3IPGzbMYoKxEfnAXoTkBHHi/ve//9nTjFLwQhrnUZfkifJgy6xHkCcLd955p4Ur7bHHHlZGXgLFA0l5gqBzJ598srvwwgvd0ksvbXVAfoGnKv3793dBBLsgelwQi/YCa6dOnao8FUlDfC71F0Sh3ZPy46kmrINyQ1gIuCAsLa2wqLB80U5ok2n4nvoijSDA3IEHHmj2IW3siQ2oC+KqieVPv1zLkxjqNT4loUxhUem23357axvUDeXl6UK8L/VHO4i2p95PO+00sxFhXtgoiH9rx2GR6sICzsKvCI+hnfHh91L1S/vgiQRt59xzz3Xrr7++u+yyy1wQodbvg5B09evXd0EwurBAtTQJoQG85vQDPNfknfc6brrpprwHm/yGRbz1j6WWWsrKTH9u3bq1O/30011YrNq2mLR/ylAI+jpP0cICyeqdfki7JTQqTW3aBvVOvfGCOGWnr5F3+lvs27QV2gRjFXahnvCGRwYPHmx5wk6Uh/aP7X788UcbrygbNmjfvr21ubAwdueff76NS7H9ZSE/QeTbeMJ53BNb06biNYyh3JexjRephRBCzKaEybQoU+shDxOlD6LBPE/w1FNPmQc57R3Ey4qnD29umITsGF6wIGB4Xpz3kONd4ne8c3i4AU9SEBu+Xr16eW8XHqlmzZqZpzgSPVNhUrXfg3g07yFlw+sZobykFcSD/R4Ek3nnYh7w+lIevG2FwCMeRKd/6623kiM57ydecPIeJlrzmJcCLyoeOLzneN923HFHyyseViA9POOkFz3kP//8s3nZ8FqnPfw8EQhCzYdFhP2OdxdvPN51POJpsElYDJhnthT333+/n3vuuX0QfvZ7EEf2JIOnDWnw9JPH3r17J0dyT2DCAsgvtNBCPoi65Kj3QdSYVzQI3+TIlARRanVYnZc1TRA4Vp+xTDypII077rjDfoewuPNh8VnFQ46nk3Y1aNCg5Ig3byflwTtOHUBYLFl7DotO+x24Nt2G8LJyXVg4mucYgtC0OqA9AMepZ9otUJ88USjWXvieesSDnqZU/WbhXJ4Mcd/Itdde68Miw48ePTo5koMy0I7CYsP6Hk+5eBJBGkB/3WSTTXwQs1U8wmloB9iZPlUIPOyLLbaYPTmJ0Afwsqc95IUo1TawXxDGlnZYtCVHcx5zxh2eqgBPSmiXhexGn1pjjTV88+bNrZ9EaAekj+ec9jJw4MDkm9x3e+21l40HjINQyEOehScl1EEcl0gnLP7NLum+LYQQYvZiur2lFdJ2N954o3nUiOGGMLm6Jk2a2G4n0fvNC5B47nhJLUxWdgzvPJ5BvIFp+B4vVjyORzqID/M+BgFjx3gBLYgrS7M68HiSRoQ0iJ+N3s0seCb5Hg8s27HVBDyHeAALvexHXC8eZTykfM89sA/eMbyNxO4uvPDCdi5e1v32289eAozgsSU+H28o5Y/wxAGPOh7tNG3btjUvaJogeixWnnwWgzrFC0iaQTzasbBAsjq+6qqrpvAEchyvfYTv8SrixcezOHToUPsQh049pj3NgB04hl04P4ifkvH5gM3YGz3akqcdHAPioCkn7TCChx9PbhbyE0Rm8puzdosXGk8+dQA8FaEtBtFkvxeDuuLJD55q4Dpsg+e2ENQh9sUriyc69pVyKVS/EZ7oEPPPewBhYVXUq1wMbEBfpf3H+qIcPEGgH6b7LPnGo43XnvvSfoqVBW84Huk4VgB2O+aYY5LfqlJu2+A8nnYsv/zy1k9imyNfPLGJXufYt/G6UxbyGgkLFMsf/Y72E6Ed0MbwrrOL04Ybbph8k/uOp3m0eZ7olYJzuCd2or3ye/TOkw4ec7Y5Jb9CCCFmT6abIGeSRngjDJgAeYT+7LPPuubNm9sEhQAFHvcyqSFQ0kRxniUtaBE4iIookCJMmtWJJIgTaoS0mIiZ3AvBY3KEFbupIN67detm29ulJ+9ikHZ6MgcWDYTcsJPLVlttZWEdhPiQHh/KQChIvXr1qtgjm29siOhE6KWPI44IO+AltjSIh/R55YJ4QdwjFtlKkjpFjCBWyTeP29OwsEovEBBjPKYnfAFhy2P4+CEkKbYBhBVhTIT+bLzxxmaX6667rqSdKT9hEtgAUcc1bNsJ8TrsgKhJ1wN2yLafSNpGCFFIH4ttr7r6z96Dn7m2WBulrgmrQCQixvj/jjvuMMFYDoXqlzAxXmom5IKwis6dO1t9VZf3LKS74447mh2xL32Fl1GpW9KnbIhK+j7tolWrVrYoIxSlFITDYI/sgjA7DtS0bdAuGItY+PNXZWN7I5yHvBN2BZtuuqmFsyCK1113Xbf//vvn2zPthjLRTwtB28Xm2f5Ne6bd8BJtISgvTgtC71gUEnbDwhZqWi9CCCFmbaabIEeEEy/KBIenKH4QdAgLvH9MiEy4TD7lio1KgrhE9BH7i2Ai/hOPffTA1hTi0Hv37m0xwngsic0lrjkN9iH9UhM05yCE0jGvgH3xviMWphbuz7Z4CCf+iE66TvG4cm/ijEuBmEOgNGrUyMqa/mBT4vnhkUcesVh9BBQLN74766yzqojaLHju8W6yYMKWXEMaabATwrGcxVqlQczSV+hHLGqJZ+ePytQGyouwp37uuuuuvH3WWGON5IyagYDkyQjtAc8x+cIrT56BfNMueAIV78XfMygFdUP7qG4cqGnb4DhtDkdAoTZH7DawuGdxTFu+9NJLzU4sGuN35C3bvyJ8X6hdsXjA2827BoXg/RAW9QjxmKfzzjsv+VYIIcR/iVoJcoQeXh+8RsXAa8ZLYrxshwc3fvCQ8mgXDysv+PEomck4vXUeExueVyazmQ0mePKMKOAFWF7YjBM15UC4Fnssn4WX//D04bFD5ODNTgsLhAThHXj3oq1Jn5CM9OP5ZZdd1iZ9njyk741XlGvxJFYHNueRfrE6ZVFAnfLSG3WYrlMet5MHXqostXDAYx/Dibgf5U1/eEkRaAvYgZcp8UrSjtKhEIXgxUk8krxsGa/JijT20qbNEd4TwXsaX+ybmUAA4oUm7AhxSN558TNC2Ur1vzTUETblxUaENGFaSyyxRPLtZGi/9O3q2i/35iVG0sXDS/0jKrkeEOGIVF4gZfFFXVT3kjjncM3bb7+dHMmFm/Bia5qatg281jzRoZ7JX7bNpb3apEt6vCjKgjuG5PDUhZAxxqy06CbchzGKBRNhMyxOIvQDzueehEUVgv7C/XnxNdqJJydZqOdiL8MKIYSYPaiiWJhECJEgZpIP4oUJh1AFHt/GyYhJkkffp556qv2eBS8qkxGPgbOPoJmYiXVGKDLhsXsE3itiZREcTMJ9+/a1eOv05Dcz0KdPHxMfTJAIYiZgJuo4iVJW7IUwRsBWJ2wQkIhgxALn4nkmVjSCrdgLHQHO7ivYhjhoHrenPYmIdiZ9Jni8oHyHWCD+lp/ZFaI68GoicPirlYUgzASxRNhOVlxRDnaKGD58eJUddLIgeNhJAtuwmEGYY8tYLmwLlAd7YF/+5zgeVsRiMVjQEFoQr2FBx24jaWiP3I+dVVhEYSNCE+LuLjMLhEHxngJPN8gv8df0qSiiEaD8zI4utB/sWco21Bfx2NQfZcbel1xyyRR/eZP2i11ov5xTqv2yUCDc4/LLL7cnR+k4fI5zLW2B/1m88zSoFIhaFgo8JWHBxP0Jc+GPT6WpadtAEPN0gDzgDad82BSb8fQutleedjGuxb7New3xvQ3Gui222MJCdPDQkzfGx2233dYWJcTO0+8ZD6krvqcf8sSGsY4QmELQZqljnBaUhbj27K4ywPs0PH3IhoQJIYSYfZjCQ058JjGrfIiVZsLHK8r2b8RKAt47REE2ZjLCo1gmPjxN0WsW4Vq8aUzibIvH/0yGeFiJ/cVTxOSNQEfoRe8XohcPWozlBdJCbGQFImmmj2WvRRjyczb/3IvzYp45h0/MA5MnQoT4cbaFY0Jn0o0hIWx1hjeObc+YxNk+DbiedMhvGra+Q7zgwSZdhCLigXyRB/LZvXt322KNF8rwkiKI8c7jaaacQPkIfSFsgPhe7s25PNLHluQVuD/5wDbZvJBG/K4QCBHyRJxw9lqOI7RZ0PHSJpAO+aMMaXghlDwRLoAdsRdijBj6KI6ICyb2mCcHLDQI48Ejil2on0IQbkA5EU5cQx0QE8yTg3jNRhttZFvRsXDB68kCBPtjz2hLiHWezntsQ+n7U+7sedlrsQO/xzYV4Vh8SQ97cn+OAf/zNIJ6JKwEQUf/iy84khfKh/jje57YIBCL1S/CEo8vi2DaDekhAgn7SPcBXmKlr7PNHrZh+00gTT7psuNdxuPOojl63SP0bxZohHPxAi12J249m0Ya6oE/jsT31CP35/cbbrihSshHbdoGi1oWOMThI2xpc4wzpMX4Bgh0Fmw4CLg/L4LiuY5gP8pC2Wiv/Ewbou9jM8YwbEq6fM+Lr7RpxoBY97ENxd+xM/dkK07SI9ae7S5ZbHEu0KdYaPJ7sb4phBBi1qdOGPBnireHEPCEcOBpQpjH8IWZCUzF7hJ40phYmUwREmnwQLLnOeciSqorB08h8KaRHmI7LQwjeM/w+LIgQlwghgqBOMILitcQjyhCf1rEj08PqG/ioxEbPKpnX+x0XikLLwHjRUdkp3eVKQaeTa5BXBWzPfWCp5F4XcQZAjW7aJgZwFOLp5pwGhZX2CeKNKAc1DOeXBbPLAarKwfik11JaD+EjRUSsDwhoz0i6LF7dtFaLtQf9yLUgrrI9pNi8CSAcYB+wAKzUH+oTdsAvNnslU6fQ/AjgtMiF/uwyKbs9O1sWA9e+PgUiGtZUKah75M+4Su0Kxaf1UE90w8oN+Ne9p4suljQsPhgL3khhBCzJzONIBdCCFEV3h/gvQj++FZ2ASCEEGL2YeZzDQohhDDwkPPirMS4EELM3shDLoQQQgghRAWRh1wIIYQQQogKIkEuhBBCCCFEBZEgF0IIIYQQooJIkAshhBBCCFFBJMiFEEIIIYSoIBLkQgghhBBCVBAJciGEEEIIISqIBLkQQgghhBAVRIJcCCGEEEKICiJBLoQQQgghRAWRIBdCCCGEEKKCSJALIYQQQghRQSTIhRBCCCGEqCAS5EIIIYQQQlQQCXIhhBBCCCEqiAS5EEIIIYQQFUSCXAghhBBCiAoiQS6EEEIIIUQFkSAXQgghhBCigkiQCyGEEEIIUUEkyIUQQgghhKggEuSzEe+88457//33k9+EmJI333zTffTRR8lv/13+/PNP98orr7ivv/46OSKEEEJUjjo+kPxs/PXXX27QoEHutttus8lq9dVXd2eccYb9Xxt+//13d8MNN7h77rnH/fjjj65Zs2bu2GOPdWuvvXZyxn+DDz/80N1xxx3u77//dnPMMYdbZpll3GabbeYaNWrk6tSpk5xVe/7991/Xpk0bt8ACC7gnn3wyOSrEZGgja665pltvvfVc//79k6P/TT777DOzw6mnnuq6deuWHBVCCCEqQxUP+R9//OH22GMPm6SWXHJJt8oqq7hHH33Ubbrppu65555zGe1eLaNGjXIbbbSRCfq6deuaCP/0008tvauuusoEwn+Fu+++25122mlu8ODB7q677jKbII4QA99//31y1tSB2GdBJWYP3nrrLVu0vffee8mRqeeff/5RGwkwlmELPtOKMWPG2Nj2wgsvJEdmHD/88IPbYYcd3MUXX5wcEUIIMStRRZDjqW3fvr0JAIQjIpL/8WxfffXVJvjKBZG5yy67uI8//tg8tvfdd5+7+eab3TPPPONuv/1299NPPyVn5mCCjIKyOqHOJMq56QUCP5dzbTnEvKTTisey9y0X0sK+eMkRWuPGjXMHH3yw2fXWW29NzppMFE78X+x+pBnPKUVN88458f7F7Fnd95GpsVkhYpnT943lK2WrLDGdYnmLaXJOsTTjOaXKF+9TKm8cL5SXb7/91o0YMcJ99913yZHJcF6sg3Luz//FzoHq7BHhO86pztbxvHjv6UF1tq1tHqJdi11T7L6Mk9TXV199lRyZknhtOu1y88l53LNQHeFMee2112xRUIj0PbLXCiGEqDxVBPk888zjunbt6hZeeOHkiHMtW7Z0iy++uHlgSk0WWRDghGn06tXLtWjRIjmaE/3bbLONeeEJ3YAPPvjAxCneQD4HHXSQe/vtt+27yLXXXmuLg+eff97tuuuudh5eZmJBv/zyS3fEEUe4tm3bus6dO1fxKBIyc/rpp08RxvHYY4+5k08+Oe+dfvHFFy2vlPOEE06w9Dt16uTeeOMNm8iuv/56t9VWW9knK6AnTJjgTjnlFPfss88mR6pnzjnntDxjaybxyG+//eauueYa83ZtsskmbvvttzfRTjnTjB492u23336Wz5122smeYBQC2x5wwAHmudt8883NS19I4EUoK+XbbrvtzJ4dO3as4vH79ddf3aWXXuq23XZb+54nKkOHDs1P8ggGbHXTTTe5xx9/3NLp0KGD++KLL+z7NAiXk046yRYoaR544AGrMyDdIUOGuAsvvNDq+aijjrKy7LvvvlY22uQVV1zh2rVrZ3liwVOdqOF+0SZbbrml3Yt6j/z888/unHPOse+wL/caO3asfUe75Hzazfnnn282pU1cfvnlJnbSUCe777673Yc2T71m65F0Dz/8cLvPFlts4U488URrT9QB5eJ8vJ6HHnqohZlQNr7n3rGNbL311q53795m+zS0q3j/Pffc094xKARPwWjr1Cdlpk6wdWTSpEnu3HPPdQ899JA93eGc/fff3/pWIQgHISyN8nBv8vD0008n3+baSN++fa18aagD+iR9rhiMAbStkSNHur333tvS32233dxLL72UnJGDvkj/oH4o1z777ONef/31kmKUto/TINqVtk/bS9uVGHzGGNKkTi+77DKrI9rsBRdcYD9TNurrkksusTZBHWMP8nzIIYdYXffr18/qcvjw4TbeYSvSpCzDhg1L7pZblNEmiHe/8847rT/R1hlvolODcmE3FgT0Ve7do0cP66tAfz/zzDOtnWIv7Jbtc0IIISpLtS91Msgz8RLCgogsF0Qa8cxMHqVgomndurV76qmnXMOGDd1KK61kQo7r0pMGMehMfkxeCHmELBMeEx1igvCYxo0bWzo777yzTWTApHTjjTeaZz4Nwr5Pnz55IUY+EEykxeROXhBULBTOO+88EzwrrLCCiSFEYVqkMiFedNFFdp+aLFrmnXfeKjZl8kbsHX/88ebxWmeddSz/CKTu3bvnxRyx/eQTIbXiiiuaYEAkpL1jCA8EK4Ke/O24444WY46YYdFVTEzde++9Vuall17a7kEesQ2QPxZSiDPCmRBaiGpE+bvvvmvnkBcWY4hIhCz1xCcrFgHRh82ziy/q8LrrrrOfKQf1QIgTooX7NGnSxD388MMmuMgr4qZp06buk08+cUceeaSVuxgsElnA0F5Y2K277rrWDo455pi8fVlwUJ/YH7th71g+/icvHB8wYIDZgUUUAinWP3kmf9wH0YQdaZvYDmEUbfHNN9/YU6T777/fvq9Xr561c+qLJyg8XSI9XsLERuPHj7e0KS+CfamlljJxzCIXQcZCKApORDH1QlvGXtyLc9MLI9IeOHCg1SP3IoSKusL2iDbKBbSVW265xeqdReSyyy7r5ptvvoJtnX6HkCVd2hD2QcRyjEUx+UP4snDiXZU0LHJYeJcS5I888oj1xdj2sBvtk8VYHC/ooyxysEGrVq3cBhtsYG2K9pJ9MhchT4wvxx13nNl1r732svaODf/3v//ZOdiDvsOCnzGGEDzy88svv1hbRnhTPuqO+qKt8TvtknJhO/LKeyP0b6DeeBGbeHbySX1xj+go4H/qFScB4wJ5w3FC/2L8A8Yw8kQZEN/cmzRpZ7RpFgG08fXXX98WxyzMsF960SWEEKLChAmjJGeddZafa665/ODBg32YgJOj1bPJJpv4IGB9EALJkcIEseKXWGIJHyYJS59PELs+TDr+wAMPTM7yPgh0P//88/uHHnrIh4nHh8nSb7fddpa3nj17+jBZ2rW9evXyQSz4ESNG2HVBIPhlllnGB8Fkv0f4fZFFFvFB7NjvV1xxBUrG77///j5M2j5MZv6GG27wQTD7VVdd1YfJ1dIPk7wPk6IPk6ZdBz///LMPYsyHSbCojYKo92Eh4YNoSI54f/PNN1v6F154of0eBIvlnfIEEWRpTZo0yQdx4eeee27/4osv5ssYFjs+CAXLJ7bg/tgCuwPHgqjyQbD4IMLsGNf27dvXL7TQQv61116zY1mCoPVB5PsgQu130g/iwX4Oixq7tn///lYHpEf9BsHnwwRv53Du1ltvbXm5+uqrLR+cxydLEJ5WjiBskyM5woLH2gRw/yBEzE5BzFo9cywsXHwQoj6IGCsf6Q8bNszsF4SKXZuFPNPegnj3QYzYNaRFecgH7Q5oa5tvvrnVAVCGIGzs59tvv93aycYbb+yDILQ0wqLVB0Hl69evb8fCIspvuOGGfrPNNrO2BKRx2GGHmW2DaLJj55xzjt03iMV8XoKYtPbEz9Qv34fFrV3PMQgizT7RpuST+wfxafahnGHh6uvWreuDGLbzaEexDQaRadfRlslzELN2T87jPmHRZv0vCEE7j/yuvPLKPizO/N13352v+3j/CMdpq4sttpgPwtLyyzm0kdVXX90HwW/5Jr/YuGXLlsmVOeiLtK+w4EiOTEmXLl3M/mHRZHVC+k888YTlLYhbO4d8UL+xzjiHtogtsQcEkewXX3xxSwfolwsuuKCNd9gAgtD1QXT7sBC031999VW/6KKLWj8A0qWu+Z/Pyy+/bGNUWGxUqS/yhz2po1hvfIB+FtsZx8JCztow/8Po0aN9WCSZ/cKiydKkPtZaay3fokULO4fr6APUJWMm98YGEBZ4dv3jjz+er4+wsPPLLbecP/bYY+0cIYQQlaekhxwvMN5CvIF4VvDElQue3SAiS3rV8VbhEeIxKh5O0ueDt4gwl2wYxhprrGGPe0kzCD77PUyALkzS9j/XhonKPEXRu1cTgpAwDyZeQrzwQXSZJxCPeNwNBS/58ssvb97KSBARFgIRy1CMYG/bcebss882jzbeXF56Jf9hojSvahAFlhaeadLi/nhR+RnPFmXDZuQDjxr5xBZ4o9nBJhImeRcEhHn68Y5yLV5hPGxhYjavZSFIl/MJDcA7R/p45MgfYT7kC688HjnSw3uMbdJhN4BnFC8reSPvpexSDnhbqQfqmTxRdtKmvoIQsfTDwsme5BDOUwjyiqeUtoUnl/zj8cYzTZvCXkD94m198MEHzY7ch7YcIQ94KMkT9w0LO3v3Ao8t3lDSJg/sTMTv2B6PJXabOHGieS0JA+FpBF5pnlyQDuUi/7QnfuYD/E8e4u+00yAMrY/hleXDNfQn2gceW54A4cFt3ry5pU07IvSBuopQh+SV9sX1nMd98OhjU8Iw0tAf8AxjK87lk4anabQRwtzwTJNfzsG+PN3AFthoagli0rzd1Anp0+exGyEhQP7YxYiy4AWmnLRhbFPMQx7EtHnEw8LD6oo6w9NN/cSnI9R3EPXuyiuvtDS5N79HWxSrrwhP96i7eD7QHykHduG+XMOHeklDKAtPD/mONGjDeMMhfW9+5t7YgPLSj8Pi1u5DOWjz9Gvsk+2zQgghKkfVGSMB4UgcLTuAMFEjyhEhNYHzeSzLpFAMJgYetyJcmEQiiD4mxjjhRLITXBThcXIDhAcgIGtKemIDJlsmNj5puAeiqjYQMoKY47E8cco8xicEgPwi8hF3fNIgaLAPdYI9EXXE9adtRr7T+SR/CCQEKAKJ0Aw+iC0EebH8IxoQuzwiR1STX86N+ePehD7E9PgQH5y1N+0mLWKnlmw9s3Dh93SZuR/Cq9hijPaEICNcIp1/Fpy01WgTwk9In3AFxB4LQ2wW4b7ZsrGQ4ThtGjFFHggTQDjF+/DOQ8wvghyxiMgizzUBIU4eEVWrrbaahdakF6+kTb+iXaWhjaTbNwsUysUCJA11h8Dl+zQIu2wfTEO+KH82PSAvtF3a8NQSBWeEfopI5d7A+MXiCjFNvbAwIYQFio0L1AX1j9BPtw3aSoRyEZtNmArtggUn/YH7lQM2zcIigv5GPlk80RZpO9l8pu1OO6PMxcoSoTzsasWHcJV0ubhvddcLIYSYcRScXZmceHkIQceLXA0aNEi+KR+EBqIgO6lnYaJBQKRhgsPLF8X11BBF3Mww+ZAXPJcIBzxsxL+nhR22QCBlJ3g8d+Qf4UYafEotdIBzSI8X/nhhFa96/OAZQ0wUgu0piU1/4okn7FriT4lzJT1EEIsDvkunxycbo18OpAnlCpqphfxzT8qezT8eUl6GA5504CEnnhuvNnYgPrwUeNIpB22W+2D7o48+eor78MIewjbWD9fVFGLR8dKyoEOIky4vBEZIm0+xRVck2j97Hm2NBQqirybE+9Jes1BOvksvPqZVvdNnuCcLeSCGmicWLAJ4KZP2T9x/Kagzric2P1tn6Ze1iQNnMU08Pf0AMV3bP7TEkygWyPRl2hptg/cvamr3YmBvyoVzI1smPrwkKoQQYuZgCkGOFzG+GMfLRHjf4sQdYSKN3tpisEsBQpsJMSuGmUAR63iM+CCG0l5NBCuPjAlBmFoQAHjUWBjEfJDvdMjJtIAFRNqLWgzykvZsRxBn8alAdoKnLsgzHjomWDyjPOLmnhG8siygIpQb2yKE8BSmvWN44vAAFwNRSRgRLw/iDccjSP54gQ7hw6P7dHp8CI2pKQgg0kWYRGgHvIw3PYjtjbaLDdL5x4tKqFKEkBBeymSLTsI3sEGEeiacIQpK2hUv62E3wikIDyAthG72PtQF9Y/oInyEMIV0vUVxCdgGsv2MxQ9pHXbYYfZCND+n65O0WTjxUmFaHH/++efmxY7QnlgQ0tfSYH/aF979mkCZaZssNtMiHztRTmxKvigXeaT9xvxhQ85J57cYjCvRGw68xEkbim2Qp0KUk51veNmTELjqnAp8Tx54OpWuLz68FBsh7zyV4CVr+gfe5xj6EcfJUuNiGq4jjIcdhPCM8ySLe8V6rwncm+vSYxBjAHmlT7GwzJYrPsmgfrBXbRaHQgghpg1VRn68YuxagUcIjyCCmF0Z+KQFLd5DJrn4ln8h2MGCGO+4Q0mcpJiE2dGCeFYEWbt27WxiIl43wvlMdF27dk2O1B6ECpMRsa3sJEEZedyffhQ9tWAPJjgm1trCZIrNAC8cIgMQ48RJIzaI4UXMsX0ZTzHYuYE6YXHDrhDp2GnEIVu+YVuecqThcXWxybd///75UCHEEcInxr0Sa8zkjWc/LSJpG6V2NikGHkwEHLt6IBYRcaRNLP30AM80duIJAHvsx/bM/ywKESXkga3vojDETnwIEYrQhmibtCnsgUAmPeKkeTLEuSxk8XYiTiOkSX3QF2j7Bx54oLVJdvdASHEfPK9xBx/SIX08p/wfoU3TPhCmHKfvpHf9IeQk7qZBWSgf4hxxip0j9E8WELzXENsO9U3YEvVNzH5NQJBjX9oX/Z7ycm/+6i8Lc3b2YDFHGybGnDzxHedQRsJFsG11IL55mkH4EdeSf9oj/QIQ1dQjiyagXnmiUAr6FteR79j3gPEqLlgQ+untG+kn3J/+AVzPgpmycLw6OB87x77DQpGnUelFU7kgvgnhox6jKCcvPOHCToSgpZ9Esuin7QGLL8qP/YUQQlSIMKHnCROM7YzC4exngQUWsB0kgF0fwuTru3fvbr8Xg51J2MFh7rnn9kF82U4B7FIQhIDt1hAmLT927FjbcSFMKLaTA/fnHHYACBNUkpL3YbK1nS1+++235Ij3Z599tu0kEXdKAXasIK3nnnsuOeL9wIEDbfeGevXq+SBsbXeHo48+2nZZYLcFCOLWdk+JO5IAuxGw2we7TqRp27at5SfC7hzYo1u3bvmdFbJcfPHFthNEmNyTI1OCPfr06WP54oO9sHsQ+7bDQyRMsL5z58628wjlId9BzPsgmP2WW26ZnOVtxw52P8Ee7MrQunVrsy+7xsS6zBKEppUFG7FDC+UfNGhQ8q03W3A/6rNNmzaWLnXALhYQBJVv376932ijjarUVTHY9SUICUuzQYMGtqNFWKzZLhCAPWlnfBfEoh2D559/3nbFiDteAO2FsqV358kyceJEsxN2DaLZdkPBJuy8EgSc7XhB3snPBhtsYPnADuxwA+yyQj0G8eKDuLTryD9pjRkzxs6Bt99+29Lhu7gDCu2Pth4El50TxJ7fc889821/+eWXt7yw+wwEAWW75tB/yAPlCmLedoWhjzRr1szaIvW64447+ubNm+f7DLZitxvaCLvgkFeuJ0/77ruvnUN7o5/QzigTtltyySVttw52AIqQFt+xw0l1UOfYJohu21GGclE+dvyh3UaCqDb7ch75o+y0obCgmWLXnTTkATvSTugjtIuw+PQHH3xwvuzUMWWnHWPvNddc03buoc3GnXTYYYZ0rrrqKvsd2NmkUaNG1uaxEzusBNHse/ToYd/fe++99h3jV4sWLSz9ffbZJ18u2g5tC5tT7k033dTsQRsljw888ICdF6GvsOMNbYQdeUiTcY8+zZgFjI9B8Pvzzz/ffo8cd9xx1iYitAt2Z8LWXE8ev/32W/uOa2kvHKdc1DflYAwGxkDqnDwIIYSoDHX4Jwju6QrebvYWx3MTXzBMP5bFm4SXGc8Sj7KJ/wyCKPl22oBXDY8lHkH+oAdeupkVPFl4tQmrifsoZx9jYzO8uuxZzTmEF8RH5lnwhhHviveR80gP71khaA7EyBLrHiZtC9vA45qGdPAy4+HksTeeeEJBagvtg5CQIBjMyzwj6oadSWiTgDebdhnj+fHs8pQIzyhhOniWY554ssIfxYn2wTtNqBFx5lmb0t6pH+J1g1CyHXUIWcnCffC+Un72jU+ng4eW3VgIO2CHEzzMQHvmOE8Y6C+FbEYbwXtPKAhPonjiVaiNxPKyAwcefsqLB39qIOyFNsL9eB8lhkek4YkA7RyvPO2McJbqIP4f29NGGTOwHTsv8WJ4umyUif3DaVvYh6dk5cB11AW2wNbYjSc5EZ4GkWfqg++y96Vv0CaoH/7AUHX3pY74mw3FylFT+ENDxMwTMkibjtCOeEqBN5w6Ju+EEAkhhJg5mCGCXIjZhbQgZ2EpZixRkCPGJSiFEELMLtT87SEhhBBCCCHENEOCXIgaQNjHPvvsY6EiYsZDSBN/SIuXloUQQojZBYWsCCGEEEIIUUHkIRdCCCGEEKKCSJALIYQQQghRQSTIhRBCCCGEqCAS5EIIIYQQQlQQCXIhhBBCCCEqiAS5EEIIIYQQFUSCXAghhBBCiAoiQS6EEEIIIUQFkSAXQgghhBCigkiQCyGEEEIIUUEkyIUQQgghhKggEuRCCCGEEEJUEAlyIYQQQgghKogEuRBCCCGEEBVEglwIIYQQQogKIkEuhBBCCCFEBZEgF0IIIYQQooJIkAshhBBCCFFBJMiFEEIIIYSoIBLkQgghhBBCVJCqgtx75/7807nffpvyw/EZzb//OjdkiHPnnefcuHHJwQpw+eXO1avn3Akn5H7HTs8+m8vX++/nfi/EH384t8suzi21lHN9+yYHp4Ldd3du6aWdu+++5IAQQgghhJjVqSrIEd0HHeRc8+bONWtW9XPSSclJM5DPPnNu332dO/VU5/r0SQ5WgLFjnfv2W+fGj8/9/s03OXFMvk4/3bl//skdz/LXX869955zEyY49+mnycGp4OOPc2l99VVyQAghhBBCzOpUFeR4pBGQCFDE5/ffT/78/HNy0gxkiSWc23JL51q2dG799ZODMwGLLOLcdtvl8tWuXbCiIn+EEEIIIUTtKK4kd97Zubffnvy59NLki1qAB/mVV5x79FHnfvklOZiCkA8WAA8+6NzLLzv399+54wsv7NzAgc4NHercjjvmjqV55x3n7r3Xueefz4WHFIP0Ofehh3Ie5ix8/8knufCYRx5xbuLE5IsizD+/czfemMvXoYdWFeQ//eTcY48599JLuQVOIbjfl1/m7kWZv/gi+SIDtsJm2K5YWsCTjeeec+6BB5z7/PPkYAZCfgh14bzff08OCiGEEEKISlNckCM6l1128mexxXLHr73WuUUXdW6bbSYLZ8IxGjTIebSfeip3jBAXfr/ssty5rVrlvMqch3CMIBQJ/2jc2LkOHZzbYAPnNtww9x2x65tu6twyyzg3aFDuGCBk11orF0rTsaNzm2ySS5d7IcwRr4SSLL64c1ddlYvj5twddnCuaVPn+vfPiWI+zzzj3EYbObfyyjnRv/32zq24onMnn1w8bp57tG+fyxdx5NyPRQfpNmni3Lbb5srAOT/+mFyU8OabOa//Sivl7kWZGzXKheb88ENyUuD6651bbrmczbAJ/xMqk+WGG3Jlx0477ZTL+557Ovfdd7nv+X+ffXL5wg6ct8YakxcBTzyRu0/btoUXS0IIIYQQYrpSXJAjthFo8RPFKaIRL/DXX+cELfAdYhHxF0NbOI/fjz/euRdeyIm+eebJHTvtNOcmTcpdf9ZZzt11l3MLLODciSc6t//+OW81IHKJl0bUkh7njxrlXOfOOY83ISMXXZQT1Nyfez38cO5a7kOoTbduOQHP/eedN3fsmGNynmSENEKftBCr556bWzzgQSZm/aOPcmll4TquJ1/R404axN+TD8qy/PI5bz+e8DQI4OHDndtsM+fOOce5Tp1y5SQfePqBWPEePXJ2Xmgh5+rXzy100nHo2AIvPGUhD3vtlXvplPNvvz23oCBdPOykzdOGM8907uijc4stFjswenROnH/wQemnDEIIIYQQYrpQXJATCrLqqpM/tQ1ZwWOLCEVk9+qVO4awRNASGoJgnGsu5665Jieu+/XLCc1CIITZrQQhjFeYEAxEPIJ73XVz5xCWkgaBSlm4/9VXO1enTk6UkwdCTRC+b73l3J135l7SJESGtBGsY8YkiZTBk0/mFiY8SYjlHTw4J87TdOni3Guv5RYOLEw4p0WLnHgmdh9uvjmXR55EPP10bmFw993O1a2b+x54YRR7kk887YTQYL8rrsiVi7AZ7IvYxm48GUCw9+7t3IgRzjVsmEuH0KQLLnDu4otzsfFCCCGEEGKGUlyQ44HNfmpD69bOtWnj3JxzOrfOOrljiEk85GwZyO4leK4JKYkQPlIIvPbEswPpEkoDCEk8zhBFbWSVVZzbfPPc/QmbwTsM3B9xjvjGM3zHHc6dfXbOa42Xn/LWxGMcxTvimhAT7rfVVrkFSRq2LZx77lzsOIL6lFMmh6JwP2zz6qu531dbzbk118w9WSC0hbCeCHnEKw8sUAjRIUyI7RgpF951nmywUKHMw4blFlZs4YjNY9w7NsSbvvfeuXwJIYQQQogZSnFBTjwy8c7xQ2jE1JJ++RHBi5CMceiIyOrA0xtDLYgPTxM90TG9QiCS4324P+nhNUeoE3fds2fudwRrTUHgA17tdDmz4NUn1IbYdzzkxL3HEB0gTzGWmzAT8lwIhHtcMBAShOebDx537k+YC08HiA2/9dZcvDsvzh53XC6GPW7hKIQQQgghKkpx5YjXmj+GEz9R8EaBiACNceXEaxNyUVOWXDLnlUVcpmOti4lq7o3gBWKf43mIa+KuAQ90ufz6a+7lSf7Hw0wsNqEiq6+enFADYr4IL4ninHSjuI4Qm048/AEH5MJJsCECOUIZ42KDF17jAiSbFvWz4IK5n1ksIc5JK354+sAfJCIcaNddc970+KIotrvuuty1cWGknVeEEEIIISpCCVduEaJYJDTknntyohJBiKiuKYRQIKARkJdckntRlNjy3XZLTsiAuIxhL7wA+cYbOSGK2Iwvc/KCZ7kg6An9QAQTZoJHGSFLPmpKFPHEoxPPzSKF+PasJxrvO156QnSICWchgUCOUEZ2QoEPP8zFxGNjbMIe8RG859EWxL+TDrZgMcDCgpdfEdvYhZh1FlQ8BVh77dw1LDyAXWbwprMrTHbxIIQQQgghpjs1F+QIXsQgHnF2RGHLPsQg/9cUvMqkAbyEyFaAfNgPvBCEYhxxRG7bPjy6vMxIfogfRwAjKnlpslyIrSZOmwUB1yHK+UM//F5TyAt5RwSzQFlhhdxuJ8SAp+EPHBGWwguk3I+Y8+y+58RzI/BZ5Oy3X27LQl5+ZeeWCMKdXWGIUceTjh34EA7D+d275xYc7GFOvD334fv//S8Xcx/t9O67ORHPE4oYAiOEEEIIIWYYc54ZSH7OgTcWTzF7dvMn9LMQvoJnltCM+ebL7d5B+APH+Z3YaOKVeVERgbf11jmRCAhE4qXZQ5xtBhH2xG/jvSWMg+sJqUCQxjAO/nw+nmRi2tkZBBFPmnixCecglIPQlz32yO3Jzc+ABxihiVjng5hHCHN/hDNhHOQTscrWitFTzr3ZeQS4Jy89kjfuRTqIaEDAEjLCXuOI7pgvnhxwL9LmhU280ghu9hFHZK+3Xu537kd+sDOLDMqBqMee2IOXMXlRlBc6EeJUE2lwHtewAGKfd2LEyT9lJY+EAGFftjfkhVa835SZe7LQQKzz8ip5JZ+kwfW8+MpLqAh9IYQQQggxw6jjA8nP5cMleKgR3IhHROPUQHoISgQjgpI0q3vJEzGLOEXkc/9yrikGaZAWghyRXdt0KAdebcqCsC2Wp/SLmyx+EMaFwB6IbMqHN79YvnhawXn8Txk4Ny2sOU75uC/fEX8uhBBCCCFmCmonyIUQQgghhBDThCKuWSGEEEIIIcSMQIJcCCGEEEKICiJBLoQQQgghRAWRIBdCCCGEEKKCSJALIYQQQghRQSTIhRBCCCGEqCAS5EIIIYQQQlQQCXIhhBBCCCEqiAS5EEIIIYQQFUSCXAghhBBCiAoiQS6EEEIIIUQFkSAXQgghhBCigkiQCyGEEEIIUUEkyIUQQgghhKggEuRCCCGEEEJUEAlyIYQQQgghKogEuRBCCCGEEBVEglwIIYQQQogKIkEuhBBCCCFEBZEgF0IIIYQQooJIkAshhBBCCFFBJMiFEEIIIYSoIBLkQmT4559/3Oeff+5+/fXX5IgQYlbk77//duPHj3e//fZbckQIIWZOZktBfvfdd7utttoq+U2keeONN1ybNm3cxIkTkyOzHr///rvbe++93TnnnJMcmbY88sgjrkWLFm7o0KHJkRnH9C7bf4EvvvjCtWvXzk2YMCE5ImrLhx9+6DbYYAM3YsSI5Misxf333+/WW289N3z48OSIEELMnBQU5N5799Zbb7kuXbq4Tp06uR9//DH5pmbgnRg0aJDbfPPN3eKLL+7mmmsuV7duXZssBw8ebN9PDz777LNpMoHgKWUwb968ufvhhx+So9WDIFh++eXd9ttvnxwpzaRJk9zjjz/uPv300+TI9OPbb791r7zyivvrr7+SI7Me//77r3v77bfd6NGjkyPTDrziF110kWvfvr1r27ZtcnTGMT3K9ssvv1j7ou7/C/z000/u1VdfnWXa+DfffOP+97//VfHiMjbuv//+rn79+m7cuHHJ0RkPtmS8+P7775Mjsw485Tr77LPdQQcd5DbZZJPkaHFqO94LIcS0YApBziQ2cOBA17p1a3f77be7l19+2f3555/Jt+WDsLjmmmvcfvvtZ4K+f//+7t1333V9+vQxwbrvvvu62267zcT/zMqcc87ptt12W7fDDju4+eefPzlaPYsssojr0KGD23LLLZMjpeGR6k477WT2FpWlX79+bp555nHXXnutW2CBBZKjszbvv/++23nnnd2zzz6bHBEzE4hx6mfs2LHJkTAwzzGHLQhZGC622GLJUVEucf5Zbrnl3CmnnOLmnnvu5Jvi1Ha8F0KIaUEVQc4gdsUVV7iTTjrJXXzxxebZri14VRgIEaZPPvmkTSyrrLKK22233dwzzzzj1llnHXfssce6MWPGJFcUBu/eSy+95F544YWiXgsWEa+99prds7rFA6EapJUO2SBM4MUXXyzolSR04Nxzz3XzzjtvcmQyeFN5FPrBBx+Y7SILLbSQTQbHHHNMciQH+SSP3Ity1QTuNWzYsCpeTjw6I0eONHsi6gvBOe+9957ds1QcJXYjnIUwDRZMpRZKX375pZUbu1UHYQPPPfecpVmIcu9LfZFOdU8RvvrqKxOe1EkpuBftIB0nTp2sueaa7uSTTy475hT74tF+/vnnp/AiUhae1pBvylisbZZTNmz9+uuvW9mwfyFIBzu+8847lq+aQN5pX+mnYeSXfkWapcI//vjjD2tf1bUbbMp5LBDS/aU2fPfdd1Z/tMNy+xL35N7V9YVywVbUO3Vbqjychw1r8oQCQY7T4oYbbnALL7xwcnQy1C91w72LPQmgbTN2Uq94usuB+vv444+tXKWejHIennvabXb8mxpIhzmBdOk7pdpTKWgTm266qTvhhBNK9oVsuy823sc5hnpMzx1CCDHNCANenjAY+qeeesqPGjXKft511139Cius4L/55pvkjPI59dRTfRjUfBjYkyNV6d+/v59zzjl93759kyNVCQLEB0HrF110UV+vXj2/2GKL+SB0/Y033ujDAJuc5X0QH37ttdf2c889t19ggQX8Zpttlr8uctppp/mNN97YX3fddX6ZZZax8/j/kUce8UEg+/XWW88vssgilsbhhx/uw2CeXOl9p06d/A477OAnTZpkv99yyy1+gw028EEY+VVXXdXyVKdOHX/ooYdaniEM7n7DDTe0tCIjRozwjRs3trIst9xyftlll/Vvvvmmv/766+3eVMV8881n+Q6LFf/zzz/7zz//3Ddt2tSHSdk3adLEL7jggn777bf3QSiZ3ZZeemlft25dv9RSS/l55pnH7heERnJH77/++msfFkBmZ/LJfXv06GHnBlFn52DLhx9+2MrC/cPkb3Y4+OCDfRBhdg4E0e/XWGMNP3DgQL/EEkuYDcOiLfl2MuStc+fOfr/99vPnn3++X3LJJe3epB0mO/seyr1vmAj91VdfbTYiHf4PCzmzR5cuXZKzcjY/6qij7PsGDRpYewkLSv/hhx8mZ3h/2223+ZVXXtn36dPH6oEykHa5bS1LEEO+ZcuW1s45n/8vvPDC/He0OY5TT5SReg3i3foWlFM27EWa1PHiiy+ez3dYNOTrmvSuuuoqax/LL7+8nRPEiLWhs846y2xL++I6yrj11ltbew6C1toEbZA8cj12oMy9evUyO1DXfKgb6i/aI4g237BhQ3/ppZf6Fi1aWP5JN/aBLHfddZflnzyQn8MOO8zqq127dvY95dxzzz39dtttZ79HwkLT6uyee+6x3xmLaF/YCpuQFn35oYceyts1LEDtOP0nQl/YY4898n0BO918881+tdVWs+/go48+snsNHjzYfgfqiDaJPYPAtWNhAeIvv/xya9uMj/y/yiqr+CD07Xugv2NbxovVV1/d8nPEEUck306mQ4cOZhPqh3xRP5dddpmVhTpgbPvhhx/sXPogvz/wwAP5sYfybLXVVj6I13z5seW1115r7YBzSJ8P7Sg9PmQJ4tTqhXZMfhlbTjrpJB8WB/6xxx5LzsrVwSGHHGLfr7jiinbujjvumB9TCnHAAQfY2Jy+P30EG9133332O32YcYO6xa60v0suucS+g/bt2/vdd9/d7B/BFoylYbFqv9OuDzzwQD///PNb+bEnn0GDBtn3UKrdZ8d7bHrHHXfY+aSJPekLQehXmSdefvll361bN+sXQghRG6oI8ixTI8gZ1JiomFAL8dprr9kAx8BWCCahrl272iTHhPnJJ5/Y5I04YOKE7777zq+55po2ISP8x40bZ0KGAZNBOHLkkUeaCG3UqJEJaQZNRAQDfv369W0CJJ9MMkxG6YmVe66//vr5yfiKK66wtBADLCq459FHH233vPvuu+0c8sXEzuQBDPRbbLGFpcP5CE7y8emnn9ok+OCDD9p9GdCxywcffGDXUGZEDPdigUMeuZ5Jgsn9/vvvt0nwq6++8scff7yJvqefftruiZBgYmKyQURzLXlnQkkLcsQLExficfTo0XYe4o66YXIkHUDwMKkz+TFBIQC+/fZb+y4NkyXCjPIwicVyIjy4N5MhlHvfV1991eqSCZ90SI86YxEURSu2YkJFICDyJ06caIsd2sVOO+2UF5EsyBAX2HTAgAF2T+qqnLaWBdGDGOceXEdaCH4mdOjXr5+JGdKi/wwfPtzqsWPHjvlFSTll++mnn8x2jz76qNUz+UM0UddxsUubIG0EHHWCEEXAIiq4N2KE+kDc0L4oE23oiSeesLZAP+3du7eVgXvwHSKUtsTvHKctI5RYrAN1hhAj//vuu6+Vk/OiKExDW6FcLEiod/KAEObea621lp2DkMfm2DQNeaXdYE9gAY5tEHPYYuzYsdaXSZ+8QlaQR1Gd7QvkHbuk+wJlpJ1EuJY6YzHKAgdYXJAW4wZ9mfIh2BHlsU8899xzVo+kxyKYe0bhn4bynXfeedbu77zzTrMNadJm6dP0Idoo0AfJL+2S/JMmiwf65V577ZVvV+SP9kGbpl0x3lF+xijyHPtDFhbQc801l7/gggvMdrRn+lRWkDP2YLsnn3zS+hrjFc4G+n0xwU8bZhERbQj0CcrDOEq7oUyUjcUMdiTfCN0IjpC2bdtWWfSRR9IgLaAuEf8jR440e5M35gjqJorsUu0+O94PHTrU2hKLHto8dc1YjC0Zc/7++287j59ZVLEAE0KI2jDdBHnr1q1NAMfJJAsDJRMtE0W54NFmIGUiACYJPERXXnml/Q54WVgMMGFEEORMoAyuEcQJ1/J/FBEIKyYkxE+kkCBnAkDkxImNyQNBwEQAWUHOJMWEzsSe9u5EGOiZQJkI00RBjqc33r8Y2JOJg/wBQp884FWK92TyOPPMM/OCnPwfdNBBNjG9++67dg5wPhMo3q+0GGASYjKOE38hoiDHA5lOE4FMfWOjcu9LvURPHGIpgijE3lG04gWPwicN4oN2gG0gCvIzzjijoHBMk21rWRD+iCjaQTqtYmKHsm277bYmSqnLcstWCNox5UDIAN5Bys9CqVC5eApEXhFqaaIwYQFULN8R7oHwQzRCFOQbbbRRFU9hFvKDl566ZwES+eKLL6xP1FSQF4L+T19GpENWkJfTF6AcQU5ZqUPaeEwLhg0bZmNMtDGCHIHGgrCUVxpYHGLbt956KzmSa0eFBDn5Pffcc/NCELttueWW9rSChSULOGzKUz/Gwgg/N2vWzJ7cFcoP9cSYjTcfkR3B7mlBzlhHnk488cR8HoCnkPQ12kUhqhPklBfnDOMGArkQ5QjyQtA+aA/Re12q3afHewQ8jhSeWKXnMa6hL7MYj22MMYgnLumne0IIUROm27aHYYB3derUSX6bknBv+z9MpPZ/Fr4Pk6HFBA8ZMsSFSdI9/fTTlm4YkO0c4kGDSHStWrWy3yFMqBY7mCVMeC5MyslvznZB4d68VR/zufTSS9sLfWHAtd+LQVq8tR8mKvt9iSWWsF1kisW4BzFkLwvde++97tBDD7Uyhcks+bZ6tttuuyleMMQOYZK1WM++ffvaVo/kO0wk9n1YRFnMapiA8y80UV5e1o1wLjYNE6VbbbXVkqPOzg+TksVKBvGdHM1dv8cee5T1gtSyyy7rVlpppeQ355o2bWq/B9FU9n3DhGgxwlzL+wcR0llqqaWS35zFsBIz+vXXX7sw+eY/bNnGvYLgSs50FhsaxEGVtllOW8vCexFBgNl7Fum0YpsgzSB8LG+8JM1LoqTPffiu3LIB+SDWlXcFeCk6LAbseMwbdmzcuLHtykFbCKIn37/KgZfYYr4jtE/qIYgXuyd2SbevSBCmZodiUF5idOlvQcgmR53tHpLuj+VCuWgb48aNc/fcc4+9q8F7GdiIexWinL5QLsTJM+5Q59gltjXaA6RfzOQeYVE+TV8QpJ542ZO0gfKsvfba1j6wSxCI1uY222wzGwsjjB+0kyB2C7Zpxq5PPvnEtjgMi8TkqKtSZ8DuW9iSdoDt030tLFBKxp2XgnJts8029m4AeX/22Wetj9SkHUewA32NLQ/J45tvvmntg/ylKdTu02AT3sdg15W0TbiGbVEpK20LGjVqZBsYLLnkkva7EELUlOkmyBnAEAbFBA2DGZP+MssskxypCoMn4hXBxsuhDz30kG1lyMAaYVJgcERk1ZRCiwWOFTpeDuSj1ORBGXhRlokbEcbgjeCpLUw0pLPXXnuZMOFlo7TIx+78vvDCCxctExMXdcSCIg3nU3/VLUxqAsJhvvnms3uWe1/yj9CmDKUmTtoBtmfyfOqpp/IfRBvbdqYXBoUop62l4V4IB9pdsbbHC5js987EHQU+C4ZIuWVDZJ555pkm2hHcDzzwgO18lAbBh+jnhenjjz/erbXWWvZydro91JSePXvaPY844gi7Jy9Q1qY9cA3lRBCWKme5TJgwwe2yyy5WxvPOO889+uijbtSoUSX7Xjl9oVxIi/aLeE23tddee83+9gGCdkZCeVgQ0VaxASKWNrNYZmcWzqP82KGQregDfOh/pWzEy6GkgTBPl58+2LFjx6LjeTngSEFEkwbinP6Dw6EmUD+MrU2aNLE2TPtgXKgN1DPppRc2EWyJHaemjwkhRJrpJsgRiwzenxbZOQJRwcSB96EQCAD2MD/xxBPNw4FX8MILL6zinWWSjxN+mmkpJKcVTHSIJXbkOOaYY9x9993nLr/88uTbmoE3islmo402sq0k2WP6pptust1dIghF9n3Hm5WegNMiE1syseDlSU8snI9XmTRqK6Kykz51hMeJJwnl3pf8UybEb/a8dPqcg4g4/PDDTTymP7ShBg0aJGcWppy2loZ7UQ7ET7btARM5uzUgHhHmpM/TkbRHttyyIfTOP/98ezIxevRoExiXXXZZ8u1k8H6yZSPnr7HGGrZT0osvvph8WzMQMFdddZV5d9nFh3tef/31tfL04smlnCzAsh7sdDmxKXWe7bv8nj4PO9Le8cpSVhZPRx99dMl2Wk5fgJhGtj7S5zHmkB7iO9vWyFuhp3PTmmwZ6Ec82cPW1BHtNnpuI5xH+RHv2CIL1/PBs5wub9ZGjGPc58gjj5yi/Lfddps9CSlErNtS9iddtorFuYAtye9RRx2VfFteGgMGDLCxlfbL0zjaB7t51QbsgROBPpqFvGHHUk+HhBCiJtRKbTEoMlEXEiMRHmXjceFRfXaS/eyzz9wll1xij/mK/cEGHrsySfPHdeLjWQbG9ACMBw/xk/YYMhHdfPPNyW8zH4suuqiJJUIMsAMw0fAhxKEceOyM7RFpUYRnBQ/hN0ye2AYbAd+n9zpHFCMSqcu0F4l6Y1JcccUVa/24nUVDektLwgpYnCFkyr0vH0KKaAt8Iky0H3/8cfKbM28Y5yJ8a0M5bS0LoSrYPIaPRFggIeioI/IVFwOklQ73KLdssY3gMYwLhGL9jjKwED711FOtHDwhgFimUv01DfVGm+ncubMJEiAkIi1Uy4U8E4aEPVjsRCgzTyEiiBuemCAIuRfQXll8pPsF7QpBvPHGGydHck/b0iItS7ovxD6S7QuAJxQRRt5i3bNApO1G8N4ybhGGw4JsWoCNGCPLSY/zeCIW64I+Q7kIEaOuYqgYi6h0CB3OEZwBq6++er5O0+BRp9+RVrQ/ZNs324JST4Qw1aQ91KtXz+oWIQvY94477siPTVkI8WOBHdswMHbGsQ9IA496GuqKshCWFhdYLIxrA/djjiHNmG+g3HGcIvQK4pyYHoOFEKImVBHkTGrs/4qnkA8DOIP6WWedZY/yESDAYMQky7FiEAeI5+rOO++0wfHGG2+0AZiwDUQZg+mtt95qE2UheNTPRHX11Vfb/fg/6+ng8fC6665rf1mRiZv0dt11VytHHIxnBj766CPbh534XiY4vDc88qaMgLcV0XDXXXdZGfB08qi0GIj55ZZbztLBW4g36eCDD64iShDqxJ7zyJeQB0IaDjjgABMSUdgh4NinF4HctWtX2/MYLxd/2Q7vI+EK2dj1cmHSZFKlblggHXfccSYWCLEp976cd9hhh1l+mZwpA55nwlBiGQABwlMHBBb3wcZ4xrBP9+7dq50ky2lrWdq1a2d9APFLmyZv7BuNRw9R16xZM1ts0P55pE96iO1IuWXD8414p/+QDmXs0aOH3SNyyy232GN67vXggw+63r17m2hFPAGigX7G4hgPIvcqZRPyjqhh0UyoDW2ScJnaQDlpd8TWUte0bZ4MsWBPt3H665577mkLIcpCe8ALS3uNi04gphkRR1+ibfP0gPCcUqT7Ak+WYl+Icd8RBDn2xo6EhNEOaMNpjzIeUf76I4sW6htvLOKXclGP6fcVyoVYeu5BvZE33i0oBU9zsA026tatm4XsdOnSxdoJZSB/xJLT16hvnp4RTkKf5Cldun1FsD/nsBikz8R70LZoSxHEOAs1xpzTTjst39eoU/KSXnSmob+w4CBt/kozdcx10ba0R+xHf0LsYwfyHcdIYBGGQKcOKRd/TImyp6FdMU/xhIu5jDZMyFhclNYE7MnYSb533HFH64P9+/e3kCmeVvXq1ctEO2AH2iZtRwghakUQcXmCSLat59j9Ivtht5W4bdf7779vb+OndyMoxN9//+3DxGZv5YdJ0XYh4E18dgVgu7JShAHah4HXtibkujAw25Zn/P9CsnUehAHadj0g/SDwbC9udjwIQj05w9suD/yefgOeXQOCkLMdKCK8MU+5gvBJjnjbTozdZoJ4sN/DROGbN28+xdv0vHXP9ofATgfsBsA2hhAGdNs1g7JTFsrEDgqUMcI2dWwDGMsaJhXb/YEdE9iFIEuYAGw3Ds7nbX92BQkThe2dHQkTsO1Djl2wD7sUvPTSS7aX8TfJzjnUOTuJsG1ZrCPSpZxpgpixrcPYLaUUfyS7rLDLA/sehwnc0mRvcO7D/aDc+/7zzz+2b3hMh3aIrYK4s63GIkGk2XZk7ErDeaTJNWHRmN9JgV1I2G0jvasJlNvWstAP2LmCe/GhLNgJvvrqK9uxgeNBJNnuMuzZjW3iLhflli2I8Hxd8/8DDzzgW7Vqld9mM4hDq9NoR3apCSLRvouw+05sf7RV2jNtIdZLFva5DyLezqfeR44cabv9BLFk37OdXtOmTW2/63Jgi07GEdKjvdKm2e4x7rISYfeO2F7ZEnP8+PG2+wdlhiD4bDvPWBb2to7tiB1qgLzRj6mDCP2JLSlj2m3atPFhoVFllxUIiyZLi7Tpj1deeaVtS8iYla43trdjC1DO40PbIX36PoSFZcF6KAR1wRhDvvhQV/QP+k9Y9OV3SwkC1nZjom6ok3hfdjhhrI3wM+0q7rFNmuwUkt7OtRCMU2ypiW25hq0p2fuc8Y5dYyKcx44osd1yLvdilyP6fyGwHX2AvsD57F7C2Esbom6xKTu6pPPMfWnbEezADlrUIR/GO8ZqdphJj0vkje9Jh12A2PsfO7JlIZRq99nxHmi79DvyxId6j3unA3VFW6JumHuEEKI21OGfRJtPN3jkzAttPOoLA5rtIlGOx4Ks8ZgTzw7e1TDAJt9UhfQ5D69hGDhr5Q2Z3oQJx2xAWcJkYR7xtBefsvI93h2+w9NVCs7n0TIeRTzseEDxRmbB5njLOB+veiHvGOAFwrvHedQP9VQoverAe4k3ibyxUwLlIaSAeiHNLOXelxdgKSuPvoMISY5OCefE+M4gAM3W5ZSD+5fT1rJQ3rR9095Ewgl4xM4xviuWj+rKRtqUiadVxdoG3mbsSH1jR85J34/2xw4h5InyVffkg3vyqJ9QB/KVTa82kH/SpK0GMed22mkn88jyqD9CPikHds3aM0LesDllIWa50DmFwAuLDYKAcmHxY7vW8OSKUKr0y4i0AfJAXVD2YnAebQY4l35Y2ydz6XZEmdJPQCJ4YXkCyM43PBmkLLTT7FgSoe4YU+jz9L9y7IRtKDu2LWZ/IJ+x3dLXsBN9rRSkHdsg9i9UxnSeaafZc+J4BnGnrCyxrcc2VChEp6Ywx2AX+gBtJd1/GN/CAsOedPDUIv1ERQghymWGCHLx3yEryHnsK0QhCGXLCvIZCcK2kCCfWUkLcnYgETMHjz32mDvwwAMtdIndf4QQojbMPIHWQgghxCwG26Xy7kl8Z0MIIWqDPORimsJjaXbTIDygZcuWtX6EL2Z/aCeEArDjTiUghIadXvhDO+WGvVQSwkN46ZmX2asLDxFCCDFrIUEuhBBCCCFEBZH7UgghhBBCiAoiQS6EEEIIIUQFkSAXQgghhBCigkiQCyGEEEIIUUEkyIUQQgghhKggEuRCCCGEEEJUEAlyIYQQQgghKogEuRBCCCGEEBVEglwIIYQQQogKIkEuhBBCCCFEBZEgF0IIIYQQooJIkAshhBBCCFFBJMiFEEIIIYSoIBLkQgghhBBCVBAJciGEEEIIISqIBLkQQgghhBAVRIJcCCGEEEKICiJBLoQQQgghRAWRIBdCCCGEEKKCzJaCfNKkSe7bb79NfhNp/vzzTzdhwgT377//JkdmPbz37rvvvnM//fRTcmTaQtpXXnmlGzVqVHJkxjG9yyYqz2+//Wbj06zcB4UQQkxbphDkf//9t3vwwQfdIYcc4nbddVd30kknuQ8//DD5tub8/vvv7vbbb3cHHXSQ69ixozvwwAPdoEGD7Pj04sYbb3Rrrrlm8tvUcdppp7kePXrUKL+IqcMPP9xdcsklyZGZh2HDhrnGjRubKJ9VYcG17bbbumOPPTY5Mm3p1auXu/TSS928886bHJlxTO+yze4gdo888kjXu3dv988//yRHZx5YcLHYW2edddz333+fHBVCCPFfp4ogx3u63377ua5du7p33nnHjR8/3l199dWubdu27vXXX7fJpCaMHTvWbb755ibC33jjDTdx4kT36quvugMOOMBtscUW7tNPP03OnLb89ddf00Twszh55pln7INQKpeff/7ZPfXUU+7FF19MjpTm66+/djvuuKO77777kiPTD8qEbWpalzMbf/zxh7XXac1rr73mHnjgAdevXz9buFSCaV22jz/+2HXo0MGNGDEiOTLrg41Y9F500UXJkRwIcvrr8OHDZ0pBDtQt+Z/dwPb77LOPu+GGG+T9F0KIGjKFh7xFixYmSp5++mn37LPPur59+7pvvvnGXXbZZTWa4HjsvtNOO7l3333XPO7PP/+8e+KJJ8xDi9h55ZVX3J577ul+/fXX5IqZj7nmmss98sgj7rHHHnOLLbZYcrR66tev71566SV36623JkdKg0cd24wePTo5IirFggsu6O68805bSM4usBCmfX322WfJkVkfFt2MUS+//HJyJMfiiy/uXnjhBROFc889d3JUzAhYaAwdOtS9+eabyREhhBDlUsdX4ypFjDdr1syttdZa7qGHHir7Mf7NN99sYSpXXXWVO+yww5KjOfCenHjiie6KK64wwbv11lsn30yGcxDtjz76qHv//fdtMbDaaqu5/fff36200krJWTlP2cCBA21y5ho8gePGjXPnnnuu++GHH+wcJgmObbTRRu6WW26x2ODmzZu7I444ws0///wWQvP444/bZI6HZ4MNNnB16tSxa/Fac28WFwh0nhzwtGCXXXaxMjL5L7LIInbdxhtvbNeQpzvuuMMts8wybquttrJjeM0HDBhg5+OlXnfddc0+iCTOJUSCczfddFNXt25dS48JjrJtttlmtijg2nbt2tl1lIe8Mfkh6FdccUW32267uQ033NDNMUdunYU9nnzySROYnNOqVSs7r0uXLvZ0gvwBdiKsiMUSXq4GDRpYuFLr1q3teyCf2Ii66tOnj4Ux4aHk6UkabEU7mW+++VyjRo1sUfLee+9ZnfH0hVCiaNty7kvz/Oijj6zeWNytsMIKbo899rCQKtolNoXYXigrHuEll1zSQj+23357N88889g51DttYZtttjHBNmbMGHf00UdbuyinrWXhqck999xjT0Oo31VWWcV17tzZyshC8+GHH7b7ffnll26BBRYwkU/esQ2UWzYWavfff78bOXKk2WnllVe2+6y99tp5W1KWm266yc6lPdKWOnXqZAvDu+++21177bWWNv14+eWXt++++uora0PbbbedGzx4sHvrrbdskbzzzjvnF9K0d56oUJe0Sa6HH3/80d12221W/9iO9km90afoJ1l4CsQ9eEIW09t9993NARBhEU+9kB42atOmjdVBrL8IYxI2IyRs6aWXtnxxz3333dctvPDCdp9ll13W+gp9ARt8/vnnVs/0WfoMC2yu41iE/nbvvfdan2ERw8KaNkSbj3nA/rRZxhvOX3311e0JIDYtBGPBXXfdZfahvkmLNkZYHf1iiSWWsPOIKWccwrPPedQt/SX20UJwHmWjzdM/Gb8Yp2jzjDGkR1vg6VscE2L/pO3SHoDQGcYZ7s1Ch3vvvffe1h7hl19+se9pU7RB2iJ1iG1oLyx8OM6Tpcsvv9z6DuMw9iMdoL2QT/p6HK/I6yabbJLPG8cZLxjnOEZYD2Md4yHQr7E/6cdrhBBitiEM6iUJg6APA73v2LGjDxNQcrR6unbt6sPk6INASI5U5ZlnnvFhkvNBOCdHqhImZx8mbR/Ehw+Dum/fvr0PiwEfJlAfBmU7J0wu/owzzvBhMvZNmza178IE5MOA7RdddFE7B4488kgfJgAfRI4PoskH0Wr3DsLMH3DAAT5M6n6LLbbwYZK2so4dOza50vswqfv111/fB4Flv4dFhA8TlQ+TiV9uueXse+5FGmFStHPIO/kOgsN+D2LR8hlEhg9i2B9zzDG+cePG/n//+5/v27evD+KRRZFfaKGF/FJLLWX3CwLPf/LJJ5afIFJ9mLh9EPxmC+ohiDs7l3wEIeLr1avnwwTog1DP3zOIRStnmNR9EPqWFjblWBCJdl6YbH2YaM22YZFg6YYJ0PIaJl5LB8IkbnngfpQ/iC9/zTXX2HdpggDxQXT4MKlbuaiXsKDwCy64oP08YcIEO6/c+wbR7sPiyQdBa+mQBnaibWFL4NyXX37Z8se52Jr6pJxB+OTTuu666ywd7BuEtrWXINDKamtZSLNHjx4+CAO/xhprWN6oA/6HIBatLZJGEJVmD87t1auXtVsop2ycQ75oa7QDjmMnbEvfBNoDZaL+jzvuOB+Ell911VXN1uecc47VO+2LdkqbCYLNB0Hmn3jiCbPRlltuae03CGCzHfmjToLI9GGRZx/yFcSn1RvQr8kndub/IMzNdtR/FvoObZe6DYtCKyt5IV+vvfaa2ZJz6EuUq1u3bj6IXLNNEN9JKpMJCwfrz3POOafVE2Uir+QpiDqzI3YK4tLOP+mkk6yOWrZsaefRF7g/9RMWCHZ/8h0WmD6IS7s+LFLM5owttJvYhi644AI7Bxsfe+yxNp6EBYB9lyWIYn/66adbPjmPtoCtSJe2EkS4nYdNKTv2CAsaf+ihh1odY9No70KEBZPlhbo/5ZRT7Pz555/fB1Fr+Q2i2PrE+PHjkyu8D4swu39YkNnvtAP6NPVLO8X22BNbBRFt58RxKIhvyxd1Sf+hPTMGcK/+/ftbmThGHkiDtgHcg7ZLW6NOGR84lzEhLILteuoqiG+zz8EHH2x2aNKkiQ8LDksDyBP5iOOsEELMTlQryC+99FKblPr165eflMqBSRfhFgVYllGjRtmAzMBbCETGyJEj80KYye2yyy6zSR3xBW+//balweTLxEX+EPpMQllBzqR42mmnmdBFcBx22GE2eTA5fPrpp3btwIED7TyESqSQIK9Tp47fZZddTNRy3bPPPmsTGmIGsoIcUbfWWmv5/fbbz+7NNeSDiYqfsQXlQqz9/vvveSERJ0Ls+Oabb9q52AHeeecduw9w/PHHH89PxkB+Ec2IKCZkzkHAIbrSghzByr2vv/56uy/nffTRR3YdE2AUBAhyrltvvfX8F198YedFYZkmCnLOveiii/L2RvgiHrAflHtfxBCia8CAAZYO6V144YWWflq0sthC4H///fd2DNsiIKiHiRMn2jHSQpgiKBAmsQzltLUsiD/aGQu62PYQjyNGjLDvaVOcE21EHmlHiDLyBuWUDdu88sordn1k0KBB1idZcMEbb7xh7f2xxx6z38kLYo80+bz44ovWNm6//fYq7SsKctpm7AMxv/QtxC1wjHtiDxaREAU5Avr555/P34s00nCse/fuJn6HDBli9+bYBx98YHUThd+YMWPsHARvJLadQtD2EbmIScpEu+PexQQ59U7/4zrOYyFA/XXu3NnqH3GLLXr27JlfhNFGELksdOiLwOKFY/Ec6jK2myxff/21LRwQ9+SLslCXLP7Sgpy+QdmpP/LGZ+jQoVan9I9CkGccC7Tl2L45xpjToEEDyzvjGe3kjjvusO8h1jn35D59+vQxR8STTz6Zrz9+pm5plxDHIfomiyHOo2ws+rAFNojHuDcLCuwT+zWinUUnc0isJ9rbOuusY8Ke67AP6dOf4hiHXdMLPBZpiPxoNyGEmJ0o+dyPR7uEfoRB1x4vx8fj5RAGUwtvCRNCcqQqPOYMgrjoy018z+Nx0uDxMY/9CR8Ig7n9DsS6h0nIHpsS+0v+CPk4/vjj7fs0devWdWGicEE4232DOLK8sYsMj0+5ljASjoWJJLmqMGGitHAbHidzHY/WeUQeREZyRlVIM0zA9riWPAe7Wz6CwLHrKSuExUBBm7E7DbbgXM6BNdZYw8oURIsLAtl+DhOt2Ql4REwYQ1hQ5POJ/dgxJoLtiOcnfCAIGLsv5xE6wqN1XsoNE2tydo5u3brl08OOxSBsg/CFaG8eoxNeQBhEufcNE7M95qZ+eAROOqRHuoSHRHj0TzhKmKzNHoTzsItMWBRaqAJ2iGDrU045xfISy1BOW8tCOAqP7dkNJbY96jgITPuePDdp0sTKEASHhWMEUWOP5YN4Kbts2CYsgiz0gDqlPLQ/8hZ36eB36p7QFF7EJi9BbFqasXxQrH0dfPDB+T7A+UD9kZ+wEDB7EL7Ad4S5pCHEiPYf70UaacgzYT2EprRv397uzXmUkbomfIM06QvYkXdNqH9sFNtOIShTzC9lovzZe6cJCwfbPYd+wnmEPZAHQnJoj4SpkA6hQISxAW2EsYS2RDgHUIdhMWIvyHId+Q5i077LQruk7hk7g8C1vGKHvfbaKzkjFwtP+A3tjfxQf3zIL3nlZfhC0KbDoslC5xhrafPYMYhayy8/E75GuwmLqOQqZ6Ez2JlxkjZIyCChJYTc0La493LLLWfthxCuNITQ0E8oB3aI9yIdjlEHEOuEuqZ89BXaD2FSsZ5ob4SzEDqHnWib5JXyUiekiV1jmkA4E+9CkDchhJjdKKqoEMrHHHOMDa5s08UgXhOYqJiwGFgLQfpMukxUhUC0siDYcsst3aqrrmoTQYyrRowAkw6DPmI4DZNBFiaB9IQdJ90ocIHBn/Ri+sUgHewSIQ2uLSbkEQ9nn322xb4yERJLjIAslyiG0pAWExqiD/GEGI1iDxCSkyZNsu/T10ZxBkzkn3zyiWvYsGEVUUH5OMb1MT0gHYRD2o7FwI7p85jAl1pqKRMo5d6X/xEICHXEWYTz0vXGgoTzzzzzTIu9jh/EMqKZdCLki3ykKaetZaH+EBCIl0JwHXHCpIdwIR6WWHPuBeWWDRA9vB8Q6zrG/sa8USdHHXWULXKI/z3uuOOmWEiVItt/gHcEdthhBxOJ3JMFFWmm2wMUujYNdU1bRIBloV3TZ2i3pMOL47xIjmjF/tTrtIJ6T7d9fkdws4BjjKIuGItY3KTBtoxltFfg3RfaBfHTLPhoN8VAbFLf1Fsa7h3BpqRNzD4Ogdh2EdPEhdN+C0H90IbYljXd5i+44AJrF+SRtsliCZtyHxZHxHkTU059UG76IwsM3i+JafAODffObstIu0z3aezCvWKbLgT3YJymz6XtD+SBNMkD4zFjJOXaaKONbJHK+xVCCPFfoaAg5wUjvBkMjnjx8CbVFDwuTAB42ArBZMVknJ2sIkxSDMpMOmxtxktFeLiygzoUE02lSE8skULHyqW6a1u3bm0erbPOOssmIJ464DmqDYgIvG68WIZAGDBggLv++uurCLs4SWLjYnmL52RFFnBddgKeGrgHHxYuNb1vqTIA37FYYAHJC7Lxwwt6zz33nAmMUtSkrQH5j59CbY9jF154oeUHIctLsLxoWCgf1ZUNryUvvrEA6Nmzp71ISdppuB6vP09geFrEi3EIMURmbUCI8VQGLyyLHO7J9qdxEVsbCtkplh2BSv2x0GDXFF60pd7oI4xB0wvEIveO9o/tMg3nkPdYdhYLiGfqAKcC/Zq6LURsI4XaeRruzxOvdNtl3MVDjf0LwTV8unfvXuU6XrjEC86ikr7GC/UIYl7IxqYs5HlRMr1IZwxmDEnfmzSuu+665Iypp1D9Y1vsQz4pCwtiPOQsMqh3njaRZyGE+C8whSDHI4PI4xEukzAhD3HCijCIMpkWGmQjDKa//PKL7QKQnegYiNmpgEkB4VAIvIlMJISGdO3a1XaC4NF9eiLB60I+8OZEmPwID5jZwIZ4BE844QTbRQBPHLsvRPi+lD3TIOwRX4hGHqkTCrDxxhtX8bzhkUZEEEYTBQH1wCIpwlMPPLR4yNILJ/JBKAEe4GKitDrw0FE3EbydPFZv2rRp2ffFA4fnlMVb2luHECL9SPTS8pifnSDSH8Qs6ZSinLaWhrpCQGFL8paGMpM/PJF4GxH4LG4RG4S0RMotGzuOIIzPOeccC2dB4OPNzMIiBq8quxqx2wqP/Qn/gNh/y21fhGcQRsCTMXbS4Z4IT+5RU6hrQgxiGEqEtogHNH4fwa6UFWHJYgQ7lqLcMjHm4CWOYxF2pj3SZmhreJPx1PM0IsK5LIS4lqcEEcYdnkiwoKZOEbGFoL9je9KI9+V/xsUIT4jwwtNu8Axn2y/9pBCEe/EkkEU4bSt9DQuZ2OYZv0mfRSFCmzw1b97cvmO8IPyMPHFNOg3SLHbvUlBe0ovl5R48iSDsKf2kiu8Zm+hj5C/CEzIWGUOGDLE6YlEdof1gp5i2EELMTlRRHAgBYoTZCo1t0pj4maD48Ng5Tn4MpIgWHpEXAw8bgoPBlbjheG18zEq8K2KymPc9hjLg0QFEy8UXX1xFrBAHzmSKdxivMfAzWwjOTPDEAfHNxA5MKkwuMQwI4Uw5mLjLERhMxIij6AElXcIjEBQRBDl/2IaFFcIDWBwRMx8hHbZsIx3CBWL+OI8JkcVS2uteExCE/MVE6o10EYoIIuJQy70vNsHji5gnzhbb8HQB0ZyO16cNITKoewR9hHRZvFRn03LaWha2BuQ62jfnIxLw7hImgyihjOkQD+zBln+RcssWnyjEWHbOy3pkuW/6j/4gZLgmhoNhS9oL9y+nfdEeKUNsX4SdsLCgPDWFxRVx5ng+GVOoE/LA1nuMCzvttJOJQra0Y2EU7UUZyEOxeGHsR9oI/dj3S0Ef5A+SMZZhG4QedibUi7rif5wRLMqicKTOTj/9dHMu8HSDfstCIbZX8kpZyEchEPGUjScuiHDOxxNNX41QDjzWlB/RHMtPHlmIpRcIafBqE550zTXXVHmKQBlYxMU80n4Q2CzOWEAg0KO3H7FMWBKLQvIUrwHqPr1QLAfaGLakLDEtyofDgDGIcTm2TZwSlJe8EdbF4pZ49lj+2PfSf/+BcBzaC3UphBCzHWFwzMMOBGyJxeHsJwzi9uY+PP300/bWPFuslYKdDHiTPgzKts0fOyqECdbe6o9v4hcjiCPfokUL2z6LnRD4mV0z6tata1tlQRj0bdtE8kK+eUt/pZVW8ieccIJt4xZhK68wMdruIJEgkG3XCHYziLALyaKLLurDxJUcye2q0Lp163xer776attZ4vPPP7ffI2xrF3dViTtAkG8gXfLFrhJhAvJhoeIbNmyY38EjTFK2DVmYIH2YxG1rsDBB2U4E3CvuTBLhfHaRCJOfbdEXJlnbyYF7srMJBKHgw8LK7EeZSBO7s7sMOzx8mdr2kHuTFnXUrFkzqy/KHMSOnQPYPCwgbMeOUpA3dllhZwrqg23m+D8IA8tzEDt2Xrn3DaLAduzhO9oStguC3XZ72WeffZKzcm2N3TUoKzam3shD27ZtbRcOYItJysCuJGnKaWuFOPvss61f0PbIG+0Q+2L7ILLN3uyswo481A31RD1QdiinbJzDdZSLdIIwtLomr+xaAUHk2fdxS0F2yKAOaIeAzdmdIggm21GFc2jP9GPszzaTabAXW4JiK7Y7pU5o29Ql94IgFu2e7AxUHUEwWzvl/tQReaDM3CPmkXaFvWn/HOdnykrdFIOdcGhX7FrSoEED/+677+Z362Ar0CCg7Tx2WQmi2XYkYfxhC0Tygh1i+pSZcYIy026oN+xIfocPH27nYDPqCTtgX+7LuBJ3nsnC+HT++edbmrQRtmMl7bjVatwthHRpd7Qf2t72229v4wntp1T7476MK5SJ/MQ2z+4rjB8RdlbB3uQjCOHkaA7aBvmhHdAHg0C3MpLmc889Z+cUGoewLW0UW1K/EES07WTDOEY7p80B5WNLTPJAfikj/Yb6/STZvYbxlDGRsYD2TTn4md2PIuyoQ7607aEQYnakyh8GwtuDRyZ6KdLgreJRLV4QPEV47PC8lfKgkjTeNbyWxDvjJQqi1LxRPMbEQ1MMriWcAS8aj7bx5OAFJRwFr0mYQOw8PDF4QfGuhMHaPCjsTsC13APwHOP14vE0+Qc8SXiAuAYvElBuyk/68ZFv9EziccYGYXKx9HhUHdMCrgsTjl2LHfHikC6/UxZCIsgj3iO8WzxhID+kCdiGJxOEcbD7RBBBdh3p4ukMk6mdF6E82BRvGOEVvCiKrfF+xXPJB54udrmgbOzIwKN5bBNtwT3wWhGiQMwq5/HiKS+Ype/JOdgLO0R7FQLPFi+NcS5eULyepI0nLEzEVm+Uudz7ch7lwtPPH2QiNIdH+9Qfj7uxbzyPeuEP8eAxxntNCEcQFxYeFOsOTxxlp64iXFtOW8tCP6A+8ZqSf+LQad+cz+94OLE9NiNshePkO9Z7uWWjbRADzB9fwcPJkyHKSrugnPQB7IgHlHZB+AFlj55QoB0TWkF7Ip+Uj7qijPSXbFgPXmfqhac2Qbhae8R29HfS5Z608erGgAj5op+y4wdl548z8bJrzCP2IkSFJyT8j0ea+5J27CNZyD/ti/AtykO5GFMoK/Ub6/3kk092/fv3t3ZBHmKfob2l806ZqH/siF2wIU9rsHPMA/ajLrA3YSO0FeqzWHgTaeKJp28zZtAHuWccQ7iOdkBZ6PvYHNsHMWr5o78WGye5jn7GS5u0H/oN7Qdb4LWPeY51xe+x36fh3rRjys15vMjLvXkPiHtTN9lxiHvTHugDjKGxHNQz/Z6XXRnnaa9AX4/lox9St4wHpEe+uJawFr7nqQdloI3EOuR6zifkjSdEpcYgIYSYFan2L3UKURPSghyhkBaFQlSCKMhZ0CCCxawFUxQvmPJhQVe/fv3kGyGEmH0o7NYRQgghZgJ4esV7FryvITEuhJhdkSAX0xQeXRN6waPq7KNxISoBYVC8WKinNbMmhK0QnsdL0EIIMbuikBUhhBBCCCEqiDzkQgghhBBCVBAJciGEEEIIISqIBLkQQgghhBAVRIJcCCGEEEKICiJBLoQQQgghRAWRIBdCCCGEEKKCSJALIYQQQghRQSTIhRBCCCGEqCAS5EIIIYQQQlQQCXIhhBBCCCEqiAS5EEIIIYQQFUSCXAghhBBCiAoiQS6EEEIIIUQFkSAXQgghhBCigkiQCyGEEEIIUUEkyIUQQgghhKggEuRCCCGEEEJUEAlyIYQQQgghKogEuRBCCCGEEBVEglwIIYQQQogKIkH+H+abb75xAwYMcBMmTEiOCDHz8vfff7shQ4a4d999NzkihBBCzB5MIcj/+ecf9+KLL7rLL7/cnXXWWa5Pnz5u/Pjxybc1588//3TPPPOMu+yyyyy9Sy+91D377LM2uU4vnnzySVevXr3kN1GIf//91x199NHuiiuuKKsu/vjjD3fVVVe5e++91679r/PZZ5+58847b7qLQ++922WXXVzbtm2TIzMv5PWII45wa6+9dnJk2kGbu/LKK92hhx7qJk2alBydffnuu+/cyiuv7C688MLkiPgvMz371ozgtddeszmZuVkIUZgqghxhRqdv166dO//8893VV1/tjjrqKLfxxhu7Tz75xAaFmsCk0qFDB7fVVluZeLnuuutcr1693BZbbOE6derkfvrpp+TMaQvi8Zdffkl+E1moRzyNLLzuuOMOV79+/eSb4vzwww/u4osvdjfeeKP766+/kqOVhTqmffbv3z85Mu0pdo8XXnjBnXPOOe6RRx5Jjkw/fv755+nWV6Y15HV69D2e5lxzzTXuxBNPdOuss05ydOaARVnnzp2n6eKMBQh2/PXXX5MjYmro16+fO/bYY91vv/2WHJn1mNZ9i4Ut8/2MEMnMGeT/v7CYFqK2VBHkeMeXXHJJ9+ijj7r333/fvffee+6SSy5xn3/+uXlHayLIERCIbkQfIm7UqFFu7NixbuTIkSbOETJ4uxDPYsbCZM+TC8JVGjdunBwtDe0CEc8ibZ555kmOVhbEyj333GPieHpR7B477rije/75592BBx6YHBHTE8YTFvOHHXaYm2OOmSvS7uOPP3Z33323OS3EzMnQoUPt6d6sLMinNYh72u1LL72UHBFCVJI5zwwkP7u55prLvOMNGzZ0888/v1tggQXcSiut5G6++Wa3xBJL2KPzcifD++67z8JUzj77bHf44Ye7hRZayITcIoss4jbccEM3btw4N3DgQLf11lu7FVdcMR8qw4CJ+It8+eWXbvjw4W6ppZZy8847rwl4Hn8xuN5+++32XZ06ddxyyy3n5pxzTrtmzJgx7s4773SnnXaa/Q6kyyLgpptucq+88oo9PmOSHz16tFt++eXtHDxcLELwGMe0WNU/99xzbrHFFjN7AAuTDz/80O4/aNAg99Zbb1n5lllmmfz3LDy++uor+xkRSxp49ihDlhEjRrivv/7aLb300lYW4HfKhi3mm28+O/b6669b/rEtiyTyveCCC9qTjWHDhpn3gXqKaSAQ3nzzzbxtsPE777xjdiCtTz/91K5Zdtll8yKbdF999VUrD95z6ojvyQfCgzaC7bgHwp6F1l133WXnkSZQDs4rBiFQTz/9tLvttttM5HNP0lx00UXte7wplAcxnA49wkv68ssvW/vEtoRCcf3CCy/sFl98cUs3lpVykcYtt9ziHnroIfftt99aG6JcQHtgksa2hJ+waMQulAm7kv9S98CWtAHqnL4Sod5Z6GCTjz76yNoNdRJtT14oN+0ha3sgXw8//LDVM/XAtY899pgdZwEbmThxouX31ltvdf/73//c999/b+WjPRSDvJMHbPrEE0+Y15DJGLvHtgu0Wdo0bZs2QBvCptRr7BfAog7vGraj72Ij0uM+hENFeLoS+x7lpn6jjYF6pU/SxrAbdca9+DBOcA+up544l/4Z6zHN77//bukzRqTbDXXKmEE741raLm0Lu5En/qcuyFOsC8QKZaLOqX/Oo3wrrLCCfQ+ki21oI9y3SZMmli6faE9+pp1RJtKhD2Fv6jWCvWkrgwcPNpvTVsk/9bPeeuu5zTbbzM4rp79xDnXH/VhIYjPaRexbWbj3Bx98YPXM/ak/jmGnmCa/kw7n0LZpQ7Qz0o1jTRrOpw0wRvNkiXY899xzW1tn/mDMJY/YiOMR6od2QHmoB8pCf8ImjLXYqG7duvaJ96Veafu0RfKPXXgyy7zFWIv9qRucTKTftGlT98UXX+Tnk+lhU/o6+aJvMlbThqlvxgKg/OSHcYB+SP/A3ulxpJy+RRtljiDv1A22YjzDrtE+tGvuQTqMuYwjtHPmVdrlAw88YG0NW9DuqCPmRZwNlI88ELZKfWBT5iVCTsn7gw8+aO2ZfkudRLAX/SKWn/mJeqbt7LbbblYHQF7oO5xHWpSNe2KnmH/6Ms4Q+gI2o67JY7QVtmNMwD6F2qIQsxRh8CxJGKB8mPz8ySef7MNAkxytnoMPPtiuCyI3OVKVMAn60En9xRdfbL+HjuUbN27s999/f/s9EjqrnReEmP1+5ZVX+jDo+JVXXtlvt912Pogj+z6IXh8GAjsniB47JxI6te/SpYsPYsKHwciHAcuHAdfvtNNOvkWLFslZ3h944IE+TLg+CLHkSK78YWD2jz/+eHLE+zDA+zBoWB4OOOAAv+qqq/qw0LD7QhAclvYmm2zi11xzTUtztdVW80HA2fdZWrdu7cNCyAdBkRzxPkxCPgw6PgzC9nsYlOyezZs39/vss49v1KjRFLY75JBDfBj87Bi2OOecc6ycYaC1Y2FS8UFgWPm33357yzc2CQsX+x6uv/56K8tWW22VL+M111zjwyBtZeDelA8obxiIfVio+HXXXdd+DgN3lfQK0apVK6sf7MOHPGywwQZWTxAGWN+gQQPftWtX+z0SJmUfBl77OUxAPkzuPLKxTxiMrW5jWY8//ngfJhkrx5577umDgPAbb7xx3sZhUvRh8LfvSHOVVVbxYdK0uqa8UOoeYcK162KdQ5hULE3sscYaa1j9YWsox/aUn/yk22mY+H2YCP3aa6+dnOV9WEhZfjkviEBrC/xMmmFSS86aEvoO54dJ0fK4+uqrW32FCdXKA7Sb6667zuzFOdyXcnLeBRdcYOcAbeDYY4+1vkcew6Layk47pM1EJkyY4Fu2bGnf7bXXXj4swK1eDjrooHw7CotnS4O2RZvDdpdffrkPwsnKTnvcdNNNrZ9QzrXWWssH0WXXpvnxxx99mOyrtCXgOPbq1KmTD0LHh0W25YP62WWXXexDWbfddlsfRI5dgz3I00knnWT3J13aVBryz7W0i9g++HTu3Nm+Jw977LGH2YhxCnvTnmhnQdTYORCEotkNGzdr1szszf3I0+mnn56cVV5/C6LL6o5xYr/99rN+1KNHj+TbqlDXQWBa+UiHa0iT/IbFn9kKGF/IF+2R8Xn99de3cxkTCvH+++/bmBeEk42pYVFheQ6i0L4PwtbaQBBY9jswtwShadfE8ff++++3dkN9015oC9QJY3Jkiy228Ntss43ZlvxxX2xMvdDX6ee0qXQfxr70R5geNqX/0LawK/liTFlnnXXse9o0ZaRcjE3ck/zS9iPl9q2ePXvaOfSXHXbYwfLOGBMWQPY9c8GJJ55oZevQoYPv2LGjfR8Evu/du7f1pbRd6F9BJPsg1G18pu0yh5M+dcN39EPS49ywULQ0yFcQ+HZPGDZsmN0Hm1F32II2gB0YI4F+1r59ezuGPZgn+ZnyhkWZnQPXXnuttRXmR/oVZQyLgeRb73fffXer37fffjs5IsSsyxSCnAFlzJgx1qn79+9vnREB9cknnyRnlMfmm29uk1BYUSdHqvLOO+9Yhz3qqKPsdwb9hg0b2oCXhsGbASsK07DyNnEahSfiiMmibdu2ftKkSXaMQTYtyBn46ewMTgzSTJTnnXeeDSZpocNkQ56zgpz7P/bYY/Y7gyVlYyBlcAXSRGQx6SNAOGfHHXe09BHmiAcmHGxbCAQE+U8LcgYdBqLhw4dbegyO5DUKDQbHiRMn2s/RdkxaaUF+1lln+Xr16uVFKnljcon3QZhsueWWdi1pAJMJAzT3oh2QDnln8kUksLAhPywuEPvY4rPPPrPzuA/fU6/PP/+8pVcIbElegPwigBm0o0hBkCNI9913X/s9wiKFtIE80SaZhBHuDPCxXLQPJoQrrrjCRAV5o/0ghOIihomaiZn6vvfee+08hC6TPosEKHUP+gd5iRNMFI9cG9s87Qh7Qjm2f+SRR8pqp4cffrhNlEOGDLGy8aGfMDmfeuqpyVlTgj2oWwTyqFGj7Dr6U/369W1y/fXXX+04ttt5553z7YtyIHyww8cff2zHEDQIDhYQ9Dvs169fP5us06LhkksuMTuxAAfuycIA0YM9gIUWgoC6QAhzDrbH3nfffbe1B+AYZcAeaTGXhkUDeUB0RLgPxwYPHmxpM8nT3hB8EcQieYrpUr+cg0CgPXFd7Ftp6AuIWuqNdkSe43ksNLgvC2PqkjTeeOMNq3MWh/RhzmUhjeBi0c85Y8eONbGGTaIgL7e/sWignuLCjHqJfS0L4xKCkfGHNIF2Sb+jbkeMGGHHnnzySesrsX+SZ/oK9ZGF71h40RcQ5kDZGZvof7Qf8kYecWZgP8ButHEWRbT9jz76yM5hPuA7oC8ihmlzEYQa4+S5555r55EeNiG/7733ntkJO5MnxDrl5HeOTw+b0lZZINO346KRBdeAAQPsZ/LI+EcegL7D/bKOk3L6FsKVeZR6IO+IUhbX2BqoS4Tu3nvvnbfz999/n293lJn5AWFPvmIbxeHEOEHbp+45xvmkQf8YN26cHePzwAMPWD+54YYbLH3mCRYfzIWMsZxDX8QRQJpxvGTMZ7yKYzRgb8Ye2kA8xs8bbrhhvg2Qfhwv4YgjjrB5iXsJMaszRfxJaOxuu+22c23atHFBhNhjMWI3eaRWE8JgYI+VwiSXHKkKx4PQtcdWNaF58+Zuo402sp95HBcmQhcGaXtMGQYmO56Fx29h0Hb77LOP/c+9TzrpJCtjTeERHSEmxA6HQdMeiYbBygUhZo/ceBwaCQOa69u3rz3Oo6xhgk2+qRlcR755NEeYBPfDtmHwSs4oDx4t8vg7DIRmO9Il39guDHTJWc6+Z0ecxo0b2znkPQuPgbkuTFb2GJ/zeCwbBIRdT4hBMQhT4tww6FqYAfXAPcIEkZxRPZwfFl12X9pAmEDzj6CxeRA4LkxEdg/aWJiYrDyEg6ShHoP4tDyHRYC1LeoRit2jELxzQd2Hid/qHcIkmw8zKcf2PJqtrp1iryDc7EVrXpYmHT68rxHElT2CLgVtlkf7nMt19CfS5xFzEAT2GJsxgJe9YvuiHLQH8hrrlUf7jA3kFRtRriCeLLY+QjvlUTqhWuuvv771FeqidevWdj7hYZEgst1FF13kwkLX8oXtsXfHjh3NdkEsmN3WWmstqwtCdgrBI3H6BrGxtAU+hJtQBtodaQdRYW22VatWlic+QZRauoRERcL4aDHr5JfryGMWrqGu+J7/yTPnBfFioWq0qWOOOcbqknPIf1i8W3gc9+URPHVGW4j1GUSXPcan3JFy+xs/ky7jFHng93Q6acLiwN7rIaSQNIFQoOOOO86ujW2JNBhbg+Cz9kf5CDMsNC7QB7AvfY+ykxfS2mabbdyPP/5o4SGESNAmCCmL4z/jGh82AcCOfEd5gyi170mHcgSha9+loW/zwia2pz6wI+2FdoydaA/kOf7Mh5+nh03pR4wfBx98cD6MgxCLILrtZ/JIO6TPYEvsuummm1pfIi9QTt8CwpnWWGMNa+P0DeqEclCnQHmwB6GJ9BfOW2yxxfL2yI5tsY3Ga3mZPSxW7GfO5zzqMSyczQ7cs1mzZtZmCAcCwkXDgsLqnxAuriVENQh2Sz/y0EMP5e1C+YBxiPpmvibPwHeE19CuyH9YaFUJFaKPMfZyLyFmdaYYUWnsDMR0CmJX27VrZ4NkHKTLhUGV84uJZIQSHYzOXBO4hvwxOCFK6MSICCbPYjBYMOCkBSyTSRwIagIDDpMIO44w0MQPW7KRNyaCCBMPn6mFwbBnz56Wf8QB4ovJhPvVBGyErRj0EACkxc43kE6LgZfJtBQMmNiPwTkN5aVOiTUsBhMW7QmBigDefffdbXAv1lZqAvanjhjEmejSdYQYYKGYBttGaBMI1trkg/shQFdaaaXkSFXKsX057XTChAkmnBF26QmOSbZp06Yl7Q5xIk7Dgpb+iG2I0+V+2fpv2LCh1StxqsDiibQQAREm33ReEUSUCSFHX431wI4k1DeCJEJZVl111eS3yXz11VcmtqhLbIbQIa/F+juOAwQaca7cg7aGQETYR4FE3jnObk8xT7vuuqu1nXT7oHwtWrTIi5SagIBDYDZq1KjKGEd9IrgZQ2hniDCEKnlOQx9M37fc/oZwQ+gwPlJm7FBsnEDIAO0mDddjq1jX2IBFBDvc0Gd5p6hYmsRLs8DknGhbPlxLeRGalIP3kShTvAcxyYitHXbYwX7nO+YPFobpdIg1xrZp0n0YFkje9alufJweNh09erTlp5RARLDuu+++tpUpbZr3rCCmWU7fAvoPYwgONMZR5kLeB4jpMCZgdxZeLDhZGEbhXB20UxwYWRD2LFgQ6uSde7OojPdkHCSvq6yyiv0eiYvWCGVk8cB4l4aFGv02OrZYFJA+/X///fc3+woxuzKFIKcjrrbaarb6ZsJiqzF+5sWRtBe1OpZZZhmbaIpdQ4djYmWiT1NKWNPpWWkjavh5jz32sEEm2/mzIJTKpdT9gUmFgQWvKkIhftgCD68WnsfaUure2IkXbLp162aDLhNk/8xWfNXlnRem4kRI/nk5iIGuNkSbpgfZCMeyk2SEyZR64yUtPJR4IA844IAq4nJqwAbkDS91un74sFMQ7bkUhcpTDtEe9J9ClGP7ctop59D2EWxZuHcxu1cH5eZ6RFD8OQvHoygoJ6/UBf0FwZeuh+7du9tLWoibUiAeEC0swBH0iDPEfKGyR5j427dvb15CFhe8EIcI5FgE+yHcqYOYJ55EkCfa47SAe1D2QvWBbWM7i+dVR7R3ofbJsXgfbM0TPLy+eHTxKONFLESxuuYYn9gnEU0IZp48cYx64EkQds1CeQAvdbrOTzvtNBuvyA9pM37hreVFSRaZPEnhGMIXsAltDU9rOp0LLrjA8jItmB42LZUm0CYR9njB8ZQjONNtE8rtW2xNjE1YPPE0m7kw/SSbeqW/8ESBsYY5nLkcgV4bWEQydtMO1l57bXfIIYfY05W0qC6nLaf7RtZO/J62PRqERVtcCLE4ZIEtxOxIYfWQInoQ8B7FwbYcWOkyYBfr/Pfff7+lxyob6IB8sh7MtBcNAT9gwADzJjG4nHDCCeZpwMNXCh4vMpiwQIhw7+zAR1k5lh5U0h5vwGvBeXhAGATTHx6XZ1f85UB6eAXS9s3eF3jsjqect+2xG54KiAMYtkqL8rTtAEHKvdj9oEePHiaEGeBqAwsuJvToyYjgvaUOs16nCJMD4hRhzB+JYlBnsCVfESYSypO1QdYzBpQ9XWYEA95drmfySNcPni4WATUle49C0Ma4Zwx3yVKO7ctpp3jP8eLjZcP+Eeoaj2d1TzYoR7YfIxLwppFu7OtZTxpCBPu3bNnSfqct0k/S9U/a6bzi8cTbSLl5NJ2ti+r6LeEj5I1QFv5ADt5xRFuhxUKEumLhQ12w6GMHFURe2gNN3kmDJzPpPDGW4L2uLek2gj25L17ydLvlHJ7g4IFlYYHN8ehmPX/YMZ1eTfobaZ5yyin2FA3P6PXXX598UxXsTx1m78098Eoi3iL0K+qQHTtYvLBIih72NNiWspOftG35cH18+kN58IbTH9h9hich6QUa3wNPk7LpEDZRUwr14elhU/ofdcfCuxBcR9qUmTAwQuZYbKYpp29RPzyFoD+wOwyLS/oUITdZeJrGYpMwERxktV3Q0JaZe/C680SYxStjbPqJG/dnfMmWP/1Ui77HuICXPDumE/LDuBFDqIA5t3fv3u6pp56yeqAsQsyOVJnZGIiuvfZaExWx8xDniXeAySV2PDoSsbE8PiwGXkBW7nhGEGFRBDDZI07wJvMIihg0YFLCC8y5TBCcz0qYx3lZAUHe4qSMUCAUoRSIMARvXAQwsLG/OmE5aej4PGZHMALlZBBOg7eEJwgMrGnRwoCD5zot5suFwYdJmg/5Yyur9F/ow2aEDzGYMrFgKwamKGL5H48wXhfqkDSIf2TAToPd+PA96ZD/UnVYChYE3BdhHWMfmSTYRRMxhCgqBvfGXvyPkMRzRv1EKB8TG+2OR+DA9lhxARLh/nhEaa+xjSByiL0k3h4vFveJxHCPmlDoHoWgTeDxY4u2KKi5hokSyrF9bKdsFcZ5hdopIWUIAuLNaSeRO++80+KSY8xtMWjf2IcJk/xgY0JpeOTNgoD/EVRMerFOsOUZZ5xhY8C2225rx1hwY5cYq027px7TZWK8wPtHu+TpToTzEdqFFlhpyB+QNjajHyAq0guRQhA2hIeWMYZ+g2iI4SqA1z1up5iGx+2FvL7VQXslj2kRgg3xIlNObBnHhbj1JQsbRDnCBNGJ94+6oMxsV0odpdtquf2NNoFdsRf54h5cVwjygCjlqWNMkwUhbQ7Hwk477WTHEEnYizQR5jGGl/tmQeQTWoLt038oibbM+BjrjrRIH3sT/sf4FecCIA3uhe3STppCi8VywBbci/YfmR425V0JRCk2jW2J+ozzSBwHYpvmfvShNOX0LYjpxDRpQ8yHEfLMopZzmC+pN8ZH0gb+x8bUU1rsV0dsy9QleUw/BedpNfMZ4yD9CcgDDoj0WEzoE+MjZaKMwJjG4oJFBosh8oQeiLZCqJPftO3pSyxqatMmhJjpCB05T+gg9hZ7mEhtmyI+oQPbG9/s4hA6jp3HW+KhY9gbzqVgdwN2cAiDm21/xNvsYQKwt+L5sFtEmHTy6bKLBse5pk2bNrbFUZiY7F5sexg6pr/00kvtHHZ9YHcCzuXtfNIPA6Cl8/DDD9ub35EwCNub2uSDc3njm3LyJnh69wrebmcLJcofBmsrd1hY2Jvf6W0P2T0hDA72ZnwQQLb1UhDz9kZ7GGDtbXR2V2GbrHJglwbKFASR3TcM+JYmx9hlhTRJOwxSdj/qhTyydRVgP7aJCwOVbSHF92Hwtd0SwkSXf3s/DG5WPmx13HHH2TaGbBkWRIHtmgB9+vSxt/mDiLLfI2HQtW314hv73JMdQLAz+WZXAeqCa8OCK7lqSsKEb/nDtocddpjVYxCils8wiSdn5WxCWrQBvud/tt7kXpEwwNvuM9QrO4eQbtyRg10VsAdbtO233352H+qM8kFY9Fke2AEjzZFHHmk7RESK3YPdQKinIUOG2Hm0zbCIsnqhvYQJx/LMlmBQju1pp9R/up2GhYlt18euPhF2jMEOlI92zbnx51jXhWBHA+qLthREgw/i2/oWfeHDZEtOyku/5Djtu127dpbHINBsp4cI9UgbZ3ygLDFN2mcsM1A2+hn3ZZtS2g82pG1jE2B7SdLPtrmwILYdSWhXxxxzjOUX+2FjdiEqRRAKZhPqgl1L0rBrDDsz8T31RPsIixyrzyBq7Jxs/ZaCXSdi2yePXbp0seP0GcYxbMT9qFt+xt7pbdpGjhxptuZ+2Ju6xUbUfVgI2Tnl9jfaFPXA1paxfrNtPEKbPf/8882etFVswRjDPdh5IwgiO48tAMlbEEq2fR51temmm1r5CsGuGvRn0iQfbFfXtGlTG/uDcErO8rZVHmVkGmIsJz9pGNMoH/aijrg39RkEWHJGbjcv6o72GGHsoNyxfQG76ARRam2RfsLuQtPDptiMXZI4B1tiJ9LfeOON7fsxY8bYPYJo9d26dbN+zU4i3D8sWOyccvsW92Gs4Fx2rGF3F8Y76hHoe7Qr+gz9jnGNdOKOZcC9SQObUL/cOyzQ7d7sfpQmCHwrB3MLYwTXkh/uQXuJBFFtNqQNsHtYnEcZ/2J/oh2www/3Jn/0E9oh/f39ZHce5nPSZ2cZ2hDnY8u77rrLvgfGhSDW81s9CjErU4d/ctI857nCS8uqNDRwWwHzFjcxc3gAo1cajwVeZDzafIpB0qzYieNklcyKnZecWB3zyJ1HX3jdiHPjMWgYBGyVj3c3TJYWAsIjZDxseA9DxzYPSRD69siP33nBkZU/XjzOCR3cXjwhVIb4swjHWM2HidbS5CUuvPx4oWJYDfnF2048I+fzaJQXZcgr3pswmNl5rNjxKuB947FtGEjMq4HHhRfTWM0T9xYGN/P0VAd2xguDBx/wzOCJxzOFxwXPADGx2IV0eeyLpxLPGnYCvA94/PAY4KnFLni/yB9l4DzyzSNHHhPjmeYRMfkmTbyuQSSZp4Gy8Tv3jeCtoA5JO+7QEY9hB66jbomLDAKxqAcJaBPYmEeg3Ie6wHNIvZBnoC3iFccm5Iu8cl/qKh17TT3hPaIM1D+eGO6N14Z2zGNOvF+kS/3weJj2Qt1gc/KcbsM8neFlrvRj5EL3oB1Sdsqabhd4s6kD+gjn0oZo4+XYHrhXEBTW/7AH59HvaN+cB7Ff8QSJNhImKetTQczlvZeF4LEvj8mxC2WP5ece6fcwaEt4q6hXbBcmRStHEAZV4rfjo3f6LB4t2m0QYeYRpM0BecWetE3uS5uhXEHYmIeWvkPZoh2C8LPrgGvxMN95553W/ql3PN/0UdpCbCuFIG/UTxAGlm4cuyJ4Jgm/oL5oC7QB8kx/4xq8m9n6LQb5pP0OGDDA2h1PKfDCc5zxhfEqvoRNmSlD+pE8x3nxlXrHVtQj/YhyBvFmdQTl9Df6FOMEYxbjI/VGW6aNFIKxh7bGNXg0aau8qEc4VUwTW/E9bYK8Mu5wDnVdCM4hH4QL0V9Jh3mE/seuPozRQJ/ge9o8ZQjCzo5HKC95Y1ch2hT3CwsVK0+0H+M59yO/sY55Eka61CXjFTD3EGbDmEIZeamcvjI9bEr/5qkT19CXaFfMoTwNAfLG+MeTNMZx2nXMb0yznL5FW2OsoW3RF3giQ5ujrOxWhH0pG+METzjo48SvM5fHOqB/8TSDspNHxmLuzdMa6ipdJ6TNebRTbEFbJl+kwXnpdkq/wvtNHghNou5JMz2P0jeoW8YF6pC5kjmb+mF+AexCGRnvsAP5Z9xkHKLtkjZ9BjuVGvuEmBWoIshnJNyWSZiQFCYjBg0m6hkF92diTAtyIWZnoiCnvzG5CSHErAjzN4t83vvAacNiRohZnapuoxkIK2BW4HgK8IIU2y5OCCGEECKCd5wXS3kaVduNCYSY2aiYII/w6InHgPER2oyEx5I8AhXiv0CDBg0sfIMwESGEmFUhnIgQMTY/qIR2EGJ6ULGQFSGEEEIIIcRM4CEXQgghhBDiv4wEuRBCCCGEEBVEglwIIYQQQogKIkEuhBBCCCFEBZEgF0IIIYQQooJIkAshhBBCCFFBJMiFEEIIIYSoIBLkQgghhBBCVBAJciGEEEIIISqIBLkQQgghhBAVRIJcCCGEEEKICiJBLoQQQgghRAWRIBdCCCGEEKKCSJALIYQQQghRQSTIhRBCCCGEqCAS5EIIIYQQQlQQCXIhhBBCCCEqiAS5EEIIIYQQFUSCXAghhBBCiAoiQV6Av/76y/3yyy/u33//TY4IUZi///5bbUWImRDvvfv111/dn3/+mRwRQoiZFwnyDP/8848755xzXMeOHd3PP/+cHBWzKj/99JM75JBD3GOPPZYcmXbQVk4//XS366672n2EEDMPb7zxhttss82mS98XQohpTUlB/tJLL7lddtnF7b333u6LL75IjpYPguWZZ55xu+++u1t66aXd3HPP7ZZaaim32267uWeffda+n9l477333M0332yCfOGFF06OFuett95yiy22mDvllFOSI2JmAu/1XXfd5V599dXkyLSDNnzttde6Aw44wNqAmLEwfrz99tvu888/N2+omHqK2fTll192iyyyiDv//POTI6V5/PHHbfy85ZZbkiMzlt9//92dccYZbokllnBbbLFFclQIIWZeigpyHsGfdtpp7tFHH3X33HOP++abb5JvymfgwIGuffv27rXXXnMXXXSRGzp0qOvZs6d74YUX7PiDDz6YnDlzwCB+xBFH2AICkTXHHNU/QECIrb/++m7VVVdNjoj/CrTp/fbbz+20007JETEjYbHF04mLL75YgnwaUcym9erVcxtttJFbffXVkyOlWX755e38xo0bJ0dmLE8//bT74IMPXJ8+fdz888+fHBVCiJmXOmHQnWImQ4xfd9117rLLLjPBccEFF7hhw4a5tddeOzmjevAcb7LJJq5Vq1ZuwIAB5iEHbvfhhx+aiJkwYYJ5XlZaaSX7rrbg1fnoo48sXrBRo0bmyakNLDrwpK644oquadOm5tEvBN6j77//3q2yyipunnnmSY5OybfffuvGjRvnFlpoIdewYUM311xzJd8UB9t/+umn7scff7R8LL744sk3OeL3P/zwg6tfv77ZtU6dOsm3k8HO3333nT3ZWHnlld0CCyxgx//44w83ZswYW0gst9xyBa8tF/KC3QG7s4Dhvtjx66+/dk2aNCl7Mozlog6ZxOebb77km8lwzscff2y2WWGFFUwkZOH+tKsvv/zSNWjQwP32229uzTXXdMcdd5wtMNNgn88++8zaC+fOOeecyTeTIT3OYbFGeWIZKd/IkSNNeHC8WFupKdiO9kXZStXPV1995SZOnGhtsNi9ySf1T15pR7SnQotMzsFe3G+ZZZZJjhYm1i/XxDRr04bos7RD4nup79g+C8F4Ee2f7m/0Acak7bff3l111VVTlK2c9kK6Y8eOtWvJR6n+DPQfzp933nnzbX5qYBz55JNP3KKLLmrjYLnpUbbRo0fb+eQjO7bwPe2WNkKdUreF4Dzqgf5GXWKrUjbNEtsD7Qf7MiaVc03so5SZsmfh+/TYWZOxeNKkSW7UqFG2uGjevLmNdVMzzgkhxAwhDI5TECYcv+SSS/pevXr5m2++2YfJ0r/xxhvJt+Vx5pln+jBA+meeeSY5UpUbb7zRh4Hb33TTTcmRqvz888++devWPogoHyZvOxYmD3/NNdf4Zs2a+TAI27Egev3mm2/uw4TiF154Yb/UUkv5ESNG2HeUI4hR369fP/sdSOPkk0/2YbGQHPE+DPy+ffv2PkyyVtYwufmWLVv68ePH2/fc/7zzzvNbbLGFv/fee33dunXtvMcee8yHydQHoWD5ioRJzZ9wwgk+iFGzAeUMk5wPk4TdvxAcD8LJd+zY0Qdh6MMEZGW69NJLkzO8f//9932bNm0sfzHdAw880GwFf//9tz/kkEN8WET5xx9/3IeJ2M7FJsOHD7e8rr/++pZ2mKD8hRdemLdtEEZ+n3328R06dLDfI0F4+VVXXdU/8MAD9nss76233uoPOuggKyP32GuvvXwQuD4svnwQalaGIAJKthvSChOm5W3fffe1fFGmIKB9EAl5W/F/WODZuaRL2bnnMccc48Oka+fAX3/95a+44gr7nrTCRO/79Onjw4TszznnnOQs74MI85dccolfcMEFrc1g57BANPvHe/I9beKOO+6w8/iExaMPCxC/7bbb2j1iW6FOgvgpWLfvvvuutUHskv4+iMwq7SaICGszpBsWCJb2AQcckG/ncMstt/h1113X33bbbXm7Dxw4MPl2MtyHuqBOsCdpYjfabxCoyVneh8WK3ZN7cU/s0LNnT2tHhcDW9Edsxod09957bzuOTemHu+66q/0coVy77757vl2Rt7Do9UFA2X2D4PLLLrusf+ihh/JtkTZHG7j//vt9p06drF9SDtIP4s/SoP3RDzlOvmlzm222mV3P99W1F855++237T6xfsPiygeRa99n4XzqvkWLFpYm6e25557+hhtu8BtvvHFylrfxjnSGDh2aHMnZeZtttvFdu3ZNjuTaYO/eva0M2J4ybrXVVla+YpAm49KwYcOsbJSL8mNz6ps8wgsvvODXWGMN+x4b0xcYE3766Sf7Hsj70Ucf7bt162bf00cY74vZlL662mqr+bvvvtt+B8rVo0cPuz7amDEBGKuaNm3qn3/+efudMZF+csEFF/jLLrvMysz51P8999yTz/vUjMVhsWRpM97RPygDYwB9L92mn3zySX/xxRfnx00hhJgZmEKQM+AdeeSRfvXVVzeBUltBvvPOO/sllljChEohEM0MmIjjQvzwww++YcOGNsDHwZRB+6yzzvL16tUzIU5e+b5x48Y2CSF4mTBef/11O/+dd96xifaiiy6y34E0EBGIpMiQIUP8/vvv75944gn/5ptv+ttvv90G+l122cVEHvc5/vjjbfJgodK3b1+baJg8mcARJ2effbalxbmHH364TVJMcC+99JJNHIgvhAcTVSEQLkxETCaDBg2ySffqq6/2bdu2te8nTpxok/AKK6xgZXzxxRdtUiFPiMlff/3V8rrjjjvaRNqgQQM/ePBg/+CDD5owZ3LkQz6fe+45v/XWW9skjI0AgdCuXTub/NIgQrhHXNTE8tavX99E1rPPPmtpMnG2atXKynnffffZvZkMd9hhB7uuEO+9955NzCuuuKLlG8FB2bHxOuusYyIjnkd5aJOUh7J3797dJm1sTbmpVwQrbYpFCu3huuuus7IjMKIgp374GRtRJgQzIoo2hB2jmDzppJPMPghHRDk2Iz/UPW2FctMn7rzzTkurS5cutqjJgkhgAclCKC0Arr/+ess/9+Yc2jHtg7ZCeREp2A8RGWGxQV+k7dIvuRYBk4V8In4oe//+/W3Bg3DE1ptuumm+jAhe8kBeuCdlojzFBDnii7onTexGf6FeEHekSR8hPfpQhPaCHY877jj7PdYl4wPCfOTIkSZUyWvsG4g/bLrSSitZX8X25JG+zIKT+uYc6puxALFLn3366aft+nLaC/2N9r7hhhvm80Hb+/TTTy2NLIyFiHfGJBYPiDpEIfdPjyXcj77w8MMPJ0dyCxmuZSEXoW3SVhGQ5Jcykl/ylF5kpuG+1D/9hfLQxlk4Ij4PPfRQKxdQRvokYw91Qb2xiKDeItwHm9Nn//e//1l5yEcpm1L31APQRljMMTaQB2xMP2HBAtiU+sIeQJvETvRt+hrtHBGNyGcBQ33C1IzFX375pdUJTh7uzwKa8Sc7f3EOvqhXXnklOSKEEJWniiBH1DA4IwqfeuopO1ZbQb7RRhv5Ro0amZAsBJMvgyoTbCHKEeSIAIQO4hJRk6VcQV6Izp07m+hkIomTABMtkw9pRLKCnImdcuF5SgubRx55xLxI6bykIa8IptNPP93uFyEN7odnibIwcadh8uU492XCioIcEQZcy6IHUYr3M07a1CcTOR5kqKkg33777fPCjokQMYkIwrMN3IdJlDosBpM8aSMS0+0EW+LBZ1Km/NiSMrHginCcOqIMH3zwgeVlyy23tEVH9CpjR9ov9RYFOZ46PP6IyCigOS/drgBBjs3STxEKQbuj/eG5ZlFUiChc8MhGeBJC/0BI0BcQ39R9BPvh1Uy3UwQ5djnjjDOSI4WhrbEgvOqqq5IjuXZA20WU0seB9Gg7cVFWCmxK/R522GH5NgS0LQQ3Hn8WCKSPyIwgAskLdRn7EU9OPv/88+QMb157xBV1AFGQY6PYxhDQeKIRfNHOMU/0gVhH5bYXvMW0FWycLk8xHn300SlsiicfEV1TQc7CDA82i5L0uMWiiXvEvpsFQc73tKeYZ+zCoh2RS9suBE4R2ldcFAF9nTYZPdiRQjaFrCCnv9J+s2XAzlBMkJPPKL6BhQBtBudFMcodiwtBW8dmLBYi9I/zzz+/qL2EEKISVAn2C4O7O/PMM10Y4F2bNm2So7UjDMwWt1cqdq+676sjCFwXBKgLiwd34IEHWvzj1BAGfNsi6/bbb7e4ROJbw8SXfOtshxhi6kvlOUxwVvYg+KrEJIcJ2OJkiTsuRJjALJ51m222qRKDSRphwnNhErE42Gy98OIU1xGvHiFelNh9IK9BxFjMKy9rhYnMjhMvGhYAFr9aG3iRlTQhTNS2m0EQOPmXuLhPECEWx1kK8rfHHntUiZXfYIMNLGaUmHLsz0vBQSRUedcAuwQBbrbh5S3+J16YewYhYOdgx6222qrKbjnEPvPh+jvvvNNePB48eLDVdxBKVneRINDdPvvsUzAmlthcdpIgDWKZaSuhPyXfVoU6pW/RNoBrX3zxRdvJJwhRiwUmdh5bkR8+QUCYbdL1CtiVeizFiBEjLEY7CNjkSM7OQTyZXYM4tmPrrLOOnbf//vvbzhqloN0St44tyVvMJ2Wh/WG/tdZay2KIgwhKrnLu3nvvtXqjvWAj6jKIYjsnphEWmRbD/MorryRX5dhwww3zccGUm3aNnchzMcptL9yPPklZGPOqa6dh0WL3bd26dXLEWWw2faumELMdFrrWvtgBKNqBvkgbIna6GJSDMS/2Y+xDHqgHypaG/nD//fdbOwXep0jDi+i0gdpA7HZYTNpcQZuKkL9ShIWr1U2EdsF7MLxLlGZqxmLOYzzFtuwUBlwfCQsj171791q/aySEENODKkqDAYzJAoHEi1TvvfeevRD277//2mSBkCmXRRdd1CbP7CQRQfwwcDIp1RYG427dutle0EzqiEz2nGZyqglMjrzEtPLKK7uTTjrJXXPNNQWFM/crJM4iTKbcm0mS8qdBvCICEGaFYNJhki00SSAE+H6xxRab4v6cz33TIoV8picq0s1OXLEs1G1tSKfHz4Um4vREXYps3hZaaCE7hjgmf4glypktOzbmGDal/LQ1BGOpOqJN0u6YqK+//vr8BxHHnsVxkQGFyvX++++bwEZUnHjiiXYtfaUUCKYmTZrYbkXcm/8RCCwiuQflow4Rqek88fJgu3btklRycH6p8gFthXJgxzT8jhhmAQEsfG666Sa7N3lEsPLyNr9nIU3qA5GUziPidtNNN7UFVd26dW2HIsQQ4wV2YUelgw46yOqPusT+CLkbb7wxn0a/fv3sxcT0AgIoK59IdeWGctsLbfPKK6+0OqC/s5js0aNH0UU9x+lHLKqnFsY+6p9dp9K25HcW3IxjpUjbhJ8pK+0/1tuTTz5pLzNSp7169bI6LjTuYIt0WjUh9iMW4jVJI3su9qStxvxNzVjMwpDy8hIo2/WyKQELwvQiWwghZlaqjGgPP/ywTdYIcgZ0PqeeeqoNdJ06dTKPXrngKWUSKybi2YWFAR2vWjEYdNNCE7ICEpHBfrPvvvuuO+qoo2xHl2OPPTb5Nkf2mqzguPzyy83LzuDN4I8nsyZljZBf8kO5mHTTYEM+WaEewavLxFHIU8fEw8RFmtmyUF98X674LQZ551OdraYH2XvQbsgHCxjyxISNAChUdo5FoYVgwkbZ9NK/kybn4RVmEYcIih+eQrDoKQb1yk4tb7zxhgl62sozzzxjgrQUpInw45rXX3/d3XrrreaZZGcIQCRTThaW6fzwoU3WFNoKecVmafjjRQifZZdd1n5n4ciTHPJ19913Wx86/PDDp7gOaNcsTgrlka1REUHUAduFcm+eOjz00ENme8YO4HvqkrGBxUc6DeoCATa1lNteAI87ohyPNE9S2OqPfBeCdkP/LCRs03B/SN8bG6TbIPVNGzzssMOq2IAP7Sk+3SoH0mWxRP/HvuxOwlMdfufJC08dqAcWS9MSbEx74N7pstUUxjtsGutkasZi+ta5555rT4JYEA4fPty2PYxPWYQQYmamiiDnjz4wIaQ/PNpjMsKjhScLEMkM9tlHoGnwtiFA8c5kRTXbXeG9YMs4tkYsBIM9ExePRqOHg/vFx/5ZELRnn322PUKNHhXyTTrpR8AsELKPR998803zyKQnwtr+5cX11lvPyovASU9UbMNF/lu2bJkcqQqLHyZp9s+Nkzn/85SCyY/H90wyeB/T4NGk7IQKTA3YiUmbCT2WHbvffPPNJet5asFG9913X5UFDOKMsiPcEBYIVx6/pxd32JhH8Yjd1VZbzSZdbIAHO4om0kAsphc5nINXjzqvqeeM8wmj4X54vIF7VCfSAFFBe+7du7eFP2y33XbJN87ELPkv5AmsDc2aNTO7Ikgi/I5nnv/xQKZByO2www6ua9euFpZS6KkW4R3YGptn+3Ma+hFhCP3797dwHvJCaAdQl4RJ0P+jl35qQPySd8aZ2NfKbS9pWGww9vEddVMIPOjcC9EXwVbZMJvomWfLwQhtcvz48clvuS1CsQmLEhYvNYFycF2sA+qKECXSY7wjTzyBwENMOBTQPtMhG6UoZNNCMHZjrxiiB5yPh7sUOGLIX4S+zu88nYKpGYsZH7Enf+OCMgALs2w5GGuok1LtWAghZjRVBDkDITHJ6Q+iiMENwbh68kchEIFMtKX+OuXWW29tnvYbbrjBHlkzifD4GqHKgMkg3Ldv3/z+5FkQodwTUcHkzmNYYgbT4QGE0zDx4E1BqOLhZEJFFAPhMEy+3BNxwISMZzQ7EHMfhBbijevxspBW9HbVBMQIIQ3s4XvFFVeYrbj3McccYyIO4VMIBA/7//KIlrhWJjr2f+/cubPZ/8gjjzQhifcLARu/HzRokOvSpUuVeNnagCBnb3gmdPbs5q9Q8viX9KmL6Qnt4uCDD7Z7svDDq0WoBvZgkYJ3mUmVsuPto+wsFIcMGWJhI4gD8kj+CfNgYYa3kb30qct0/hFMHTp0sLqmjhBUtB3SZZGIECkGeaGPENZFHhDQl1xyiQmi6kAw8TSIsDBEAwvWCO0CDy19hQUs4TOkSfwvx2oKoR+kSfugLWFfQiLOO+88WwjEuGfql+MsUCkPC/BoyyzkH/viQeavk5JH7EZbJJ24aKOtEqNLKAvpEu8c06ON4UFHwCH+WXwiwKirq6++2hafNYH6YBHJfcg75Sy3vbAo4I+AMSYgshkjEGq0uUKwkGYxR58mbIcP4xEOgzSEMhG+g12J1ae+yQ8LhQj9mGN8j+2wI/bkCSVP+6p7Fwb7s4BAzF544YX2xAavMAs+xjzeNaF9x3Qpe7mCvJBNC4EY32KLLew+jFnYmL/KSTsuBYKd6x588EH3wAMP2NNMFij89WaYmrGYUB8WttQ5DhDqiDCk7MKbfsB4y+JACCFmGsLEVZIgJm0HBLY5iwQhYjuxsO1eKSZNmmS7W4SJwrbdCpOS7VzBlnZsTfhviTfk+Y7dAdgyjmu4tmPHjrZrA1v/TZw40dJnuzm+C5O+3YOdDMLEmk+DXUHY6SOmwQ4MYQLxQRzZOcBWZ/weJiPLK3sfs50WuwhwnyDgbWeLsDix3V/ShAnGtnfkjf9IELW240e8J/+zQwS7kRQrM8fZoSRdXnY1CBN6/vswAfuwgKliy7Aoyu8WEiYeswdbuaUJk5vtIIItImHSt/Kxp2+E69n7mmaBLdgZgh1A2I0iCDs7p1B5gxiz8rHjQhp28QgCJfltSuLODew8w77w3JMybbDBBlX2Y6bsYXK17c9i2alv8v5HaocHfj7qqKMsDdLifK4jPfISCaLbB2Fm54QJ3NIizSDg8rt60G6pb3Z2iJAPdgQJosHOp61QZnZHCQsx/2uRXVaAa4NIs/uxb3Ssswg2ZPefIDwsP5zHPajfCNcvuuiiVeqxENyLNh0WppYe6VDWsEDO7yID7OVNGeK92E4vCDG7vhC0/SCk7dyYR/5ny71oN6DNsMsJ/TS7LSNpB6Fn4wd54nr+DwudfLnYgSWI3/yOHkDbZEcm9vP/JbWXOP2UNkEacYcgjlfXXhgj2GOb72Me2As/jh1ZSBPbhIVJ/n7kJwjJKruscB5b94WFn523wAIL+CCgzfaMXxHaCjvUpO3I/+xMFMuXJQjN/FaJjMnkgbbOzjfR/tw/iGOzL2lyPv2LLT3ZnSXCLkls/8cYmqaYTen3jD3sgQ+cR3ug/cc2Rv6DgLbvg5i2PMbduuIuK2yVSnvhXO5BHYUFmZ0DUzMWU7fsJBXLTV0NHDjQ8h3HUWD/ddKOO0IJIcTMQMG/1Dmt4ZEjnhEer+IdwpsbBtzk29LgecNzRlgGj42znpIwMZhHBW85cYgxzCENj8fxauK5whtTyNtC3rhPmODssXqYMJJvagdmpcw8CaDMeFbDBJR8Wxw8tHgX8erg5cSjmyZ+T37xCPGEoVB5agv3JRyJ+2DvuGPJ9IDHxjxRwMscxKjZn7rjvoXsz+Nn8kYeCfOIj+TT8PSDpyi0OewXY1Oz0G7wkuLhpF7wKrJzQznENhkmdWsrtJlpAXkivIp8BVFh/QRvZW3BK0q7J2SHdkJ7SeeVNspLyIR3YINy6ptrYh6pKzzCtO+aQhgFeaNOqUfKmu235UKoAvmhTeDJj1TXXjhOW2FHD67jnOrgXJ7CxLEELzk75nAsDU+aGJewealwsnge9sdzX6o/40Fnhx086zxtoWx4qslHemyhjtidh3qlTVNHNR0jitk0Czak7PS3UuMRseY8ZeDpJU/dyDv1Q5sjZCjN1I7FlJtxl/5PPaWhvxPWuNdee9nTiHLGZCGEmBHMEEEuRCHSgpyQFSFmJRg6991334KCfHqQFuRTuy3tjCYtyNnKsBKw4D3rrLMsHIZwnOnpbBBCiJoybVx7QgghxEwMCyi2+mSXo2mxfaUQQkxL5CEXFYNH1rxoxw4yPFYXYlaDFycJg+BF4ekNYXlsCchLs1MTylQJeJGZlzN56TT9x5WEEELkkCAXQgghhBCigihkRQghhBBCiAoiQS6EEEIIIUQFkSAXQgghhBCigkiQCyGEEEIIUUEkyIUQQgghhKggEuRCCCGEEEJUEAlyIYQQQgghKogEuRBCCCGEEBVEglwIIYQQQogKIkEuhBBCCCFEBZEgF0IIIYQQooJIkAshhBBCCFFBJMiFEEIIIYSoIBLkQgghhBBCVBAJciGEEEIIISqIBLkQQgghhBAVRIJcCCGEEEKICiJBLoQQQgghRAWRIBdCCCGEEKKCSJAX4JNPPnGDBw92kyZNSo4IUZjx48e722+/3f3666/JESH+396dQOtejX8A//mTmQxJUZKEkiEqN0rdJkmlWYoGmkiD5omoVBSVUkqkwlqFBhGiqBAlmcoUyVCGa8yyKPz++/P07uN3ft733HPuPXUuPd+13u55f8Pez37mZ+/97hKJRCKRmBrGJeRt2zY//vGPm4suuqi58MILx31uvvnmwVNTw5133tl87nOfa4455pjm4IMPbo4++ujmsssui+sLIu64445mm222aT760Y8OrkyM3/zmN81b3vKW5vOf//zgSmJBwq9//evmSU96UnPCCScMrkwfbr/99mb99ddvPvOZzzT3v//9B1fvHVx88cVhU3/+858HVxKJpvnKV77SvOlNb2p+/vOfD67MGz784Q83xx13XPPXv/51cCWR+O/F6aef3jzmMY8ZfLvvwsTRscce23ziE59o/vWvfw2uzhym6q9++MMfNiuvvHLzqEc9qtl8882bG264odlpp52avffee4EYz3yjJOFj+Mc//tG+9rWvbUty0T7ykY9sF1544bHP4Ycf3v7zn/8cPDk5lGSoXXfddduFFlqoXXzxxdulllqqffzjHx/tv+QlL2nnzJkzeHLBgPGdfPLJ7TOe8Yz2F7/4xeDqxLjmmmvaohztnnvuObiSWJDwy1/+sn30ox/dHnnkkYMr04dSiLXLLLPMpHVlusBON9xww3aRRRZpb7zxxsHVRKJtS3AL333ZZZcNrowGf3fWWWeF7yqJ9+Bq2951113t6quvHr761ltvHVxN3NO49tpr2+2337697bbbBlcS04UTTzyxfeADHzj4dt/FzTff3C666KLtpptu2t55552DqzOHqfgrIEc5Jb+0zjrrtA972MPaUmi1pcAYPPHfjfv5zyA3b4qDjmrjm9/8ZnP22Wc3D3rQgwZ3mqYIsSmJzeDb3PGnP/2p2XjjjaOt97znPc16663XFObFjJ4l/oMOOiiunX/++c1DHvKQwVszi5LoBD3PfvazmxVWWGFwdWL87W9/a37wgx80iy22WFMC2OBqYkFBCW4hy3322ac57LDDBlenBx//+Meb5ZdfvikFXHO/+91vcPXeQSk0mj/+8Y/N05/+9OYBD3jA4Grivo45c+bENqqnPe1pzUMf+tDB1eHg73fbbbfmC1/4QvONb3yjKYFxcOfubXtmx+nXvb36c1/Fhz70oWbXXXdtrrnmmohBienDSSed1BxwwAHN3//+98GV+ybY/Pe///2YYX7CE55wr8etPqbir+BXv/pV+KWll166+ctf/tLccsstzcMf/vDmyU9+cvN///ffvwP7/m+x32IAubmlDIFeAiPJXGSRReIz1aTZNpdSzTRHHXVUOH3JeKlQm0c84hHNC17wgkgozjvvvGbttdcOZvYhORYoMP9xj3vcmOLYOnPdddfFNgSBwnNXXnll8773vS+22tiioD30EpjtMgsttNC4YuLb3/52c9NNN4VQgZFee+21zQUXXNB861vfimUR7dY+8IUSe4fSvPe9741nBSvfv/Od78S46pKYpRPPGt8555zTfPnLX44tOksuueSEyRNj+epXv9q8//3vj2RPUHzsYx87Rrvk/6qrropiyZaaSs/iiy8e99EpsOKt6+eee244eUq/1FJLxVhsr0C/58hX+4BmfKXgxl1hH73tOORnjJa8fH/wgx8c25tOPfXUkBOjQAeD+cAHPhB78BVlZEHuw6CtL37xi6Ff3/3ud5szzjgj9E+fZNPlFT244oorYuwf+9jHQg/06d2uU0G/Zz7ykY/EMhiZfPCDH2xWXXXV5sUvfvHgqbufQyP5fO1rXwsdeeITnzhm1IosMnf95JNPbj796U9HkMRDMlK4KTY9g+9kOypxIVf8PvPMM0Nu+KZ44xTrfTpEVj433nhjjE0RPMph4jM5Vx39wx/+0Fx++eUhz1oEk5N7SyyxxBhtZHLJJZcELfhJBnTDOIHtu0+GtpaRBbmS989+9rNYYpS40S0fTp0e0W+6qV12iPeue5Ytoc12MOOuYzLuq6++OrZ94T3oA4/OOuus6Av0UXWBTbBV9k1f2CFdqXpcUW3BtiK0k5c26Rkaqq2izTV6RxeMGQ/wpE5I4BEd945xvPvd74732D/b4mPIjV5+73vfaxZeeOFxPqsP7dN720LQhc5qx/UdOkKPtcsn4SN+AlnzD/yEdvCxBqTf/e53YRv0sdJPv/nH6lOqrn72s5+NDz3y/k9+8pPwNXTv1ltvbX77298GH9A0yv9VHe5CO5/61KeCn/iqKMZz/mMYT6qPca/KBdCK9qc+9anxvavj119/fXPKKaeELniHH8AztNE/+oj2ifxt9Sl0HZ1sCo/RKXYMo0m7dMHEUpXHZH0JGVa50TnPVP6JEcZmPMsss0zoLRlVvf7973/ffPKTnwxf5l/30UXXhvEU2AAZVnvmw4yRXzFGoDtf+tKX4jl2VsFPoIc+8P3DIG6yX22L9+SMXmMSq6qf5Is91/eT+jRussNT9uw5fdaYBt6jj9rS19e//vXgLf5X+fKZ1X+K72g2zioDcmGntkfAVOir/o69oqvKvULs/NGPfhQ6z2YvvfTS4DP5juId0As+Sf/oxzc0aw9tElVtVPmybXyqek12fD3e0z336C1/351M7cIY6Z77fNRdd90V+RNZsgf8pcs1Z+A7oeY09A+P6TN6a/x1XwyrOQc/yEcbDzr1ged8zbve9a4Y7/Oe97zwhX1/xbbkKeyEP0YX3XSf3+UP8Yydaw+PusWFMfJBbA29fCS+1Di2QKMQP4Yy2HaHHXZoZ82aNW4Jc16w8847t8Wxt0UwgyvjUZxdLCEde+yxgyvjUQQV2wF22WWXoAuK0NsjjjgillyKwsS1ErzbIvh2tdVWC9qLYNqiFHGvKF7QcNxxx8V30IZlweLkB1fubqMIuy2Bvd1kk03akuTENpvTTjst7heFavfbb7922WWXbZ///OfHUm6p6NoSzNqSvMeSS3dLhOWX4vCCLs8XxxnbdF71qle1RfEHT40HumyXwRNbhJ75zGe2xejakgQOnmjbfffdN9ox/uc+97lBYzH4tiQCcd9SM/pL4hn3i+Non/KUp7RFUds3vvGN7f777x90Lbfccm1xVNF2lXMxllgCKsVSfK8oih3jK4Ya3+t4t9xyyxifttBQFL0tTqEthhWfYiTRryWpUShG3RanELRpg0yKgce4Dz300OAJkH/dSlWMql1xxRWDT/hakrZ4BixjFScSY1t++eWDPjLzb1c+xaBDhviz0047tausskrIvySxY30eeOCB7XOe85x2rbXWiufQVpx6e8IJJwTffd9oo41inOiylFbf7YOu4w+6jaMkP+1BBx00uNu2JVCGnqL59a9/fei9sZUCafDEfwJ9dL0ks/G9JMPRx3bbbdeWpClkS06ulQAez4D28W6zzTaLZUu8qf3QzZe97GUhN3qDl8Z28MEHx/2S7IT+4ElxxsEDPCMf48FDOsS+9I33JXEIvqy88spBUwn00RZU3arbvWxxK0letI1P9Bivuz7ipJNOCnmst9568RxdKwFgcPff6NqCNkuQD/7SDd9LchfP3XDDDWFvbMrYn/WsZ8X4t9lmm2gD6Cm95AOM3zjwme3wO8ZdCr72pS99afDTMyUpiHf70OaOO+4YMigBKfqk+2RWglY8UxLLoAf/8WGllVZqX/7yl8c9vmjrrbeO97faaqt24403Dj2oW0vISFslyY/v9AI9dE+/dOvtb397Wwqm0DEhwMeY2R1dhFe/+tXhD/nhifxfHyWJCf+JBrqw5pprRrv4VAqbwVPjYRmd/vPtXZTAHXKrqDrOj+IZ+/Qdr/jwaqdkRW9KMB68ORx77bVXPEdu2kQzOfKFJfkJ/lser3oAtojRWf4JpuJLbDMjC/qH33x8SbTjmbXXXntMFlUeRx99dNyjq+iqdln9t7FOtL2F7MiLDduG6Xlt+5f8oSQq7QorrBC0dWErJl0uyfzgyn/imGOOCdkav7Hoh8xhMn6yJLAhO3wjR+PSHruu+gsluQ3d0564VpL+oK0ky3G/FBShy/RVvoAW7V188cVxH/pbVqZCH92gn2ynm0tUkKG++RFbccVQfPb3qG0h7EQc0C8bJye8Y2ulQG1nz54dvsvfFaWgiHHxqVB9F93jB6pedGNLH+RNr6vPRTse8C/GynZ96Npuu+0WzwC9x3dy2HXXXUNnxJA6PrGRDNglX4NfvpeiY6wPvo7t8B18mljQ91fAtxoHnuKRv/mCyfhO0GcpSsb0hX80ng022GAcPxdEDE3IObQtttgiHP8+++wTCQVFmQo4GEypCUMfkmXM3GOPPQZXxoMzIRCJfTchf+tb3xpJnIRcAkFpKXJVjFJdxbtQ+3jHO94R30Ebgg3jqpAYlIp0rA0OkFFRcAps7JJhirHGGmuEE9SO6xJUTrYGE46csgrapWqOa9rARwZ/wQUXxLU+JCPGy4hrsqCf8847L/4u1W/0I4jccccd0b8gjE5JiX3MFJZhcmoSL+14VpuUWLBQIOGnYsO1Twz2XglCEi2JUxd4w7hKtRrf63j1eemll0af9j66xjnggz45HEHIZxTQQj7eU1QYE5oZjuvk55rAyugEAEmQa6Uaj8BGRnTBmF73utdFAMcrz3BcHA3nWBNy4xSAGWoNZq4pMLRXE8YDDjgg5L3++usHTWRd+6UrVSf1bYx959kF2Ssk6l5zekZPgLOSBHIu9Zr+XvSiF4Vs6c4woI8jrvbFIRmnMfgbvZJCwc3YQEJE79FTxyPYodvfkgh8PvPMM0OunhH08BPojD44Q0mjdzxz0003hc847LDDxpIXTtGYFVt4dcghh4RMr7/++rgP5EoHFbBoUCBImn/605/GfXIRrASQWoALmOyIrtIx/fv0UW2BI+bg2Rc6zj///AjmilPvaVf/lc98Cp+DD9V+6SkbQP9FF10U49aWPgTtSi9oS9A8/vjjB1fGQ59XX311tKkdkPBLaurkA1vrFkqeq3KWvAp0dbLAPTKsfHfdu/js2ite8YoIkHUigP3UJJA+CHCSPLZSbQskIfheE/JR/q8PcpTUVzsyHkU5/0BPhsGY8Jtv7+Kd73xn+IaKquOSS0mY/iVd6GL3p556atgWeUh06MgoSO69c8opp8Q7xoPf9FjBAmITuiQjFaeffnoEerRMxZfQQ0UeOaL7jDPOCN0/++yz4xk0mPTQH39KNnjnw4bw4cILL4zv3ldku7btttuOyb4Lz0m66nvecY2+GvdrXvOaeI/eS2D53C4k5AqLGh/6EHvY9+abbx7+Cv/wvSbBk/GTxoCXL3zhC8MGoP4mi74BGmtOQmb6wRt0KSrwUwxAv9gP+hLH6GpFPyGfLH3eEc+rv6vPd0HmkuWad6DZb+6qHQ4D+RtTLaS9U+OD/tHudxyVFuBb0FMTcjTjif6hxnpJbKWlD/KWcL/hDW+I73yBmMA+8YgPqO2woQp+hW7iG6CX38ETbeARO5AvuCaWmRhFY+2DPonD6MVHz3X9FeA5P3vUUUfFc/oRfy6//PLQ4bn5TjqgeFUAKFg8h4d8if5N6NR3F0SM23RTnEZTKrWmMDb+tv3DMk0RTvzivjBk8OTcUYQaywPF4AZXxqMoViwnFQUYXJk6vF+UJJYMiyIEfUWxYhlvKiiJcGyj0V5R2Pi3JNSxZNWlT9tFgWLpA38814flv6IkTQkuY0utRcFib35RvFg+GQZLT5ZfSjIwtoypn6222irGZSm2VJfRbkkOov9iWHEiDDkVw453oASD2GahHc/6NTJa/dLcfueS0DQlUY17xcAGb00NxaE3JRjF0pn9X5aMStUbS4LaLc6mWXPNNYOHEwFdb37zm4NGY0JzSQZiecvSYzHIWHoqzqEpRUbw0HPFATQlWQteFwON521xKMltM2vWrHimJKyxdxDfKkrwiOXuddddN3SnBM14d/bs2cF/f1cUA27e9ra3BU3orP3SFSiBYUwO2h1lH+yAXtkKVQJv2ERJquKepUnXjY1c0KNN9FmaQ9Nk4X28LEEl6C2BNpYFLafW++yOrtEZKM4s6MNnS60lCQudI1dtlGAZcqxAu11uJYkLOj1jud+4SvIXPDGGEvRD/y3Ba9tpNHjb1X9LyGRUAmEs8VpyLcV18LvKBS0l6Mav6SuK34r9oHRM/z6jwBYsfS666KIx/s022yzosiTKti2x4zW98l2f6PFvCWqDVu7usxTyzUYbbRTj1hYelUQg5G/8fB47wGM0DwNaV1tttaCrBJDQC/7KWLxTgsXY0izbrP7H8jLgv34twZdAF7SQoWt9uMf3kDUbIQfjJBvQj3F4ji1U2xqFyfg/ukTWni2BMPRBPCkFQSy5zy/Qy8eUgjX6X2WVVUJfyKUU5MEfOkxvbX8aBjy2hcd79AuPLZMvu+yysV3E1g7gI8mh6iz7tlWHD2VXU/El5Gep3r/o1rb+q22i2wfIRXvGioclEYuTJfhb17xfCvjotyQwQ3XNtRq7N9lkk3jHu7aIot0+dW3PK2zPMF6yMA76gO9+NwaT9ZPo4mPZA/DfnuMPwDicKGW8JUEd01XytjUD/8T+DTfcMOSKJrZg3LZYjMJk6WP3pSCKHMEzeNgHefFb4gye0idbJLUzyg8Yg+fYsXfQLMZNBXwXntAbYzB+em8M9HkqwK+99torfID4LQZ3/Z8x8h+2u7Bl9PI7eILPPuJx5ZP4pg00VsgtnbTX9TtdsDVbeNiIU1M8px/xpxTXoStz8522wuCp32LUPJZPkn8tueSS4feNY0HFOI9qwKVyikBpb5U9ZNddd10kWvYKT0XIVYAYNwwCGAYS/ryCsBz9pi2CkhDYjzlVMBz7sBg5hWaokkDG6FOBVgnERBD4KEBNxis4LUZ42223Da6MB8dCSfvvAQOQtAmE/WKDE0F/DdxQnXYFo/AdvyrQKHHgwOYFXcfEIWiv76z0Oxnl7+sAw0ErfaM/eCahQm8X9r0a1+233x79cCCCQnecaOvSxdFzXuecc04k7vUjKOiLTlbgNVq6cJ9ucGCcLn0RsLt60scOO+wQwWPTTTeNgMWuaj/2EdJfdtelR+JD7t2gPhl05e5vQaLaIJsUXOyXRLe/58yZE/c8gzf0u8/nLvC2HzgkJfRPslvpFyjYomBjrCuuuGIEQfusjYusFK+SBQ5VEHHd/sUuH/z+xPWu70EDfk4GxtLVB7pApvpHG7mh/5WvfGXwRJ90Ac1dmeKlMXT5C9o44ogjogjyrkRLoJhIH4xHoShx884aa6wR+yjrO5J8n9133z0CkX2QdASMW1Czh9K7/q4y7MNYFWj4iz68tme6q+NTwWT8H5ggEZzpABrpGXQTnflBVwZ0ugbuLvgefB4G1/lbfqXKrX4kHAorkBzyuRJiUPwroOkkXkzFl6C5Szd6faptjgK5K7z4+f4YJSZodb8POkHHl1tuucGVu6ENOuTe/CQminq+BV3DYOyT8ZMSpu648Ig8K+8UcWxfETQM9lnjIZ53ZeC3LKPkD5Oljw2ZcOonj114h26YpFIo6p+O4O8onRcLFEeKfP8qnuamC33o1ySGyazqu+RpMFUb78fu7iQW8EfyIomt4oMfr32wI3KTjE8EfrffTxd0XXFlUsNEwjDMzXf67RJaFNZdyANq4j5dfuiewPjo0gMlZLwqFIYxFQPmyCR7o5J4MwgE0GdcH30D6cNslsBuZtmMolkDM3ZTgR+RCchA4Q455JCYeZkq0Mqo8K3rfLvoO9WKiYxRu5R/IqcwL/cmemeqGNbW/LRvzJWHxj6Kn1B56h2fifqtz9CTQw89dOzjbFZJTp25HgZ0SJS32267CMhVV/pBrw8zbwK5fjgEM4gnnnhi3OMcJI30t0vP8ccfHz9aqTNH0wU0o4VDk/wqts0qwFSdeAXdxQ8/BK/0O9HGqo6VGsWa+7vsskusepjtNhvPNxg32ZIJ8DVdPkh2/TiavKYL+tKnjx+ICTCSSD7A6U+S6snormRIMPQDWv7CrM6ee+4Z4x0FPtRzEmVJhkLswAMPHJfomsE2IYJ/inh88xygeY899ogfHJo19YzTqkbNBitQTbDoQ/KiIPTDrXsKAqLgregzo6vfbbfddnB3+kFOU/U95M/u8Lyraz746QOSerrAXiQdZmrJ1sQNzI8vGUV3H7WPUf6v6nEfxje39ybT/zBolx6Pen9e/eQw1HFM1BdY6ejKwIo+GQzDdNIHdINO0BNFr9W7HXfccWSsB3bN//IdkkU08AvdCRjjngj622KLLaL4ktjXk+vuCZgN53Os8qDL7Pd+++0XelBznvmFdslmVFuT8Z012R7VxkQFwYKA0VnOAJhUl1SmwnTLYmaKVNLDYEYa81V2w6AvzKOgXcXszxh6TpWuQhboVWlHHnlk3PO++9139NlvwzKJAkKVKqBSblXxVKEvs7b4VZciK8xImEUUIIdB9Uixu1tPKhisWUkzwf0Zbc+TjSXi+QHa9dPnTZ3hvCfRL0ZUya4JiGSosjUbVWcJKyRRdKPOqKuqOcdue/7u0q9Ny3L4absPx1I/Zi0mmh1WnXPyZnqrrmhj1CxRF2YcODAzGmZkzOAAfUWfxLhLi4/kyWzRdIKc2ab+Fa62FJkBxGcJhO9TKbzB1hh8lpj0x8C+a1IguSEjgUj/imnvAv7QP7Mj/TYEnXnV777uotPpHVZc6IETKMxy2tbCuQvSZl7waW6gp1deeWUEBrM2igsBeSId0pdiBC8kfmbStt5661hB60IbaLHEaoZZgl5BVmafzcy6b4aIPo6CsZpJt03Be4cffvjgzr/R9bHzA0Wk4oCMFVPbb799zPJPBOOhI3xNF3WmerqBt3yGPhVUfX1ji4AuS9/8Nv46kcZWRvyE+fElw1B1risLNkH3+fmuXwOra2y2bmfqQlHH1vrbNrShaOJT0YcHfGd3hRV8H6UT6BQfxSIxqY/58ZN9sAvjcILOMEgUycnxs13++9jmMgzTSR8oeOm8U2Js4bEiKjGufm8UjMusukSXjfMHZIq/ZCLedWXQtw+nDIkPZqv33Xff8Be2adxT0Bcfh16TF46vZqPsQSKs4J8f0HV5GJ0atroxGd9Zaenri5imcGGreLugYpzGmLG66qqrxhIfwUwVZp+a6pECgYBGkeynGwXL1xyWylObNTBitCrr3HPPjZkfy4LDQDiYawZLkuD9enxTBQG5RlEpMQdDaeoMlS0HnFk93o2gBF7737pgOO5xVgyAUXT3uk4FllA4CUUBxwecG+OhFGaNhsEMGydpn3cNRBJO1XYNzhRK4VENkxwcs1T3Ps4P8Jss9MnB4IPtNwyv76ynE+Sq4iVHMEbJmkAjcURXnQEkOzxEm0KPA7TkTDfJnTOySmIWFuydZbTdIkbw8jydrvKBasT+HQU65tN9xjtz24dvBYf+eRedgrh/QcLKSdh61d1vqDCih6OC4rwAb9kz0Hl01ICMz2anjcdSrjH6+Lsug44CB6kdz3WTeUvpnHQdA/227UNyaZ8fW8AT4IjdY5uWf7ug5/3EerKgw7ZP1L2hdIiOc+R1/GiodFsJNBM6mf4q7fylv42Tr5mMvdRg6+NotW4w4/MUlkA2ZvFqEFEE4B36JCJ8sjGYceuDr6Xn9B99ZGzM1T+6pm1+H3+mA2gxJvqrfTSYfJkIkkfyF2zr3mEJk1WiewJ4qVBgb1aqarwD17q/ezETZ+8r/823iGs10Z4fXzIMdXsZGVebIS9bBehE3VJB9mKvQtpMrDjbh8LWdgwFm493fNiXLVpsjx74KIqNjV5VfRTfu3zpoxaeii7xyntW2nwnd5/u+CfjJ4fBOPh4Nqmg1I/+/J+X+XkriOKtArCrw/g4bHILppM+qD6k5iHsySRf1xd2QQ6SWrsEPM8u2W/1w/5VHKCJ/wJjVVR3oV9jqP6HDs7N1uYV4gbfWOmll+j0XWFDTn6XUVfqJNVyF7o8WdCnLbfcMvhS7RKv9I1fFRP5TgWz3zehRRzxDB/kqFo+1bbm6ksXSBSCx+DX7kW54/gbp6QURscv2JdYYon4dWuF465KQjH2S91R8Avgolhx6oe2SsCP9osTiNMv/jLiBAkogmgLE6Of4qzjZIeSpMWpAOgryUX8XxhLMhOnBGy11Vbx6/vi1MaOASxGGacpFAWKEwP8mhw9JUmLX+FWFOcfv/QtyVG7++67xy+CK63FQcevex37hQ9+MdyFU0f02T1Wrxhj/GoZvWuttVYcu1MCZ5wioK1hQGsxuBiv51dfffWgyfvgvZIcBy/R7j4+oqkobDxTHEAc9ebX4l34lb3+nVpSUZxX9NM9IqkYT7SHhlVXXTWOOXJyiWvGBMPGW5LNkI8TSbooxUPIahSKs4nTKxz5VIqnOFVkscUWC1qLQQ2euvuX4SW4hC4WBxy/hC8OLI5gQk9FCVrxPvrJslTOoceeQ0tFMe6gS9+ObqI7fpleEvr4hTngC/6QfwUZ+CV6lYsTQPAG/U7VGaXPG2ywQfBy8803D76irx5pBo7tw1O6vM0224QM6bw+ijMZPDUeffrYGt2op/JU6LMUWvF3KWLihAX0GrM+8MF1KA43ZIDPeEGmZFFPKXrvkCOqoDjIOAqLPuKDkx8cS2hMTl6pOs+mTzvttGjfs7XfCvqw9NJLB3+dkOKEELJj13QM/Eoe/7onXwwDW9AGvrNndr/SSitF304wKMEznnOihWf04QQjp7w44YbPqKecFMceY3EyQhd0hX6xdX5po402ihMf6KCTNYYBr3baaacYo/H5LLnkknEUGLm7z9e4T2/wsQSqOCkGnNJEBmgkW3bDJkowjvtdGbFxvoCekDd5atfJIhV8A37SY6exlOQyruuPLP44OGVllP/rowTH8E94Sifo++zZs+NECSeTjAK60YFW+kk36XjXfwzTcWNEF552wY/z+RPB8Zx4Sy+cvMXeyLIvZ/pfEo+gzfi6mFdfgo/oPuSQQwZX2jilxLjFDf6rnvYiLtMPukuGThDBKzGAfEZBe3TDGGfNmhW6UIq4GCe+VbABffKX2iQ7J8zwFVUfhmHvvfcOedAT+simjX+yftKJL3TViTkVpZgNH8QPVrB1NqI9cRl/6RN/D/QBrehmT05rErudXFVR/QbMD33DUBK98FNkjG9OM+Nj+IxSZA6e+jf4JuNDMx/Fh6CNDrJ/YCvkoX/8oJfyFuMuyW4840QacpPX7LnnnuG7+CD6WIqReKYPY2MXfB3QQ/Yqt+jikksuCZ2uYF9oQO8666wTvNt5553H6JVzGS+a8RQN8rJbbrllZB/QjyniHZ9H18UtOkt/yWsyvhOuuOKKOIlP7CIH/l8bTp6TZy3IGPd/6lRVqsTMaKvMysCjOlehmsWrMNtnhlIVZ+lvFDStalN5q3LMHHne/lXL1UUQgyeHozA4loTNQJhFsXRdBB1LtPZPmiFSBZlZsUVEpWyZvzitqB5BdeRX82Z99a0N/arCtFGfQZ8l/OJgoooqxhUzc8VI45q/zbhazvS9QlVsxsFWlMoLlbHZAjMTqlz37Bs2g9t9tw90OCnEePxttt2sZXE0cV/lbZZAtUgG2rNNwLYHwG9yQxO6K4pBxNIlvlSek7VZlxIAxm2j8aMme3b1ZcmP7M2e6APvh423OLjQG5WzarlC5Ur+tmgMA9lZGSgBL2ZpzMYWpx778ehdl1e2/NiXasuH2TfbCuhRcaRRpYPxm1X2mwAzXfhnfzAZ0A3P1udU7pagzYqgmz76QY6lWLpD3mbr8NH9CnJBB12xAlMCUKzCmD0gDzrZh5kaumBLlXfMTqHfWIEs8AI9/i2OLfQM3/C5jq+LPn3kpX18NBNdoT264jlyouf0y2y5ZV68JtvaB76xF6ejsDmnF9Cb4tCiP3ZmJtvMahdk4h1jMMNo9tAPrdkY/a3tm93iO7Sn3S5vwQwL/aab5ECfyMW/2jDLQZ7GM5H/wFPbEfAJ783K0w302ONMHwBP2AadoWP8h/G5VsdJ5/1AtQSVsfcq6ow6H0f+3senEijH7LIPM9b4ZDZdm2aFyAjMuJKNe2Z/jJme8wOWZvGZDzAm7ZgRIsNqi10ZlYAUqwGeZcNoMna6V/nOV5lp5WPZt/3p9AevtI/P1R6G+b9hIB/L2WbJ0F4CdLRH3+j2MKCD3NFqnOyKD6a/1X8M03Fy5o+MzUphBRrIZqLfApXkJHRWbPAsX0hn8YdNV/Cf/AS6rCLW2ALz6kuq/7X/1TZHMBvI//OD2rU9wFgBL9GJXm3QB7Qa9zD/ANrgg+v/cEg8Jwu0GUuFftFi1l3MZTdsE6/pIz8wDHSWjho7OxKLrPh5fjJ+0oy2OIlfld9ooatotTpRr5EnHRXf6BEfyna0Y5yu0x16Ru/xGi3VBqvfsGUL5pW+YdC/nIQPwW8ruuIOfTCGYfzjZ8kT//hCcvHjTrSDMeO/NumKVUi2jh426B08p/vkxi+Qm2fwgv2XJD/a6kK7Dupg63ijbb6NXVZ+Qx07HQO2T878HPu3+iI3qHEALfy6lW66Ln7TB3mje8P6gGExRfwQo2zxNJ79998/ZOn9uflOtmCMDsGgD/w4n41eOkGvFmSMS8gTiXsTNSG3NG37UiIxXegm5AJ8IpFIJP47wH/bNqVwMeExrLj4X8TEvzpIJBKJRCKRSCTuBVjNkIRbsTShYtXmvoJMyBMzBsuAlhC7W2YSiemApUtLzxNtWUgkEonEggXbfxzYYFuRQ0HmtrX5fwm5ZSWRSCQSiUQikZhB5Ax5IpFIJBKJRCIxg8iEPJFIJBKJRCKRmEFkQp5IJBKJRCKRSMwgMiFPJBKJRCKRSCRmEJmQJxKJRCKRSCQSM4hMyBOJRCKRSCQSiRlEJuSJRCKRSCQSicQMIhPyRCKRSCQSiURiBpEJeSKRSCQSiUQiMYPIhDyRSCQSiUQikZhBZEKeSCQSiUQikUjMIDIhTyQSiUQikUgkZhCZkCcSiUQikUgkEjOITMgTiUQikUgkEokZRCbkiUQikUgkEonEDCIT8kQikUgkEolEYgaRCXkikUgkEolEIjGDyIQ8kUgkEolEIpGYQWRCnkgkEolEIpFIzCAyIU8kEolEIpFIJGYQmZAnEolEIpFIJBIziEzIE4lEIpFIJBKJGUQm5IlEIpFIJBKJxAwiE/JEIpFIJBKJRGLG0DT/D/FuaLyPCG8BAAAAAElFTkSuQmCC;" vertex="1" parent="1">
          <mxGeometry x="490" y="-110" width="740" height="391" as="geometry" />
        </mxCell>
        <mxCell id="w96i7xLCoSj7qpEWfzxq-22" value="" style="edgeStyle=orthogonalEdgeStyle;rounded=0;orthogonalLoop=1;jettySize=auto;html=1;endArrow=none;endFill=0;" edge="1" parent="1" source="w96i7xLCoSj7qpEWfzxq-2" target="w96i7xLCoSj7qpEWfzxq-14">
          <mxGeometry relative="1" as="geometry" />
        </mxCell>
        <mxCell id="w96i7xLCoSj7qpEWfzxq-33" value="" style="edgeStyle=orthogonalEdgeStyle;rounded=0;orthogonalLoop=1;jettySize=auto;html=1;endArrow=none;endFill=0;" edge="1" parent="1" source="w96i7xLCoSj7qpEWfzxq-2" target="w96i7xLCoSj7qpEWfzxq-32">
          <mxGeometry relative="1" as="geometry" />
        </mxCell>
        <mxCell id="w96i7xLCoSj7qpEWfzxq-2" value="Usuario" style="rounded=0;whiteSpace=wrap;html=1;fillColor=#1ba1e2;fontColor=#ffffff;strokeColor=#006EAF;" vertex="1" parent="1">
          <mxGeometry x="280" y="450" width="120" height="60" as="geometry" />
        </mxCell>
        <mxCell id="w96i7xLCoSj7qpEWfzxq-20" value="" style="edgeStyle=orthogonalEdgeStyle;rounded=0;orthogonalLoop=1;jettySize=auto;html=1;endArrow=none;endFill=0;" edge="1" parent="1" source="w96i7xLCoSj7qpEWfzxq-3" target="w96i7xLCoSj7qpEWfzxq-9">
          <mxGeometry relative="1" as="geometry" />
        </mxCell>
        <mxCell id="w96i7xLCoSj7qpEWfzxq-3" value="TiposDeUsuario" style="rounded=0;whiteSpace=wrap;html=1;fillColor=#76608a;fontColor=#ffffff;strokeColor=#432D57;" vertex="1" parent="1">
          <mxGeometry y="450" width="120" height="60" as="geometry" />
        </mxCell>
        <mxCell id="w96i7xLCoSj7qpEWfzxq-4" value="TiposDeEvento" style="rounded=0;whiteSpace=wrap;html=1;fillColor=#fa6800;fontColor=#000000;strokeColor=#C73500;" vertex="1" parent="1">
          <mxGeometry y="934" width="120" height="60" as="geometry" />
        </mxCell>
        <mxCell id="w96i7xLCoSj7qpEWfzxq-28" value="" style="edgeStyle=orthogonalEdgeStyle;rounded=0;orthogonalLoop=1;jettySize=auto;html=1;endArrow=none;endFill=0;" edge="1" parent="1" source="w96i7xLCoSj7qpEWfzxq-5" target="w96i7xLCoSj7qpEWfzxq-27">
          <mxGeometry relative="1" as="geometry" />
        </mxCell>
        <mxCell id="w96i7xLCoSj7qpEWfzxq-129" value="" style="edgeStyle=orthogonalEdgeStyle;rounded=0;orthogonalLoop=1;jettySize=auto;html=1;endArrow=none;endFill=0;" edge="1" parent="1" source="w96i7xLCoSj7qpEWfzxq-5" target="w96i7xLCoSj7qpEWfzxq-128">
          <mxGeometry relative="1" as="geometry" />
        </mxCell>
        <mxCell id="w96i7xLCoSj7qpEWfzxq-5" value="Evento" style="rounded=0;whiteSpace=wrap;html=1;fillColor=#a20025;fontColor=#ffffff;strokeColor=#6F0000;" vertex="1" parent="1">
          <mxGeometry x="280" y="934" width="120" height="60" as="geometry" />
        </mxCell>
        <mxCell id="w96i7xLCoSj7qpEWfzxq-6" value="PresencasEvento" style="rounded=0;whiteSpace=wrap;html=1;fillColor=#6a00ff;fontColor=#ffffff;strokeColor=#3700CC;" vertex="1" parent="1">
          <mxGeometry x="440" y="660" width="120" height="60" as="geometry" />
        </mxCell>
        <mxCell id="w96i7xLCoSj7qpEWfzxq-35" value="" style="edgeStyle=orthogonalEdgeStyle;rounded=0;orthogonalLoop=1;jettySize=auto;html=1;endArrow=none;endFill=0;" edge="1" parent="1" source="w96i7xLCoSj7qpEWfzxq-7" target="w96i7xLCoSj7qpEWfzxq-31">
          <mxGeometry relative="1" as="geometry" />
        </mxCell>
        <mxCell id="w96i7xLCoSj7qpEWfzxq-7" value="Comentario" style="rounded=0;whiteSpace=wrap;html=1;fillColor=#d80073;fontColor=#ffffff;strokeColor=#A50040;" vertex="1" parent="1">
          <mxGeometry x="279" y="690" width="120" height="60" as="geometry" />
        </mxCell>
        <mxCell id="w96i7xLCoSj7qpEWfzxq-8" value="Instituicao" style="rounded=0;whiteSpace=wrap;html=1;fillColor=#e3c800;fontColor=#000000;strokeColor=#B09500;" vertex="1" parent="1">
          <mxGeometry x="280" y="1174" width="120" height="60" as="geometry" />
        </mxCell>
        <mxCell id="w96i7xLCoSj7qpEWfzxq-21" value="" style="edgeStyle=orthogonalEdgeStyle;rounded=0;orthogonalLoop=1;jettySize=auto;html=1;endArrow=none;endFill=0;" edge="1" parent="1" source="w96i7xLCoSj7qpEWfzxq-9" target="w96i7xLCoSj7qpEWfzxq-2">
          <mxGeometry relative="1" as="geometry" />
        </mxCell>
        <mxCell id="w96i7xLCoSj7qpEWfzxq-9" value="Possui" style="rhombus;whiteSpace=wrap;html=1;fillColor=#d5e8d4;strokeColor=#82b366;" vertex="1" parent="1">
          <mxGeometry x="160" y="440" width="80" height="80" as="geometry" />
        </mxCell>
        <mxCell id="w96i7xLCoSj7qpEWfzxq-23" value="" style="edgeStyle=orthogonalEdgeStyle;rounded=0;orthogonalLoop=1;jettySize=auto;html=1;endArrow=none;endFill=0;" edge="1" parent="1" source="w96i7xLCoSj7qpEWfzxq-14" target="w96i7xLCoSj7qpEWfzxq-6">
          <mxGeometry relative="1" as="geometry" />
        </mxCell>
        <mxCell id="w96i7xLCoSj7qpEWfzxq-14" value="Possui" style="rhombus;whiteSpace=wrap;html=1;fillColor=#d5e8d4;strokeColor=#82b366;" vertex="1" parent="1">
          <mxGeometry x="460" y="440" width="80" height="80" as="geometry" />
        </mxCell>
        <mxCell id="w96i7xLCoSj7qpEWfzxq-26" value="" style="edgeStyle=orthogonalEdgeStyle;rounded=0;orthogonalLoop=1;jettySize=auto;html=1;endArrow=none;endFill=0;" edge="1" parent="1" source="w96i7xLCoSj7qpEWfzxq-15" target="w96i7xLCoSj7qpEWfzxq-5">
          <mxGeometry relative="1" as="geometry" />
        </mxCell>
        <mxCell id="w96i7xLCoSj7qpEWfzxq-30" style="edgeStyle=orthogonalEdgeStyle;rounded=0;orthogonalLoop=1;jettySize=auto;html=1;entryX=0.5;entryY=1;entryDx=0;entryDy=0;endArrow=none;endFill=0;" edge="1" parent="1" source="w96i7xLCoSj7qpEWfzxq-15" target="w96i7xLCoSj7qpEWfzxq-6">
          <mxGeometry relative="1" as="geometry" />
        </mxCell>
        <mxCell id="w96i7xLCoSj7qpEWfzxq-15" value="Possui" style="rhombus;whiteSpace=wrap;html=1;fillColor=#d5e8d4;strokeColor=#82b366;" vertex="1" parent="1">
          <mxGeometry x="460" y="924" width="80" height="80" as="geometry" />
        </mxCell>
        <mxCell id="w96i7xLCoSj7qpEWfzxq-29" value="" style="edgeStyle=orthogonalEdgeStyle;rounded=0;orthogonalLoop=1;jettySize=auto;html=1;endArrow=none;endFill=0;" edge="1" parent="1" source="w96i7xLCoSj7qpEWfzxq-27" target="w96i7xLCoSj7qpEWfzxq-4">
          <mxGeometry relative="1" as="geometry" />
        </mxCell>
        <mxCell id="w96i7xLCoSj7qpEWfzxq-27" value="Possui" style="rhombus;whiteSpace=wrap;html=1;fillColor=#d5e8d4;strokeColor=#82b366;" vertex="1" parent="1">
          <mxGeometry x="160" y="924" width="80" height="80" as="geometry" />
        </mxCell>
        <mxCell id="w96i7xLCoSj7qpEWfzxq-36" value="" style="edgeStyle=orthogonalEdgeStyle;rounded=0;orthogonalLoop=1;jettySize=auto;html=1;endArrow=none;endFill=0;" edge="1" parent="1" target="w96i7xLCoSj7qpEWfzxq-5">
          <mxGeometry relative="1" as="geometry">
            <mxPoint x="340" y="904" as="sourcePoint" />
          </mxGeometry>
        </mxCell>
        <mxCell id="w96i7xLCoSj7qpEWfzxq-146" style="edgeStyle=orthogonalEdgeStyle;rounded=0;orthogonalLoop=1;jettySize=auto;html=1;endArrow=none;endFill=0;" edge="1" parent="1" source="w96i7xLCoSj7qpEWfzxq-31" target="w96i7xLCoSj7qpEWfzxq-5">
          <mxGeometry relative="1" as="geometry" />
        </mxCell>
        <mxCell id="w96i7xLCoSj7qpEWfzxq-31" value="Possui" style="rhombus;whiteSpace=wrap;html=1;fillColor=#d5e8d4;strokeColor=#82b366;" vertex="1" parent="1">
          <mxGeometry x="300" y="810" width="80" height="80" as="geometry" />
        </mxCell>
        <mxCell id="w96i7xLCoSj7qpEWfzxq-34" value="" style="edgeStyle=orthogonalEdgeStyle;rounded=0;orthogonalLoop=1;jettySize=auto;html=1;endArrow=none;endFill=0;" edge="1" parent="1" source="w96i7xLCoSj7qpEWfzxq-32" target="w96i7xLCoSj7qpEWfzxq-7">
          <mxGeometry relative="1" as="geometry" />
        </mxCell>
        <mxCell id="w96i7xLCoSj7qpEWfzxq-32" value="Possui" style="rhombus;whiteSpace=wrap;html=1;fillColor=#d5e8d4;strokeColor=#82b366;" vertex="1" parent="1">
          <mxGeometry x="300" y="560" width="80" height="80" as="geometry" />
        </mxCell>
        <mxCell id="w96i7xLCoSj7qpEWfzxq-37" value="TiposDeUsuario" style="shape=table;startSize=30;container=1;collapsible=1;childLayout=tableLayout;fixedRows=1;rowLines=0;fontStyle=1;align=center;resizeLast=1;html=1;fillColor=#76608a;fontColor=#ffffff;strokeColor=#432D57;" vertex="1" parent="1">
          <mxGeometry x="600" y="400" width="180" height="90" as="geometry" />
        </mxCell>
        <mxCell id="w96i7xLCoSj7qpEWfzxq-38" value="" style="shape=tableRow;horizontal=0;startSize=0;swimlaneHead=0;swimlaneBody=0;fillColor=none;collapsible=0;dropTarget=0;points=[[0,0.5],[1,0.5]];portConstraint=eastwest;top=0;left=0;right=0;bottom=1;" vertex="1" parent="w96i7xLCoSj7qpEWfzxq-37">
          <mxGeometry y="30" width="180" height="30" as="geometry" />
        </mxCell>
        <mxCell id="w96i7xLCoSj7qpEWfzxq-39" value="PK" style="shape=partialRectangle;connectable=0;fillColor=none;top=0;left=0;bottom=0;right=0;fontStyle=1;overflow=hidden;whiteSpace=wrap;html=1;" vertex="1" parent="w96i7xLCoSj7qpEWfzxq-38">
          <mxGeometry width="30" height="30" as="geometry">
            <mxRectangle width="30" height="30" as="alternateBounds" />
          </mxGeometry>
        </mxCell>
        <mxCell id="w96i7xLCoSj7qpEWfzxq-40" value="IdTipoDeUsuario" style="shape=partialRectangle;connectable=0;fillColor=none;top=0;left=0;bottom=0;right=0;align=left;spacingLeft=6;fontStyle=5;overflow=hidden;whiteSpace=wrap;html=1;" vertex="1" parent="w96i7xLCoSj7qpEWfzxq-38">
          <mxGeometry x="30" width="150" height="30" as="geometry">
            <mxRectangle width="150" height="30" as="alternateBounds" />
          </mxGeometry>
        </mxCell>
        <mxCell id="w96i7xLCoSj7qpEWfzxq-41" value="" style="shape=tableRow;horizontal=0;startSize=0;swimlaneHead=0;swimlaneBody=0;fillColor=none;collapsible=0;dropTarget=0;points=[[0,0.5],[1,0.5]];portConstraint=eastwest;top=0;left=0;right=0;bottom=0;" vertex="1" parent="w96i7xLCoSj7qpEWfzxq-37">
          <mxGeometry y="60" width="180" height="30" as="geometry" />
        </mxCell>
        <mxCell id="w96i7xLCoSj7qpEWfzxq-42" value="" style="shape=partialRectangle;connectable=0;fillColor=none;top=0;left=0;bottom=0;right=0;editable=1;overflow=hidden;whiteSpace=wrap;html=1;" vertex="1" parent="w96i7xLCoSj7qpEWfzxq-41">
          <mxGeometry width="30" height="30" as="geometry">
            <mxRectangle width="30" height="30" as="alternateBounds" />
          </mxGeometry>
        </mxCell>
        <mxCell id="w96i7xLCoSj7qpEWfzxq-43" value="TituloTipoUsuario" style="shape=partialRectangle;connectable=0;fillColor=none;top=0;left=0;bottom=0;right=0;align=left;spacingLeft=6;overflow=hidden;whiteSpace=wrap;html=1;" vertex="1" parent="w96i7xLCoSj7qpEWfzxq-41">
          <mxGeometry x="30" width="150" height="30" as="geometry">
            <mxRectangle width="150" height="30" as="alternateBounds" />
          </mxGeometry>
        </mxCell>
        <mxCell id="w96i7xLCoSj7qpEWfzxq-89" value="Evento" style="shape=table;startSize=30;container=1;collapsible=1;childLayout=tableLayout;fixedRows=1;rowLines=0;fontStyle=1;align=center;resizeLast=1;html=1;fillColor=#a20025;fontColor=#ffffff;strokeColor=#6F0000;" vertex="1" parent="1">
          <mxGeometry x="1360" y="400" width="180" height="210" as="geometry" />
        </mxCell>
        <mxCell id="w96i7xLCoSj7qpEWfzxq-213" style="shape=tableRow;horizontal=0;startSize=0;swimlaneHead=0;swimlaneBody=0;fillColor=none;collapsible=0;dropTarget=0;points=[[0,0.5],[1,0.5]];portConstraint=eastwest;top=0;left=0;right=0;bottom=1;" vertex="1" parent="w96i7xLCoSj7qpEWfzxq-89">
          <mxGeometry y="30" width="180" height="30" as="geometry" />
        </mxCell>
        <mxCell id="w96i7xLCoSj7qpEWfzxq-214" value="PK" style="shape=partialRectangle;connectable=0;fillColor=none;top=0;left=0;bottom=0;right=0;fontStyle=1;overflow=hidden;whiteSpace=wrap;html=1;" vertex="1" parent="w96i7xLCoSj7qpEWfzxq-213">
          <mxGeometry width="30" height="30" as="geometry">
            <mxRectangle width="30" height="30" as="alternateBounds" />
          </mxGeometry>
        </mxCell>
        <mxCell id="w96i7xLCoSj7qpEWfzxq-215" value="IdEvento" style="shape=partialRectangle;connectable=0;fillColor=none;top=0;left=0;bottom=0;right=0;align=left;spacingLeft=6;fontStyle=5;overflow=hidden;whiteSpace=wrap;html=1;" vertex="1" parent="w96i7xLCoSj7qpEWfzxq-213">
          <mxGeometry x="30" width="150" height="30" as="geometry">
            <mxRectangle width="150" height="30" as="alternateBounds" />
          </mxGeometry>
        </mxCell>
        <mxCell id="w96i7xLCoSj7qpEWfzxq-216" style="shape=tableRow;horizontal=0;startSize=0;swimlaneHead=0;swimlaneBody=0;fillColor=none;collapsible=0;dropTarget=0;points=[[0,0.5],[1,0.5]];portConstraint=eastwest;top=0;left=0;right=0;bottom=1;" vertex="1" parent="w96i7xLCoSj7qpEWfzxq-89">
          <mxGeometry y="60" width="180" height="30" as="geometry" />
        </mxCell>
        <mxCell id="w96i7xLCoSj7qpEWfzxq-217" value="FK1" style="shape=partialRectangle;connectable=0;fillColor=none;top=0;left=0;bottom=0;right=0;fontStyle=1;overflow=hidden;whiteSpace=wrap;html=1;" vertex="1" parent="w96i7xLCoSj7qpEWfzxq-216">
          <mxGeometry width="30" height="30" as="geometry">
            <mxRectangle width="30" height="30" as="alternateBounds" />
          </mxGeometry>
        </mxCell>
        <mxCell id="w96i7xLCoSj7qpEWfzxq-218" value="IdTipoEvento" style="shape=partialRectangle;connectable=0;fillColor=none;top=0;left=0;bottom=0;right=0;align=left;spacingLeft=6;fontStyle=5;overflow=hidden;whiteSpace=wrap;html=1;" vertex="1" parent="w96i7xLCoSj7qpEWfzxq-216">
          <mxGeometry x="30" width="150" height="30" as="geometry">
            <mxRectangle width="150" height="30" as="alternateBounds" />
          </mxGeometry>
        </mxCell>
        <mxCell id="w96i7xLCoSj7qpEWfzxq-90" value="" style="shape=tableRow;horizontal=0;startSize=0;swimlaneHead=0;swimlaneBody=0;fillColor=none;collapsible=0;dropTarget=0;points=[[0,0.5],[1,0.5]];portConstraint=eastwest;top=0;left=0;right=0;bottom=1;" vertex="1" parent="w96i7xLCoSj7qpEWfzxq-89">
          <mxGeometry y="90" width="180" height="30" as="geometry" />
        </mxCell>
        <mxCell id="w96i7xLCoSj7qpEWfzxq-91" value="FK2" style="shape=partialRectangle;connectable=0;fillColor=none;top=0;left=0;bottom=0;right=0;fontStyle=1;overflow=hidden;whiteSpace=wrap;html=1;" vertex="1" parent="w96i7xLCoSj7qpEWfzxq-90">
          <mxGeometry width="30" height="30" as="geometry">
            <mxRectangle width="30" height="30" as="alternateBounds" />
          </mxGeometry>
        </mxCell>
        <mxCell id="w96i7xLCoSj7qpEWfzxq-92" value="IdInstituicao" style="shape=partialRectangle;connectable=0;fillColor=none;top=0;left=0;bottom=0;right=0;align=left;spacingLeft=6;fontStyle=5;overflow=hidden;whiteSpace=wrap;html=1;" vertex="1" parent="w96i7xLCoSj7qpEWfzxq-90">
          <mxGeometry x="30" width="150" height="30" as="geometry">
            <mxRectangle width="150" height="30" as="alternateBounds" />
          </mxGeometry>
        </mxCell>
        <mxCell id="w96i7xLCoSj7qpEWfzxq-93" value="" style="shape=tableRow;horizontal=0;startSize=0;swimlaneHead=0;swimlaneBody=0;fillColor=none;collapsible=0;dropTarget=0;points=[[0,0.5],[1,0.5]];portConstraint=eastwest;top=0;left=0;right=0;bottom=0;" vertex="1" parent="w96i7xLCoSj7qpEWfzxq-89">
          <mxGeometry y="120" width="180" height="30" as="geometry" />
        </mxCell>
        <mxCell id="w96i7xLCoSj7qpEWfzxq-94" value="" style="shape=partialRectangle;connectable=0;fillColor=none;top=0;left=0;bottom=0;right=0;editable=1;overflow=hidden;whiteSpace=wrap;html=1;" vertex="1" parent="w96i7xLCoSj7qpEWfzxq-93">
          <mxGeometry width="30" height="30" as="geometry">
            <mxRectangle width="30" height="30" as="alternateBounds" />
          </mxGeometry>
        </mxCell>
        <mxCell id="w96i7xLCoSj7qpEWfzxq-95" value="NomeEvento" style="shape=partialRectangle;connectable=0;fillColor=none;top=0;left=0;bottom=0;right=0;align=left;spacingLeft=6;overflow=hidden;whiteSpace=wrap;html=1;" vertex="1" parent="w96i7xLCoSj7qpEWfzxq-93">
          <mxGeometry x="30" width="150" height="30" as="geometry">
            <mxRectangle width="150" height="30" as="alternateBounds" />
          </mxGeometry>
        </mxCell>
        <mxCell id="w96i7xLCoSj7qpEWfzxq-96" value="" style="shape=tableRow;horizontal=0;startSize=0;swimlaneHead=0;swimlaneBody=0;fillColor=none;collapsible=0;dropTarget=0;points=[[0,0.5],[1,0.5]];portConstraint=eastwest;top=0;left=0;right=0;bottom=0;" vertex="1" parent="w96i7xLCoSj7qpEWfzxq-89">
          <mxGeometry y="150" width="180" height="30" as="geometry" />
        </mxCell>
        <mxCell id="w96i7xLCoSj7qpEWfzxq-97" value="" style="shape=partialRectangle;connectable=0;fillColor=none;top=0;left=0;bottom=0;right=0;editable=1;overflow=hidden;whiteSpace=wrap;html=1;" vertex="1" parent="w96i7xLCoSj7qpEWfzxq-96">
          <mxGeometry width="30" height="30" as="geometry">
            <mxRectangle width="30" height="30" as="alternateBounds" />
          </mxGeometry>
        </mxCell>
        <mxCell id="w96i7xLCoSj7qpEWfzxq-98" value="Descricao" style="shape=partialRectangle;connectable=0;fillColor=none;top=0;left=0;bottom=0;right=0;align=left;spacingLeft=6;overflow=hidden;whiteSpace=wrap;html=1;" vertex="1" parent="w96i7xLCoSj7qpEWfzxq-96">
          <mxGeometry x="30" width="150" height="30" as="geometry">
            <mxRectangle width="150" height="30" as="alternateBounds" />
          </mxGeometry>
        </mxCell>
        <mxCell id="w96i7xLCoSj7qpEWfzxq-99" value="" style="shape=tableRow;horizontal=0;startSize=0;swimlaneHead=0;swimlaneBody=0;fillColor=none;collapsible=0;dropTarget=0;points=[[0,0.5],[1,0.5]];portConstraint=eastwest;top=0;left=0;right=0;bottom=0;" vertex="1" parent="w96i7xLCoSj7qpEWfzxq-89">
          <mxGeometry y="180" width="180" height="30" as="geometry" />
        </mxCell>
        <mxCell id="w96i7xLCoSj7qpEWfzxq-100" value="" style="shape=partialRectangle;connectable=0;fillColor=none;top=0;left=0;bottom=0;right=0;editable=1;overflow=hidden;whiteSpace=wrap;html=1;" vertex="1" parent="w96i7xLCoSj7qpEWfzxq-99">
          <mxGeometry width="30" height="30" as="geometry">
            <mxRectangle width="30" height="30" as="alternateBounds" />
          </mxGeometry>
        </mxCell>
        <mxCell id="w96i7xLCoSj7qpEWfzxq-101" value="DataEvento" style="shape=partialRectangle;connectable=0;fillColor=none;top=0;left=0;bottom=0;right=0;align=left;spacingLeft=6;overflow=hidden;whiteSpace=wrap;html=1;" vertex="1" parent="w96i7xLCoSj7qpEWfzxq-99">
          <mxGeometry x="30" width="150" height="30" as="geometry">
            <mxRectangle width="150" height="30" as="alternateBounds" />
          </mxGeometry>
        </mxCell>
        <mxCell id="w96i7xLCoSj7qpEWfzxq-102" value="TiposDeEvento" style="shape=table;startSize=30;container=1;collapsible=1;childLayout=tableLayout;fixedRows=1;rowLines=0;fontStyle=1;align=center;resizeLast=1;html=1;fillColor=#fa6800;fontColor=#000000;strokeColor=#C73500;" vertex="1" parent="1">
          <mxGeometry x="1640" y="400" width="180" height="90" as="geometry" />
        </mxCell>
        <mxCell id="w96i7xLCoSj7qpEWfzxq-103" value="" style="shape=tableRow;horizontal=0;startSize=0;swimlaneHead=0;swimlaneBody=0;fillColor=none;collapsible=0;dropTarget=0;points=[[0,0.5],[1,0.5]];portConstraint=eastwest;top=0;left=0;right=0;bottom=1;" vertex="1" parent="w96i7xLCoSj7qpEWfzxq-102">
          <mxGeometry y="30" width="180" height="30" as="geometry" />
        </mxCell>
        <mxCell id="w96i7xLCoSj7qpEWfzxq-104" value="PK" style="shape=partialRectangle;connectable=0;fillColor=none;top=0;left=0;bottom=0;right=0;fontStyle=1;overflow=hidden;whiteSpace=wrap;html=1;" vertex="1" parent="w96i7xLCoSj7qpEWfzxq-103">
          <mxGeometry width="30" height="30" as="geometry">
            <mxRectangle width="30" height="30" as="alternateBounds" />
          </mxGeometry>
        </mxCell>
        <mxCell id="w96i7xLCoSj7qpEWfzxq-105" value="IdTipoDeEvento" style="shape=partialRectangle;connectable=0;fillColor=none;top=0;left=0;bottom=0;right=0;align=left;spacingLeft=6;fontStyle=5;overflow=hidden;whiteSpace=wrap;html=1;" vertex="1" parent="w96i7xLCoSj7qpEWfzxq-103">
          <mxGeometry x="30" width="150" height="30" as="geometry">
            <mxRectangle width="150" height="30" as="alternateBounds" />
          </mxGeometry>
        </mxCell>
        <mxCell id="w96i7xLCoSj7qpEWfzxq-106" value="" style="shape=tableRow;horizontal=0;startSize=0;swimlaneHead=0;swimlaneBody=0;fillColor=none;collapsible=0;dropTarget=0;points=[[0,0.5],[1,0.5]];portConstraint=eastwest;top=0;left=0;right=0;bottom=0;" vertex="1" parent="w96i7xLCoSj7qpEWfzxq-102">
          <mxGeometry y="60" width="180" height="30" as="geometry" />
        </mxCell>
        <mxCell id="w96i7xLCoSj7qpEWfzxq-107" value="" style="shape=partialRectangle;connectable=0;fillColor=none;top=0;left=0;bottom=0;right=0;editable=1;overflow=hidden;whiteSpace=wrap;html=1;" vertex="1" parent="w96i7xLCoSj7qpEWfzxq-106">
          <mxGeometry width="30" height="30" as="geometry">
            <mxRectangle width="30" height="30" as="alternateBounds" />
          </mxGeometry>
        </mxCell>
        <mxCell id="w96i7xLCoSj7qpEWfzxq-108" value="TituloTipoEvento" style="shape=partialRectangle;connectable=0;fillColor=none;top=0;left=0;bottom=0;right=0;align=left;spacingLeft=6;overflow=hidden;whiteSpace=wrap;html=1;" vertex="1" parent="w96i7xLCoSj7qpEWfzxq-106">
          <mxGeometry x="30" width="150" height="30" as="geometry">
            <mxRectangle width="150" height="30" as="alternateBounds" />
          </mxGeometry>
        </mxCell>
        <mxCell id="w96i7xLCoSj7qpEWfzxq-115" value="Instituicao" style="shape=table;startSize=30;container=1;collapsible=1;childLayout=tableLayout;fixedRows=1;rowLines=0;fontStyle=1;align=center;resizeLast=1;html=1;fillColor=#e3c800;fontColor=#000000;strokeColor=#B09500;" vertex="1" parent="1">
          <mxGeometry x="1640" y="510" width="180" height="150" as="geometry" />
        </mxCell>
        <mxCell id="w96i7xLCoSj7qpEWfzxq-116" value="" style="shape=tableRow;horizontal=0;startSize=0;swimlaneHead=0;swimlaneBody=0;fillColor=none;collapsible=0;dropTarget=0;points=[[0,0.5],[1,0.5]];portConstraint=eastwest;top=0;left=0;right=0;bottom=1;" vertex="1" parent="w96i7xLCoSj7qpEWfzxq-115">
          <mxGeometry y="30" width="180" height="30" as="geometry" />
        </mxCell>
        <mxCell id="w96i7xLCoSj7qpEWfzxq-117" value="PK" style="shape=partialRectangle;connectable=0;fillColor=none;top=0;left=0;bottom=0;right=0;fontStyle=1;overflow=hidden;whiteSpace=wrap;html=1;" vertex="1" parent="w96i7xLCoSj7qpEWfzxq-116">
          <mxGeometry width="30" height="30" as="geometry">
            <mxRectangle width="30" height="30" as="alternateBounds" />
          </mxGeometry>
        </mxCell>
        <mxCell id="w96i7xLCoSj7qpEWfzxq-118" value="IdInstituicao" style="shape=partialRectangle;connectable=0;fillColor=none;top=0;left=0;bottom=0;right=0;align=left;spacingLeft=6;fontStyle=5;overflow=hidden;whiteSpace=wrap;html=1;" vertex="1" parent="w96i7xLCoSj7qpEWfzxq-116">
          <mxGeometry x="30" width="150" height="30" as="geometry">
            <mxRectangle width="150" height="30" as="alternateBounds" />
          </mxGeometry>
        </mxCell>
        <mxCell id="w96i7xLCoSj7qpEWfzxq-119" value="" style="shape=tableRow;horizontal=0;startSize=0;swimlaneHead=0;swimlaneBody=0;fillColor=none;collapsible=0;dropTarget=0;points=[[0,0.5],[1,0.5]];portConstraint=eastwest;top=0;left=0;right=0;bottom=0;" vertex="1" parent="w96i7xLCoSj7qpEWfzxq-115">
          <mxGeometry y="60" width="180" height="30" as="geometry" />
        </mxCell>
        <mxCell id="w96i7xLCoSj7qpEWfzxq-120" value="" style="shape=partialRectangle;connectable=0;fillColor=none;top=0;left=0;bottom=0;right=0;editable=1;overflow=hidden;whiteSpace=wrap;html=1;" vertex="1" parent="w96i7xLCoSj7qpEWfzxq-119">
          <mxGeometry width="30" height="30" as="geometry">
            <mxRectangle width="30" height="30" as="alternateBounds" />
          </mxGeometry>
        </mxCell>
        <mxCell id="w96i7xLCoSj7qpEWfzxq-121" value="CNPJ" style="shape=partialRectangle;connectable=0;fillColor=none;top=0;left=0;bottom=0;right=0;align=left;spacingLeft=6;overflow=hidden;whiteSpace=wrap;html=1;" vertex="1" parent="w96i7xLCoSj7qpEWfzxq-119">
          <mxGeometry x="30" width="150" height="30" as="geometry">
            <mxRectangle width="150" height="30" as="alternateBounds" />
          </mxGeometry>
        </mxCell>
        <mxCell id="w96i7xLCoSj7qpEWfzxq-152" style="shape=tableRow;horizontal=0;startSize=0;swimlaneHead=0;swimlaneBody=0;fillColor=none;collapsible=0;dropTarget=0;points=[[0,0.5],[1,0.5]];portConstraint=eastwest;top=0;left=0;right=0;bottom=0;" vertex="1" parent="w96i7xLCoSj7qpEWfzxq-115">
          <mxGeometry y="90" width="180" height="30" as="geometry" />
        </mxCell>
        <mxCell id="w96i7xLCoSj7qpEWfzxq-153" style="shape=partialRectangle;connectable=0;fillColor=none;top=0;left=0;bottom=0;right=0;editable=1;overflow=hidden;whiteSpace=wrap;html=1;" vertex="1" parent="w96i7xLCoSj7qpEWfzxq-152">
          <mxGeometry width="30" height="30" as="geometry">
            <mxRectangle width="30" height="30" as="alternateBounds" />
          </mxGeometry>
        </mxCell>
        <mxCell id="w96i7xLCoSj7qpEWfzxq-154" value="NomeFantasia" style="shape=partialRectangle;connectable=0;fillColor=none;top=0;left=0;bottom=0;right=0;align=left;spacingLeft=6;overflow=hidden;whiteSpace=wrap;html=1;" vertex="1" parent="w96i7xLCoSj7qpEWfzxq-152">
          <mxGeometry x="30" width="150" height="30" as="geometry">
            <mxRectangle width="150" height="30" as="alternateBounds" />
          </mxGeometry>
        </mxCell>
        <mxCell id="w96i7xLCoSj7qpEWfzxq-155" style="shape=tableRow;horizontal=0;startSize=0;swimlaneHead=0;swimlaneBody=0;fillColor=none;collapsible=0;dropTarget=0;points=[[0,0.5],[1,0.5]];portConstraint=eastwest;top=0;left=0;right=0;bottom=0;" vertex="1" parent="w96i7xLCoSj7qpEWfzxq-115">
          <mxGeometry y="120" width="180" height="30" as="geometry" />
        </mxCell>
        <mxCell id="w96i7xLCoSj7qpEWfzxq-156" style="shape=partialRectangle;connectable=0;fillColor=none;top=0;left=0;bottom=0;right=0;editable=1;overflow=hidden;whiteSpace=wrap;html=1;" vertex="1" parent="w96i7xLCoSj7qpEWfzxq-155">
          <mxGeometry width="30" height="30" as="geometry">
            <mxRectangle width="30" height="30" as="alternateBounds" />
          </mxGeometry>
        </mxCell>
        <mxCell id="w96i7xLCoSj7qpEWfzxq-157" value="Endereco" style="shape=partialRectangle;connectable=0;fillColor=none;top=0;left=0;bottom=0;right=0;align=left;spacingLeft=6;overflow=hidden;whiteSpace=wrap;html=1;" vertex="1" parent="w96i7xLCoSj7qpEWfzxq-155">
          <mxGeometry x="30" width="150" height="30" as="geometry">
            <mxRectangle width="150" height="30" as="alternateBounds" />
          </mxGeometry>
        </mxCell>
        <mxCell id="w96i7xLCoSj7qpEWfzxq-130" value="" style="edgeStyle=orthogonalEdgeStyle;rounded=0;orthogonalLoop=1;jettySize=auto;html=1;endArrow=none;endFill=0;" edge="1" parent="1" source="w96i7xLCoSj7qpEWfzxq-128" target="w96i7xLCoSj7qpEWfzxq-8">
          <mxGeometry relative="1" as="geometry" />
        </mxCell>
        <mxCell id="w96i7xLCoSj7qpEWfzxq-128" value="Possui" style="rhombus;whiteSpace=wrap;html=1;fillColor=#d5e8d4;strokeColor=#82b366;" vertex="1" parent="1">
          <mxGeometry x="300" y="1044" width="80" height="80" as="geometry" />
        </mxCell>
        <mxCell id="w96i7xLCoSj7qpEWfzxq-131" value="N" style="text;html=1;align=center;verticalAlign=middle;resizable=0;points=[];autosize=1;strokeColor=#2D7600;fillColor=#60a917;fontColor=#ffffff;" vertex="1" parent="1">
          <mxGeometry x="250" y="450" width="30" height="30" as="geometry" />
        </mxCell>
        <mxCell id="w96i7xLCoSj7qpEWfzxq-132" value="1" style="text;html=1;align=center;verticalAlign=middle;resizable=0;points=[];autosize=1;strokeColor=#B20000;fillColor=#e51400;fontColor=#ffffff;" vertex="1" parent="1">
          <mxGeometry x="120" y="450" width="30" height="30" as="geometry" />
        </mxCell>
        <mxCell id="w96i7xLCoSj7qpEWfzxq-133" value="1" style="text;html=1;align=center;verticalAlign=middle;resizable=0;points=[];autosize=1;strokeColor=#B20000;fillColor=#e51400;fontColor=#ffffff;" vertex="1" parent="1">
          <mxGeometry x="340" y="510" width="30" height="30" as="geometry" />
        </mxCell>
        <mxCell id="w96i7xLCoSj7qpEWfzxq-134" value="N" style="text;html=1;align=center;verticalAlign=middle;resizable=0;points=[];autosize=1;strokeColor=#2D7600;fillColor=#60a917;fontColor=#ffffff;" vertex="1" parent="1">
          <mxGeometry x="340" y="660" width="30" height="30" as="geometry" />
        </mxCell>
        <mxCell id="w96i7xLCoSj7qpEWfzxq-135" value="1" style="text;html=1;align=center;verticalAlign=middle;resizable=0;points=[];autosize=1;strokeColor=#B20000;fillColor=#e51400;fontColor=#ffffff;" vertex="1" parent="1">
          <mxGeometry x="399" y="450" width="30" height="30" as="geometry" />
        </mxCell>
        <mxCell id="w96i7xLCoSj7qpEWfzxq-136" value="N" style="text;html=1;align=center;verticalAlign=middle;resizable=0;points=[];autosize=1;strokeColor=#2D7600;fillColor=#60a917;fontColor=#ffffff;" vertex="1" parent="1">
          <mxGeometry x="500" y="630" width="30" height="30" as="geometry" />
        </mxCell>
        <mxCell id="w96i7xLCoSj7qpEWfzxq-137" value="1" style="text;html=1;align=center;verticalAlign=middle;resizable=0;points=[];autosize=1;strokeColor=#B20000;fillColor=#e51400;fontColor=#ffffff;" vertex="1" parent="1">
          <mxGeometry x="399" y="964" width="30" height="30" as="geometry" />
        </mxCell>
        <mxCell id="w96i7xLCoSj7qpEWfzxq-138" value="N" style="text;html=1;align=center;verticalAlign=middle;resizable=0;points=[];autosize=1;strokeColor=#2D7600;fillColor=#60a917;fontColor=#ffffff;" vertex="1" parent="1">
          <mxGeometry x="500" y="720" width="30" height="30" as="geometry" />
        </mxCell>
        <mxCell id="w96i7xLCoSj7qpEWfzxq-139" value="1" style="text;html=1;align=center;verticalAlign=middle;resizable=0;points=[];autosize=1;strokeColor=#B20000;fillColor=#e51400;fontColor=#ffffff;" vertex="1" parent="1">
          <mxGeometry x="340" y="904" width="30" height="30" as="geometry" />
        </mxCell>
        <mxCell id="w96i7xLCoSj7qpEWfzxq-140" value="N" style="text;html=1;align=center;verticalAlign=middle;resizable=0;points=[];autosize=1;strokeColor=#2D7600;fillColor=#60a917;fontColor=#ffffff;" vertex="1" parent="1">
          <mxGeometry x="340" y="750" width="30" height="30" as="geometry" />
        </mxCell>
        <mxCell id="w96i7xLCoSj7qpEWfzxq-141" value="1" style="text;html=1;align=center;verticalAlign=middle;resizable=0;points=[];autosize=1;strokeColor=#B20000;fillColor=#e51400;fontColor=#ffffff;" vertex="1" parent="1">
          <mxGeometry x="120" y="964" width="30" height="30" as="geometry" />
        </mxCell>
        <mxCell id="w96i7xLCoSj7qpEWfzxq-142" value="N" style="text;html=1;align=center;verticalAlign=middle;resizable=0;points=[];autosize=1;strokeColor=#2D7600;fillColor=#60a917;fontColor=#ffffff;" vertex="1" parent="1">
          <mxGeometry x="250" y="964" width="30" height="30" as="geometry" />
        </mxCell>
        <mxCell id="w96i7xLCoSj7qpEWfzxq-143" value="1" style="text;html=1;align=center;verticalAlign=middle;resizable=0;points=[];autosize=1;strokeColor=#B20000;fillColor=#e51400;fontColor=#ffffff;" vertex="1" parent="1">
          <mxGeometry x="340" y="1144" width="30" height="30" as="geometry" />
        </mxCell>
        <mxCell id="w96i7xLCoSj7qpEWfzxq-144" value="N" style="text;html=1;align=center;verticalAlign=middle;resizable=0;points=[];autosize=1;strokeColor=#2D7600;fillColor=#60a917;fontColor=#ffffff;" vertex="1" parent="1">
          <mxGeometry x="340" y="994" width="30" height="30" as="geometry" />
        </mxCell>
        <mxCell id="w96i7xLCoSj7qpEWfzxq-149" value="CONCEITUAL" style="rounded=0;whiteSpace=wrap;html=1;fillColor=#f8cecc;strokeColor=#b85450;" vertex="1" parent="1">
          <mxGeometry x="279" y="320" width="120" height="60" as="geometry" />
        </mxCell>
        <mxCell id="w96i7xLCoSj7qpEWfzxq-150" value="LÃGICO" style="rounded=0;whiteSpace=wrap;html=1;fillColor=#f8cecc;strokeColor=#b85450;" vertex="1" parent="1">
          <mxGeometry x="827" y="281" width="120" height="60" as="geometry" />
        </mxCell>
        <mxCell id="w96i7xLCoSj7qpEWfzxq-151" value="FISÃCO" style="rounded=0;whiteSpace=wrap;html=1;fillColor=#f8cecc;strokeColor=#b85450;" vertex="1" parent="1">
          <mxGeometry x="1510" y="301" width="120" height="60" as="geometry" />
        </mxCell>
        <mxCell id="w96i7xLCoSj7qpEWfzxq-159" value="Usuario" style="shape=table;startSize=30;container=1;collapsible=1;childLayout=tableLayout;fixedRows=1;rowLines=0;fontStyle=1;align=center;resizeLast=1;html=1;whiteSpace=wrap;fillColor=#1ba1e2;fontColor=#ffffff;strokeColor=#006EAF;" vertex="1" parent="1">
          <mxGeometry x="850" y="400" width="180" height="180" as="geometry" />
        </mxCell>
        <mxCell id="w96i7xLCoSj7qpEWfzxq-160" value="" style="shape=tableRow;horizontal=0;startSize=0;swimlaneHead=0;swimlaneBody=0;fillColor=none;collapsible=0;dropTarget=0;points=[[0,0.5],[1,0.5]];portConstraint=eastwest;top=0;left=0;right=0;bottom=0;html=1;" vertex="1" parent="w96i7xLCoSj7qpEWfzxq-159">
          <mxGeometry y="30" width="180" height="30" as="geometry" />
        </mxCell>
        <mxCell id="w96i7xLCoSj7qpEWfzxq-161" value="PK" style="shape=partialRectangle;connectable=0;fillColor=none;top=0;left=0;bottom=0;right=0;fontStyle=1;overflow=hidden;html=1;whiteSpace=wrap;" vertex="1" parent="w96i7xLCoSj7qpEWfzxq-160">
          <mxGeometry width="60" height="30" as="geometry">
            <mxRectangle width="60" height="30" as="alternateBounds" />
          </mxGeometry>
        </mxCell>
        <mxCell id="w96i7xLCoSj7qpEWfzxq-162" value="IdUsuario" style="shape=partialRectangle;connectable=0;fillColor=none;top=0;left=0;bottom=0;right=0;align=left;spacingLeft=6;fontStyle=5;overflow=hidden;html=1;whiteSpace=wrap;" vertex="1" parent="w96i7xLCoSj7qpEWfzxq-160">
          <mxGeometry x="60" width="120" height="30" as="geometry">
            <mxRectangle width="120" height="30" as="alternateBounds" />
          </mxGeometry>
        </mxCell>
        <mxCell id="w96i7xLCoSj7qpEWfzxq-163" value="" style="shape=tableRow;horizontal=0;startSize=0;swimlaneHead=0;swimlaneBody=0;fillColor=none;collapsible=0;dropTarget=0;points=[[0,0.5],[1,0.5]];portConstraint=eastwest;top=0;left=0;right=0;bottom=1;html=1;" vertex="1" parent="w96i7xLCoSj7qpEWfzxq-159">
          <mxGeometry y="60" width="180" height="30" as="geometry" />
        </mxCell>
        <mxCell id="w96i7xLCoSj7qpEWfzxq-164" value="FK1" style="shape=partialRectangle;connectable=0;fillColor=none;top=0;left=0;bottom=0;right=0;fontStyle=1;overflow=hidden;html=1;whiteSpace=wrap;" vertex="1" parent="w96i7xLCoSj7qpEWfzxq-163">
          <mxGeometry width="60" height="30" as="geometry">
            <mxRectangle width="60" height="30" as="alternateBounds" />
          </mxGeometry>
        </mxCell>
        <mxCell id="w96i7xLCoSj7qpEWfzxq-165" value="IdTipoUsuario" style="shape=partialRectangle;connectable=0;fillColor=none;top=0;left=0;bottom=0;right=0;align=left;spacingLeft=6;fontStyle=5;overflow=hidden;html=1;whiteSpace=wrap;" vertex="1" parent="w96i7xLCoSj7qpEWfzxq-163">
          <mxGeometry x="60" width="120" height="30" as="geometry">
            <mxRectangle width="120" height="30" as="alternateBounds" />
          </mxGeometry>
        </mxCell>
        <mxCell id="w96i7xLCoSj7qpEWfzxq-166" value="" style="shape=tableRow;horizontal=0;startSize=0;swimlaneHead=0;swimlaneBody=0;fillColor=none;collapsible=0;dropTarget=0;points=[[0,0.5],[1,0.5]];portConstraint=eastwest;top=0;left=0;right=0;bottom=0;html=1;" vertex="1" parent="w96i7xLCoSj7qpEWfzxq-159">
          <mxGeometry y="90" width="180" height="30" as="geometry" />
        </mxCell>
        <mxCell id="w96i7xLCoSj7qpEWfzxq-167" value="" style="shape=partialRectangle;connectable=0;fillColor=none;top=0;left=0;bottom=0;right=0;editable=1;overflow=hidden;html=1;whiteSpace=wrap;" vertex="1" parent="w96i7xLCoSj7qpEWfzxq-166">
          <mxGeometry width="60" height="30" as="geometry">
            <mxRectangle width="60" height="30" as="alternateBounds" />
          </mxGeometry>
        </mxCell>
        <mxCell id="w96i7xLCoSj7qpEWfzxq-168" value="Nome" style="shape=partialRectangle;connectable=0;fillColor=none;top=0;left=0;bottom=0;right=0;align=left;spacingLeft=6;overflow=hidden;html=1;whiteSpace=wrap;" vertex="1" parent="w96i7xLCoSj7qpEWfzxq-166">
          <mxGeometry x="60" width="120" height="30" as="geometry">
            <mxRectangle width="120" height="30" as="alternateBounds" />
          </mxGeometry>
        </mxCell>
        <mxCell id="w96i7xLCoSj7qpEWfzxq-169" value="" style="shape=tableRow;horizontal=0;startSize=0;swimlaneHead=0;swimlaneBody=0;fillColor=none;collapsible=0;dropTarget=0;points=[[0,0.5],[1,0.5]];portConstraint=eastwest;top=0;left=0;right=0;bottom=0;html=1;" vertex="1" parent="w96i7xLCoSj7qpEWfzxq-159">
          <mxGeometry y="120" width="180" height="30" as="geometry" />
        </mxCell>
        <mxCell id="w96i7xLCoSj7qpEWfzxq-170" value="" style="shape=partialRectangle;connectable=0;fillColor=none;top=0;left=0;bottom=0;right=0;editable=1;overflow=hidden;html=1;whiteSpace=wrap;" vertex="1" parent="w96i7xLCoSj7qpEWfzxq-169">
          <mxGeometry width="60" height="30" as="geometry">
            <mxRectangle width="60" height="30" as="alternateBounds" />
          </mxGeometry>
        </mxCell>
        <mxCell id="w96i7xLCoSj7qpEWfzxq-171" value="Email" style="shape=partialRectangle;connectable=0;fillColor=none;top=0;left=0;bottom=0;right=0;align=left;spacingLeft=6;overflow=hidden;html=1;whiteSpace=wrap;" vertex="1" parent="w96i7xLCoSj7qpEWfzxq-169">
          <mxGeometry x="60" width="120" height="30" as="geometry">
            <mxRectangle width="120" height="30" as="alternateBounds" />
          </mxGeometry>
        </mxCell>
        <mxCell id="w96i7xLCoSj7qpEWfzxq-172" style="shape=tableRow;horizontal=0;startSize=0;swimlaneHead=0;swimlaneBody=0;fillColor=none;collapsible=0;dropTarget=0;points=[[0,0.5],[1,0.5]];portConstraint=eastwest;top=0;left=0;right=0;bottom=0;html=1;" vertex="1" parent="w96i7xLCoSj7qpEWfzxq-159">
          <mxGeometry y="150" width="180" height="30" as="geometry" />
        </mxCell>
        <mxCell id="w96i7xLCoSj7qpEWfzxq-173" style="shape=partialRectangle;connectable=0;fillColor=none;top=0;left=0;bottom=0;right=0;editable=1;overflow=hidden;html=1;whiteSpace=wrap;" vertex="1" parent="w96i7xLCoSj7qpEWfzxq-172">
          <mxGeometry width="60" height="30" as="geometry">
            <mxRectangle width="60" height="30" as="alternateBounds" />
          </mxGeometry>
        </mxCell>
        <mxCell id="w96i7xLCoSj7qpEWfzxq-174" value="Senha" style="shape=partialRectangle;connectable=0;fillColor=none;top=0;left=0;bottom=0;right=0;align=left;spacingLeft=6;overflow=hidden;html=1;whiteSpace=wrap;" vertex="1" parent="w96i7xLCoSj7qpEWfzxq-172">
          <mxGeometry x="60" width="120" height="30" as="geometry">
            <mxRectangle width="120" height="30" as="alternateBounds" />
          </mxGeometry>
        </mxCell>
        <mxCell id="w96i7xLCoSj7qpEWfzxq-176" value="PresencasEvento" style="shape=table;startSize=30;container=1;collapsible=1;childLayout=tableLayout;fixedRows=1;rowLines=0;fontStyle=1;align=center;resizeLast=1;html=1;whiteSpace=wrap;fillColor=#6a00ff;fontColor=#ffffff;strokeColor=#3700CC;" vertex="1" parent="1">
          <mxGeometry x="1100" y="400" width="180" height="150" as="geometry" />
        </mxCell>
        <mxCell id="w96i7xLCoSj7qpEWfzxq-177" value="" style="shape=tableRow;horizontal=0;startSize=0;swimlaneHead=0;swimlaneBody=0;fillColor=none;collapsible=0;dropTarget=0;points=[[0,0.5],[1,0.5]];portConstraint=eastwest;top=0;left=0;right=0;bottom=0;html=1;" vertex="1" parent="w96i7xLCoSj7qpEWfzxq-176">
          <mxGeometry y="30" width="180" height="30" as="geometry" />
        </mxCell>
        <mxCell id="w96i7xLCoSj7qpEWfzxq-178" value="PK" style="shape=partialRectangle;connectable=0;fillColor=none;top=0;left=0;bottom=0;right=0;fontStyle=1;overflow=hidden;html=1;whiteSpace=wrap;" vertex="1" parent="w96i7xLCoSj7qpEWfzxq-177">
          <mxGeometry width="60" height="30" as="geometry">
            <mxRectangle width="60" height="30" as="alternateBounds" />
          </mxGeometry>
        </mxCell>
        <mxCell id="w96i7xLCoSj7qpEWfzxq-179" value="IdPresencaEvento" style="shape=partialRectangle;connectable=0;fillColor=none;top=0;left=0;bottom=0;right=0;align=left;spacingLeft=6;fontStyle=5;overflow=hidden;html=1;whiteSpace=wrap;" vertex="1" parent="w96i7xLCoSj7qpEWfzxq-177">
          <mxGeometry x="60" width="120" height="30" as="geometry">
            <mxRectangle width="120" height="30" as="alternateBounds" />
          </mxGeometry>
        </mxCell>
        <mxCell id="w96i7xLCoSj7qpEWfzxq-210" style="shape=tableRow;horizontal=0;startSize=0;swimlaneHead=0;swimlaneBody=0;fillColor=none;collapsible=0;dropTarget=0;points=[[0,0.5],[1,0.5]];portConstraint=eastwest;top=0;left=0;right=0;bottom=0;html=1;" vertex="1" parent="w96i7xLCoSj7qpEWfzxq-176">
          <mxGeometry y="60" width="180" height="30" as="geometry" />
        </mxCell>
        <mxCell id="w96i7xLCoSj7qpEWfzxq-211" value="FK1" style="shape=partialRectangle;connectable=0;fillColor=none;top=0;left=0;bottom=0;right=0;fontStyle=1;overflow=hidden;html=1;whiteSpace=wrap;" vertex="1" parent="w96i7xLCoSj7qpEWfzxq-210">
          <mxGeometry width="60" height="30" as="geometry">
            <mxRectangle width="60" height="30" as="alternateBounds" />
          </mxGeometry>
        </mxCell>
        <mxCell id="w96i7xLCoSj7qpEWfzxq-212" value="IdUsuario" style="shape=partialRectangle;connectable=0;fillColor=none;top=0;left=0;bottom=0;right=0;align=left;spacingLeft=6;fontStyle=5;overflow=hidden;html=1;whiteSpace=wrap;" vertex="1" parent="w96i7xLCoSj7qpEWfzxq-210">
          <mxGeometry x="60" width="120" height="30" as="geometry">
            <mxRectangle width="120" height="30" as="alternateBounds" />
          </mxGeometry>
        </mxCell>
        <mxCell id="w96i7xLCoSj7qpEWfzxq-180" value="" style="shape=tableRow;horizontal=0;startSize=0;swimlaneHead=0;swimlaneBody=0;fillColor=none;collapsible=0;dropTarget=0;points=[[0,0.5],[1,0.5]];portConstraint=eastwest;top=0;left=0;right=0;bottom=1;html=1;" vertex="1" parent="w96i7xLCoSj7qpEWfzxq-176">
          <mxGeometry y="90" width="180" height="30" as="geometry" />
        </mxCell>
        <mxCell id="w96i7xLCoSj7qpEWfzxq-181" value="FK2" style="shape=partialRectangle;connectable=0;fillColor=none;top=0;left=0;bottom=0;right=0;fontStyle=1;overflow=hidden;html=1;whiteSpace=wrap;" vertex="1" parent="w96i7xLCoSj7qpEWfzxq-180">
          <mxGeometry width="60" height="30" as="geometry">
            <mxRectangle width="60" height="30" as="alternateBounds" />
          </mxGeometry>
        </mxCell>
        <mxCell id="w96i7xLCoSj7qpEWfzxq-182" value="IdEvento" style="shape=partialRectangle;connectable=0;fillColor=none;top=0;left=0;bottom=0;right=0;align=left;spacingLeft=6;fontStyle=5;overflow=hidden;html=1;whiteSpace=wrap;" vertex="1" parent="w96i7xLCoSj7qpEWfzxq-180">
          <mxGeometry x="60" width="120" height="30" as="geometry">
            <mxRectangle width="120" height="30" as="alternateBounds" />
          </mxGeometry>
        </mxCell>
        <mxCell id="w96i7xLCoSj7qpEWfzxq-183" value="" style="shape=tableRow;horizontal=0;startSize=0;swimlaneHead=0;swimlaneBody=0;fillColor=none;collapsible=0;dropTarget=0;points=[[0,0.5],[1,0.5]];portConstraint=eastwest;top=0;left=0;right=0;bottom=0;html=1;" vertex="1" parent="w96i7xLCoSj7qpEWfzxq-176">
          <mxGeometry y="120" width="180" height="30" as="geometry" />
        </mxCell>
        <mxCell id="w96i7xLCoSj7qpEWfzxq-184" value="" style="shape=partialRectangle;connectable=0;fillColor=none;top=0;left=0;bottom=0;right=0;editable=1;overflow=hidden;html=1;whiteSpace=wrap;" vertex="1" parent="w96i7xLCoSj7qpEWfzxq-183">
          <mxGeometry width="60" height="30" as="geometry">
            <mxRectangle width="60" height="30" as="alternateBounds" />
          </mxGeometry>
        </mxCell>
        <mxCell id="w96i7xLCoSj7qpEWfzxq-185" value="Situacao" style="shape=partialRectangle;connectable=0;fillColor=none;top=0;left=0;bottom=0;right=0;align=left;spacingLeft=6;overflow=hidden;html=1;whiteSpace=wrap;" vertex="1" parent="w96i7xLCoSj7qpEWfzxq-183">
          <mxGeometry x="60" width="120" height="30" as="geometry">
            <mxRectangle width="120" height="30" as="alternateBounds" />
          </mxGeometry>
        </mxCell>
        <mxCell id="w96i7xLCoSj7qpEWfzxq-189" value="" style="edgeStyle=entityRelationEdgeStyle;fontSize=12;html=1;endArrow=ERoneToMany;rounded=0;exitX=1;exitY=0.5;exitDx=0;exitDy=0;entryX=0;entryY=0.5;entryDx=0;entryDy=0;" edge="1" parent="1" source="w96i7xLCoSj7qpEWfzxq-38" target="w96i7xLCoSj7qpEWfzxq-163">
          <mxGeometry width="100" height="100" relative="1" as="geometry">
            <mxPoint x="840" y="680" as="sourcePoint" />
            <mxPoint x="940" y="580" as="targetPoint" />
          </mxGeometry>
        </mxCell>
        <mxCell id="w96i7xLCoSj7qpEWfzxq-190" value="" style="edgeStyle=entityRelationEdgeStyle;fontSize=12;html=1;endArrow=ERoneToMany;rounded=0;exitX=1;exitY=0.5;exitDx=0;exitDy=0;entryX=0;entryY=0.5;entryDx=0;entryDy=0;" edge="1" parent="1" source="w96i7xLCoSj7qpEWfzxq-160" target="w96i7xLCoSj7qpEWfzxq-210">
          <mxGeometry width="100" height="100" relative="1" as="geometry">
            <mxPoint x="870" y="515" as="sourcePoint" />
            <mxPoint x="950" y="545" as="targetPoint" />
          </mxGeometry>
        </mxCell>
        <mxCell id="w96i7xLCoSj7qpEWfzxq-219" value="Comentario" style="shape=table;startSize=30;container=1;collapsible=1;childLayout=tableLayout;fixedRows=1;rowLines=0;fontStyle=1;align=center;resizeLast=1;html=1;fillColor=#d80073;fontColor=#ffffff;strokeColor=#A50040;" vertex="1" parent="1">
          <mxGeometry x="1090" y="630" width="180" height="210" as="geometry" />
        </mxCell>
        <mxCell id="w96i7xLCoSj7qpEWfzxq-220" style="shape=tableRow;horizontal=0;startSize=0;swimlaneHead=0;swimlaneBody=0;fillColor=none;collapsible=0;dropTarget=0;points=[[0,0.5],[1,0.5]];portConstraint=eastwest;top=0;left=0;right=0;bottom=1;" vertex="1" parent="w96i7xLCoSj7qpEWfzxq-219">
          <mxGeometry y="30" width="180" height="30" as="geometry" />
        </mxCell>
        <mxCell id="w96i7xLCoSj7qpEWfzxq-221" value="PK" style="shape=partialRectangle;connectable=0;fillColor=none;top=0;left=0;bottom=0;right=0;fontStyle=1;overflow=hidden;whiteSpace=wrap;html=1;" vertex="1" parent="w96i7xLCoSj7qpEWfzxq-220">
          <mxGeometry width="30" height="30" as="geometry">
            <mxRectangle width="30" height="30" as="alternateBounds" />
          </mxGeometry>
        </mxCell>
        <mxCell id="w96i7xLCoSj7qpEWfzxq-222" value="IdComentario" style="shape=partialRectangle;connectable=0;fillColor=none;top=0;left=0;bottom=0;right=0;align=left;spacingLeft=6;fontStyle=5;overflow=hidden;whiteSpace=wrap;html=1;" vertex="1" parent="w96i7xLCoSj7qpEWfzxq-220">
          <mxGeometry x="30" width="150" height="30" as="geometry">
            <mxRectangle width="150" height="30" as="alternateBounds" />
          </mxGeometry>
        </mxCell>
        <mxCell id="w96i7xLCoSj7qpEWfzxq-223" style="shape=tableRow;horizontal=0;startSize=0;swimlaneHead=0;swimlaneBody=0;fillColor=none;collapsible=0;dropTarget=0;points=[[0,0.5],[1,0.5]];portConstraint=eastwest;top=0;left=0;right=0;bottom=1;" vertex="1" parent="w96i7xLCoSj7qpEWfzxq-219">
          <mxGeometry y="60" width="180" height="30" as="geometry" />
        </mxCell>
        <mxCell id="w96i7xLCoSj7qpEWfzxq-224" value="FK1" style="shape=partialRectangle;connectable=0;fillColor=none;top=0;left=0;bottom=0;right=0;fontStyle=1;overflow=hidden;whiteSpace=wrap;html=1;" vertex="1" parent="w96i7xLCoSj7qpEWfzxq-223">
          <mxGeometry width="30" height="30" as="geometry">
            <mxRectangle width="30" height="30" as="alternateBounds" />
          </mxGeometry>
        </mxCell>
        <mxCell id="w96i7xLCoSj7qpEWfzxq-225" value="IdEvento" style="shape=partialRectangle;connectable=0;fillColor=none;top=0;left=0;bottom=0;right=0;align=left;spacingLeft=6;fontStyle=5;overflow=hidden;whiteSpace=wrap;html=1;" vertex="1" parent="w96i7xLCoSj7qpEWfzxq-223">
          <mxGeometry x="30" width="150" height="30" as="geometry">
            <mxRectangle width="150" height="30" as="alternateBounds" />
          </mxGeometry>
        </mxCell>
        <mxCell id="w96i7xLCoSj7qpEWfzxq-226" value="" style="shape=tableRow;horizontal=0;startSize=0;swimlaneHead=0;swimlaneBody=0;fillColor=none;collapsible=0;dropTarget=0;points=[[0,0.5],[1,0.5]];portConstraint=eastwest;top=0;left=0;right=0;bottom=1;" vertex="1" parent="w96i7xLCoSj7qpEWfzxq-219">
          <mxGeometry y="90" width="180" height="30" as="geometry" />
        </mxCell>
        <mxCell id="w96i7xLCoSj7qpEWfzxq-227" value="FK2" style="shape=partialRectangle;connectable=0;fillColor=none;top=0;left=0;bottom=0;right=0;fontStyle=1;overflow=hidden;whiteSpace=wrap;html=1;" vertex="1" parent="w96i7xLCoSj7qpEWfzxq-226">
          <mxGeometry width="30" height="30" as="geometry">
            <mxRectangle width="30" height="30" as="alternateBounds" />
          </mxGeometry>
        </mxCell>
        <mxCell id="w96i7xLCoSj7qpEWfzxq-228" value="IdUsuario" style="shape=partialRectangle;connectable=0;fillColor=none;top=0;left=0;bottom=0;right=0;align=left;spacingLeft=6;fontStyle=5;overflow=hidden;whiteSpace=wrap;html=1;" vertex="1" parent="w96i7xLCoSj7qpEWfzxq-226">
          <mxGeometry x="30" width="150" height="30" as="geometry">
            <mxRectangle width="150" height="30" as="alternateBounds" />
          </mxGeometry>
        </mxCell>
        <mxCell id="w96i7xLCoSj7qpEWfzxq-229" value="" style="shape=tableRow;horizontal=0;startSize=0;swimlaneHead=0;swimlaneBody=0;fillColor=none;collapsible=0;dropTarget=0;points=[[0,0.5],[1,0.5]];portConstraint=eastwest;top=0;left=0;right=0;bottom=0;" vertex="1" parent="w96i7xLCoSj7qpEWfzxq-219">
          <mxGeometry y="120" width="180" height="30" as="geometry" />
        </mxCell>
        <mxCell id="w96i7xLCoSj7qpEWfzxq-230" value="" style="shape=partialRectangle;connectable=0;fillColor=none;top=0;left=0;bottom=0;right=0;editable=1;overflow=hidden;whiteSpace=wrap;html=1;" vertex="1" parent="w96i7xLCoSj7qpEWfzxq-229">
          <mxGeometry width="30" height="30" as="geometry">
            <mxRectangle width="30" height="30" as="alternateBounds" />
          </mxGeometry>
        </mxCell>
        <mxCell id="w96i7xLCoSj7qpEWfzxq-231" value="Row 1" style="shape=partialRectangle;connectable=0;fillColor=none;top=0;left=0;bottom=0;right=0;align=left;spacingLeft=6;overflow=hidden;whiteSpace=wrap;html=1;" vertex="1" parent="w96i7xLCoSj7qpEWfzxq-229">
          <mxGeometry x="30" width="150" height="30" as="geometry">
            <mxRectangle width="150" height="30" as="alternateBounds" />
          </mxGeometry>
        </mxCell>
        <mxCell id="w96i7xLCoSj7qpEWfzxq-232" value="" style="shape=tableRow;horizontal=0;startSize=0;swimlaneHead=0;swimlaneBody=0;fillColor=none;collapsible=0;dropTarget=0;points=[[0,0.5],[1,0.5]];portConstraint=eastwest;top=0;left=0;right=0;bottom=0;" vertex="1" parent="w96i7xLCoSj7qpEWfzxq-219">
          <mxGeometry y="150" width="180" height="30" as="geometry" />
        </mxCell>
        <mxCell id="w96i7xLCoSj7qpEWfzxq-233" value="" style="shape=partialRectangle;connectable=0;fillColor=none;top=0;left=0;bottom=0;right=0;editable=1;overflow=hidden;whiteSpace=wrap;html=1;" vertex="1" parent="w96i7xLCoSj7qpEWfzxq-232">
          <mxGeometry width="30" height="30" as="geometry">
            <mxRectangle width="30" height="30" as="alternateBounds" />
          </mxGeometry>
        </mxCell>
        <mxCell id="w96i7xLCoSj7qpEWfzxq-234" value="Row 2" style="shape=partialRectangle;connectable=0;fillColor=none;top=0;left=0;bottom=0;right=0;align=left;spacingLeft=6;overflow=hidden;whiteSpace=wrap;html=1;" vertex="1" parent="w96i7xLCoSj7qpEWfzxq-232">
          <mxGeometry x="30" width="150" height="30" as="geometry">
            <mxRectangle width="150" height="30" as="alternateBounds" />
          </mxGeometry>
        </mxCell>
        <mxCell id="w96i7xLCoSj7qpEWfzxq-235" value="" style="shape=tableRow;horizontal=0;startSize=0;swimlaneHead=0;swimlaneBody=0;fillColor=none;collapsible=0;dropTarget=0;points=[[0,0.5],[1,0.5]];portConstraint=eastwest;top=0;left=0;right=0;bottom=0;" vertex="1" parent="w96i7xLCoSj7qpEWfzxq-219">
          <mxGeometry y="180" width="180" height="30" as="geometry" />
        </mxCell>
        <mxCell id="w96i7xLCoSj7qpEWfzxq-236" value="" style="shape=partialRectangle;connectable=0;fillColor=none;top=0;left=0;bottom=0;right=0;editable=1;overflow=hidden;whiteSpace=wrap;html=1;" vertex="1" parent="w96i7xLCoSj7qpEWfzxq-235">
          <mxGeometry width="30" height="30" as="geometry">
            <mxRectangle width="30" height="30" as="alternateBounds" />
          </mxGeometry>
        </mxCell>
        <mxCell id="w96i7xLCoSj7qpEWfzxq-237" value="Row 3" style="shape=partialRectangle;connectable=0;fillColor=none;top=0;left=0;bottom=0;right=0;align=left;spacingLeft=6;overflow=hidden;whiteSpace=wrap;html=1;" vertex="1" parent="w96i7xLCoSj7qpEWfzxq-235">
          <mxGeometry x="30" width="150" height="30" as="geometry">
            <mxRectangle width="150" height="30" as="alternateBounds" />
          </mxGeometry>
        </mxCell>
        <mxCell id="w96i7xLCoSj7qpEWfzxq-238" value="" style="edgeStyle=entityRelationEdgeStyle;fontSize=12;html=1;endArrow=ERoneToMany;rounded=0;entryX=1;entryY=0.5;entryDx=0;entryDy=0;exitX=0;exitY=0.5;exitDx=0;exitDy=0;" edge="1" parent="1" source="w96i7xLCoSj7qpEWfzxq-213" target="w96i7xLCoSj7qpEWfzxq-180">
          <mxGeometry width="100" height="100" relative="1" as="geometry">
            <mxPoint x="1150" y="415" as="sourcePoint" />
            <mxPoint x="1251" y="525" as="targetPoint" />
          </mxGeometry>
        </mxCell>
        <mxCell id="w96i7xLCoSj7qpEWfzxq-239" value="" style="edgeStyle=entityRelationEdgeStyle;fontSize=12;html=1;endArrow=ERoneToMany;rounded=0;entryX=1;entryY=0.5;entryDx=0;entryDy=0;exitX=0;exitY=0.5;exitDx=0;exitDy=0;" edge="1" parent="1" source="w96i7xLCoSj7qpEWfzxq-103" target="w96i7xLCoSj7qpEWfzxq-216">
          <mxGeometry width="100" height="100" relative="1" as="geometry">
            <mxPoint x="1150" y="615" as="sourcePoint" />
            <mxPoint x="1251" y="555" as="targetPoint" />
          </mxGeometry>
        </mxCell>
        <mxCell id="w96i7xLCoSj7qpEWfzxq-240" value="" style="edgeStyle=entityRelationEdgeStyle;fontSize=12;html=1;endArrow=ERoneToMany;rounded=0;entryX=1;entryY=0.5;entryDx=0;entryDy=0;exitX=0;exitY=0.5;exitDx=0;exitDy=0;" edge="1" parent="1" source="w96i7xLCoSj7qpEWfzxq-116" target="w96i7xLCoSj7qpEWfzxq-90">
          <mxGeometry width="100" height="100" relative="1" as="geometry">
            <mxPoint x="837" y="585" as="sourcePoint" />
            <mxPoint x="970" y="645" as="targetPoint" />
          </mxGeometry>
        </mxCell>
      </root>
    </mxGraphModel>
  </diagram>
</mxfile>
